G04 #@! TF.FileFunction,Soldermask,Top*
%FSLAX46Y46*%
G04 Gerber Fmt 4.6, Leading zero omitted, Abs format (unit mm)*
G04 Created by KiCad (PCBNEW 4.0.2+dfsg1-stable) date Fri 06 Oct 2017 12:43:40 PM EEST*
%MOMM*%
G01*
G04 APERTURE LIST*
%ADD10C,0.100000*%
%ADD11R,1.000000X0.800000*%
%ADD12R,0.900000X1.000000*%
%ADD13C,1.924000*%
%ADD14R,2.432000X2.127200*%
%ADD15O,2.432000X2.127200*%
%ADD16R,1.000000X0.900000*%
%ADD17R,1.300000X0.900000*%
%ADD18R,0.800000X1.000000*%
%ADD19R,0.680000X0.810000*%
%ADD20R,0.810000X0.680000*%
%ADD21R,2.127200X2.432000*%
%ADD22O,2.127200X2.432000*%
%ADD23R,2.580000X2.000000*%
%ADD24R,1.500000X2.300000*%
%ADD25R,1.400000X1.100000*%
%ADD26O,0.900000X11.400000*%
%ADD27R,0.700000X1.200000*%
%ADD28R,1.200000X0.700000*%
%ADD29R,0.950000X0.800000*%
G04 APERTURE END LIST*
D10*
D11*
X98806000Y-70173000D03*
X98806000Y-69273000D03*
D12*
X141541500Y-71417000D03*
X141541500Y-72517000D03*
D13*
X146725000Y-67310000D03*
X151725000Y-67310000D03*
D14*
X93599000Y-65024000D03*
D15*
X93599000Y-62484000D03*
X93599000Y-59944000D03*
D14*
X93599000Y-75819000D03*
D15*
X93599000Y-73279000D03*
X93599000Y-70739000D03*
X93599000Y-68199000D03*
D16*
X117644000Y-65151000D03*
X116544000Y-65151000D03*
D17*
X117983000Y-61353000D03*
X117983000Y-62853000D03*
D18*
X118560000Y-64008000D03*
X117660000Y-64008000D03*
D19*
X143760000Y-70114500D03*
X143260000Y-70114500D03*
X143760000Y-71744500D03*
X143260000Y-71744500D03*
D20*
X142695000Y-70179500D03*
X142695000Y-70679500D03*
X142695000Y-71179500D03*
X142695000Y-71679500D03*
X144325000Y-71679500D03*
X144325000Y-71179500D03*
X144325000Y-70679500D03*
X144325000Y-70179500D03*
D12*
X145478500Y-69236500D03*
X145478500Y-70336500D03*
X132969000Y-77258000D03*
X132969000Y-76158000D03*
D16*
X145373000Y-71564500D03*
X146473000Y-71564500D03*
D12*
X111760000Y-65871000D03*
X111760000Y-66971000D03*
X114300000Y-65744000D03*
X114300000Y-66844000D03*
X116205000Y-63077000D03*
X116205000Y-64177000D03*
X154622500Y-69130000D03*
X154622500Y-68030000D03*
X106870500Y-62378500D03*
X106870500Y-63478500D03*
D21*
X106807000Y-58293000D03*
D22*
X104267000Y-58293000D03*
X101727000Y-58293000D03*
X99187000Y-58293000D03*
X96647000Y-58293000D03*
D14*
X124714000Y-68961000D03*
D15*
X124714000Y-66421000D03*
X124714000Y-63881000D03*
X124714000Y-61341000D03*
X124714000Y-58801000D03*
D11*
X135699500Y-71062000D03*
X135699500Y-70162000D03*
X135699500Y-68130000D03*
X135699500Y-69030000D03*
D18*
X107812000Y-76581000D03*
X108712000Y-76581000D03*
D11*
X156019500Y-71760500D03*
X156019500Y-70860500D03*
D18*
X144330000Y-64643000D03*
X145230000Y-64643000D03*
D11*
X156019500Y-68066500D03*
X156019500Y-68966500D03*
D18*
X117787000Y-60325000D03*
X118687000Y-60325000D03*
X117787000Y-59055000D03*
X118687000Y-59055000D03*
X117787000Y-57785000D03*
X118687000Y-57785000D03*
X96716000Y-65151000D03*
X95816000Y-65151000D03*
X96716000Y-63690500D03*
X95816000Y-63690500D03*
X96716000Y-62357000D03*
X95816000Y-62357000D03*
D23*
X105892600Y-76669900D03*
X96647000Y-76644500D03*
D24*
X113137000Y-64262000D03*
X110637000Y-64262000D03*
D14*
X120840500Y-63627000D03*
D15*
X120840500Y-61087000D03*
X120840500Y-58547000D03*
D14*
X157797500Y-65024000D03*
D15*
X157797500Y-62484000D03*
X157797500Y-59944000D03*
D14*
X130556000Y-66421000D03*
D15*
X130556000Y-63881000D03*
X130556000Y-61341000D03*
D14*
X130556000Y-77216000D03*
D15*
X130556000Y-74676000D03*
X130556000Y-72136000D03*
X130556000Y-69596000D03*
D25*
X142116500Y-59829000D03*
X144776500Y-59829000D03*
X144776500Y-61329000D03*
X142116500Y-61329000D03*
X142116500Y-75069000D03*
X144776500Y-75069000D03*
X144776500Y-76569000D03*
X142116500Y-76569000D03*
D14*
X121475500Y-66548000D03*
D15*
X121475500Y-69088000D03*
X121475500Y-71628000D03*
X121475500Y-74168000D03*
X121475500Y-76708000D03*
D14*
X158432500Y-67945000D03*
D15*
X158432500Y-70485000D03*
X158432500Y-73025000D03*
X158432500Y-75565000D03*
X158432500Y-78105000D03*
D18*
X133090500Y-69024500D03*
X133990500Y-69024500D03*
X133021500Y-70612000D03*
X133921500Y-70612000D03*
D26*
X127762000Y-62738000D03*
X127762000Y-74803000D03*
D27*
X142700500Y-65791000D03*
X143200500Y-65791000D03*
X143700500Y-65791000D03*
X144200500Y-65791000D03*
X144200500Y-67691000D03*
X143700500Y-67691000D03*
X143200500Y-67691000D03*
X142700500Y-67691000D03*
D28*
X144400500Y-66741000D03*
X142500500Y-66741000D03*
D29*
X115710000Y-57295000D03*
X115710000Y-58045000D03*
X114935000Y-58420000D03*
X115710000Y-58795000D03*
X114935000Y-59170000D03*
X115710000Y-59545000D03*
X114935000Y-59920000D03*
X115710000Y-60295000D03*
X115710000Y-61045000D03*
X115710000Y-62045000D03*
X114935000Y-61460000D03*
X114460000Y-62045000D03*
X113985000Y-61460000D03*
X113510000Y-62045000D03*
X113035000Y-61460000D03*
X112560000Y-62045000D03*
X112085000Y-61460000D03*
X111610000Y-62045000D03*
X111135000Y-61460000D03*
X110360000Y-62045000D03*
X110360000Y-61045000D03*
X110360000Y-60295000D03*
X110360000Y-59545000D03*
X111135000Y-59920000D03*
X111135000Y-59170000D03*
X111135000Y-58420000D03*
X110360000Y-58795000D03*
X110360000Y-58045000D03*
X110360000Y-57295000D03*
M02*
