G04 #@! TF.FileFunction,Legend,Top*
%FSLAX46Y46*%
G04 Gerber Fmt 4.6, Leading zero omitted, Abs format (unit mm)*
G04 Created by KiCad (PCBNEW 4.0.2+dfsg1-stable) date Fri 06 Oct 2017 12:43:40 PM EEST*
%MOMM*%
G01*
G04 APERTURE LIST*
%ADD10C,0.100000*%
%ADD11C,0.200000*%
%ADD12C,0.250000*%
%ADD13C,0.150000*%
%ADD14R,1.000000X0.800000*%
%ADD15R,0.900000X1.000000*%
%ADD16C,1.924000*%
%ADD17R,2.432000X2.127200*%
%ADD18O,2.432000X2.127200*%
%ADD19R,1.000000X0.900000*%
%ADD20R,1.300000X0.900000*%
%ADD21R,0.800000X1.000000*%
%ADD22R,0.680000X0.810000*%
%ADD23R,0.810000X0.680000*%
%ADD24R,2.127200X2.432000*%
%ADD25O,2.127200X2.432000*%
%ADD26R,2.580000X2.000000*%
%ADD27R,1.500000X2.300000*%
%ADD28R,1.400000X1.100000*%
%ADD29O,0.900000X11.400000*%
%ADD30R,0.700000X1.200000*%
%ADD31R,1.200000X0.700000*%
%ADD32R,0.950000X0.800000*%
G04 APERTURE END LIST*
D10*
D11*
X116700300Y-64668400D02*
X117462300Y-64668400D01*
X116700300Y-64668400D02*
X116700300Y-62611000D01*
X115735100Y-65608200D02*
X115735100Y-62636400D01*
X117487700Y-65633600D02*
X115760500Y-65633600D01*
X117094000Y-66230500D02*
X117094000Y-65659000D01*
X118364000Y-67056000D02*
X118364000Y-64833500D01*
X118808500Y-67056000D02*
X118364000Y-67056000D01*
X118237000Y-56832500D02*
X118237000Y-57086500D01*
X121793000Y-56832500D02*
X118237000Y-56832500D01*
D12*
X111133500Y-76414762D02*
X111276357Y-76462381D01*
X111514453Y-76462381D01*
X111609691Y-76414762D01*
X111657310Y-76367143D01*
X111704929Y-76271905D01*
X111704929Y-76176667D01*
X111657310Y-76081429D01*
X111609691Y-76033810D01*
X111514453Y-75986190D01*
X111323976Y-75938571D01*
X111228738Y-75890952D01*
X111181119Y-75843333D01*
X111133500Y-75748095D01*
X111133500Y-75652857D01*
X111181119Y-75557619D01*
X111228738Y-75510000D01*
X111323976Y-75462381D01*
X111562072Y-75462381D01*
X111704929Y-75510000D01*
X112562072Y-75795714D02*
X112562072Y-76462381D01*
X112133500Y-75795714D02*
X112133500Y-76319524D01*
X112181119Y-76414762D01*
X112276357Y-76462381D01*
X112419215Y-76462381D01*
X112514453Y-76414762D01*
X112562072Y-76367143D01*
X113038262Y-75795714D02*
X113038262Y-76462381D01*
X113038262Y-75890952D02*
X113085881Y-75843333D01*
X113181119Y-75795714D01*
X113323977Y-75795714D01*
X113419215Y-75843333D01*
X113466834Y-75938571D01*
X113466834Y-76462381D01*
X114323977Y-76414762D02*
X114228739Y-76462381D01*
X114038262Y-76462381D01*
X113943024Y-76414762D01*
X113895405Y-76319524D01*
X113895405Y-75938571D01*
X113943024Y-75843333D01*
X114038262Y-75795714D01*
X114228739Y-75795714D01*
X114323977Y-75843333D01*
X114371596Y-75938571D01*
X114371596Y-76033810D01*
X113895405Y-76129048D01*
X115181120Y-76414762D02*
X115085882Y-76462381D01*
X114895405Y-76462381D01*
X114800167Y-76414762D01*
X114752548Y-76319524D01*
X114752548Y-75938571D01*
X114800167Y-75843333D01*
X114895405Y-75795714D01*
X115085882Y-75795714D01*
X115181120Y-75843333D01*
X115228739Y-75938571D01*
X115228739Y-76033810D01*
X114752548Y-76129048D01*
X116752549Y-75938571D02*
X116895406Y-75986190D01*
X116943025Y-76033810D01*
X116990644Y-76129048D01*
X116990644Y-76271905D01*
X116943025Y-76367143D01*
X116895406Y-76414762D01*
X116800168Y-76462381D01*
X116419215Y-76462381D01*
X116419215Y-75462381D01*
X116752549Y-75462381D01*
X116847787Y-75510000D01*
X116895406Y-75557619D01*
X116943025Y-75652857D01*
X116943025Y-75748095D01*
X116895406Y-75843333D01*
X116847787Y-75890952D01*
X116752549Y-75938571D01*
X116419215Y-75938571D01*
X117943025Y-76462381D02*
X117371596Y-76462381D01*
X117657310Y-76462381D02*
X117657310Y-75462381D01*
X117562072Y-75605238D01*
X117466834Y-75700476D01*
X117371596Y-75748095D01*
X118371596Y-76367143D02*
X118419215Y-76414762D01*
X118371596Y-76462381D01*
X118323977Y-76414762D01*
X118371596Y-76367143D01*
X118371596Y-76462381D01*
X119038262Y-75462381D02*
X119133501Y-75462381D01*
X119228739Y-75510000D01*
X119276358Y-75557619D01*
X119323977Y-75652857D01*
X119371596Y-75843333D01*
X119371596Y-76081429D01*
X119323977Y-76271905D01*
X119276358Y-76367143D01*
X119228739Y-76414762D01*
X119133501Y-76462381D01*
X119038262Y-76462381D01*
X118943024Y-76414762D01*
X118895405Y-76367143D01*
X118847786Y-76271905D01*
X118800167Y-76081429D01*
X118800167Y-75843333D01*
X118847786Y-75652857D01*
X118895405Y-75557619D01*
X118943024Y-75510000D01*
X119038262Y-75462381D01*
X114966834Y-77588571D02*
X115109691Y-77636190D01*
X115157310Y-77683810D01*
X115204929Y-77779048D01*
X115204929Y-77921905D01*
X115157310Y-78017143D01*
X115109691Y-78064762D01*
X115014453Y-78112381D01*
X114633500Y-78112381D01*
X114633500Y-77112381D01*
X114966834Y-77112381D01*
X115062072Y-77160000D01*
X115109691Y-77207619D01*
X115157310Y-77302857D01*
X115157310Y-77398095D01*
X115109691Y-77493333D01*
X115062072Y-77540952D01*
X114966834Y-77588571D01*
X114633500Y-77588571D01*
X115776357Y-78112381D02*
X115681119Y-78064762D01*
X115633500Y-78017143D01*
X115585881Y-77921905D01*
X115585881Y-77636190D01*
X115633500Y-77540952D01*
X115681119Y-77493333D01*
X115776357Y-77445714D01*
X115919215Y-77445714D01*
X116014453Y-77493333D01*
X116062072Y-77540952D01*
X116109691Y-77636190D01*
X116109691Y-77921905D01*
X116062072Y-78017143D01*
X116014453Y-78064762D01*
X115919215Y-78112381D01*
X115776357Y-78112381D01*
X116395405Y-77445714D02*
X116776357Y-77445714D01*
X116538262Y-77112381D02*
X116538262Y-77969524D01*
X116585881Y-78064762D01*
X116681119Y-78112381D01*
X116776357Y-78112381D01*
X129786785Y-59205762D02*
X129929642Y-59253381D01*
X130167738Y-59253381D01*
X130262976Y-59205762D01*
X130310595Y-59158143D01*
X130358214Y-59062905D01*
X130358214Y-58967667D01*
X130310595Y-58872429D01*
X130262976Y-58824810D01*
X130167738Y-58777190D01*
X129977261Y-58729571D01*
X129882023Y-58681952D01*
X129834404Y-58634333D01*
X129786785Y-58539095D01*
X129786785Y-58443857D01*
X129834404Y-58348619D01*
X129882023Y-58301000D01*
X129977261Y-58253381D01*
X130215357Y-58253381D01*
X130358214Y-58301000D01*
X131215357Y-58586714D02*
X131215357Y-59253381D01*
X130786785Y-58586714D02*
X130786785Y-59110524D01*
X130834404Y-59205762D01*
X130929642Y-59253381D01*
X131072500Y-59253381D01*
X131167738Y-59205762D01*
X131215357Y-59158143D01*
X131691547Y-58586714D02*
X131691547Y-59253381D01*
X131691547Y-58681952D02*
X131739166Y-58634333D01*
X131834404Y-58586714D01*
X131977262Y-58586714D01*
X132072500Y-58634333D01*
X132120119Y-58729571D01*
X132120119Y-59253381D01*
X132977262Y-59205762D02*
X132882024Y-59253381D01*
X132691547Y-59253381D01*
X132596309Y-59205762D01*
X132548690Y-59110524D01*
X132548690Y-58729571D01*
X132596309Y-58634333D01*
X132691547Y-58586714D01*
X132882024Y-58586714D01*
X132977262Y-58634333D01*
X133024881Y-58729571D01*
X133024881Y-58824810D01*
X132548690Y-58920048D01*
X133834405Y-59205762D02*
X133739167Y-59253381D01*
X133548690Y-59253381D01*
X133453452Y-59205762D01*
X133405833Y-59110524D01*
X133405833Y-58729571D01*
X133453452Y-58634333D01*
X133548690Y-58586714D01*
X133739167Y-58586714D01*
X133834405Y-58634333D01*
X133882024Y-58729571D01*
X133882024Y-58824810D01*
X133405833Y-58920048D01*
X135405834Y-58729571D02*
X135548691Y-58777190D01*
X135596310Y-58824810D01*
X135643929Y-58920048D01*
X135643929Y-59062905D01*
X135596310Y-59158143D01*
X135548691Y-59205762D01*
X135453453Y-59253381D01*
X135072500Y-59253381D01*
X135072500Y-58253381D01*
X135405834Y-58253381D01*
X135501072Y-58301000D01*
X135548691Y-58348619D01*
X135596310Y-58443857D01*
X135596310Y-58539095D01*
X135548691Y-58634333D01*
X135501072Y-58681952D01*
X135405834Y-58729571D01*
X135072500Y-58729571D01*
X136596310Y-59253381D02*
X136024881Y-59253381D01*
X136310595Y-59253381D02*
X136310595Y-58253381D01*
X136215357Y-58396238D01*
X136120119Y-58491476D01*
X136024881Y-58539095D01*
X137024881Y-59158143D02*
X137072500Y-59205762D01*
X137024881Y-59253381D01*
X136977262Y-59205762D01*
X137024881Y-59158143D01*
X137024881Y-59253381D01*
X137691547Y-58253381D02*
X137786786Y-58253381D01*
X137882024Y-58301000D01*
X137929643Y-58348619D01*
X137977262Y-58443857D01*
X138024881Y-58634333D01*
X138024881Y-58872429D01*
X137977262Y-59062905D01*
X137929643Y-59158143D01*
X137882024Y-59205762D01*
X137786786Y-59253381D01*
X137691547Y-59253381D01*
X137596309Y-59205762D01*
X137548690Y-59158143D01*
X137501071Y-59062905D01*
X137453452Y-58872429D01*
X137453452Y-58634333D01*
X137501071Y-58443857D01*
X137548690Y-58348619D01*
X137596309Y-58301000D01*
X137691547Y-58253381D01*
X139072500Y-58253381D02*
X139643929Y-58253381D01*
X139358214Y-59253381D02*
X139358214Y-58253381D01*
X140120119Y-59253381D02*
X140024881Y-59205762D01*
X139977262Y-59158143D01*
X139929643Y-59062905D01*
X139929643Y-58777190D01*
X139977262Y-58681952D01*
X140024881Y-58634333D01*
X140120119Y-58586714D01*
X140262977Y-58586714D01*
X140358215Y-58634333D01*
X140405834Y-58681952D01*
X140453453Y-58777190D01*
X140453453Y-59062905D01*
X140405834Y-59158143D01*
X140358215Y-59205762D01*
X140262977Y-59253381D01*
X140120119Y-59253381D01*
X140882024Y-58586714D02*
X140882024Y-59586714D01*
X140882024Y-58634333D02*
X140977262Y-58586714D01*
X141167739Y-58586714D01*
X141262977Y-58634333D01*
X141310596Y-58681952D01*
X141358215Y-58777190D01*
X141358215Y-59062905D01*
X141310596Y-59158143D01*
X141262977Y-59205762D01*
X141167739Y-59253381D01*
X140977262Y-59253381D01*
X140882024Y-59205762D01*
D13*
X98281000Y-69473000D02*
X98281000Y-69973000D01*
X99331000Y-69973000D02*
X99331000Y-69473000D01*
X142016500Y-72217000D02*
X142016500Y-71717000D01*
X141066500Y-71717000D02*
X141066500Y-72217000D01*
X92049000Y-65024000D02*
X92049000Y-66574000D01*
X92049000Y-66574000D02*
X95149000Y-66574000D01*
X95149000Y-66574000D02*
X95149000Y-65024000D01*
X92329000Y-63754000D02*
X92329000Y-58674000D01*
X92329000Y-58674000D02*
X94869000Y-58674000D01*
X94869000Y-58674000D02*
X94869000Y-63754000D01*
X94869000Y-63754000D02*
X92329000Y-63754000D01*
X92329000Y-74549000D02*
X92329000Y-66929000D01*
X94869000Y-74549000D02*
X94869000Y-66929000D01*
X95149000Y-77369000D02*
X95149000Y-75819000D01*
X92329000Y-66929000D02*
X94869000Y-66929000D01*
X94869000Y-74549000D02*
X92329000Y-74549000D01*
X92049000Y-75819000D02*
X92049000Y-77369000D01*
X92049000Y-77369000D02*
X95149000Y-77369000D01*
X116844000Y-65626000D02*
X117344000Y-65626000D01*
X117344000Y-64676000D02*
X116844000Y-64676000D01*
X117308000Y-62603000D02*
X117308000Y-61603000D01*
X118658000Y-61603000D02*
X118658000Y-62603000D01*
X117860000Y-64533000D02*
X118360000Y-64533000D01*
X118360000Y-63483000D02*
X117860000Y-63483000D01*
D10*
X142351421Y-69629500D02*
G75*
G03X142351421Y-69629500I-141421J0D01*
G01*
X144510000Y-69929500D02*
X144510000Y-71929500D01*
X144510000Y-71929500D02*
X142510000Y-71929500D01*
X142510000Y-71929500D02*
X142510000Y-69929500D01*
X142510000Y-69929500D02*
X144510000Y-69929500D01*
D13*
X145953500Y-70036500D02*
X145953500Y-69536500D01*
X145003500Y-69536500D02*
X145003500Y-70036500D01*
X132494000Y-76458000D02*
X132494000Y-76958000D01*
X133444000Y-76958000D02*
X133444000Y-76458000D01*
X146173000Y-71089500D02*
X145673000Y-71089500D01*
X145673000Y-72039500D02*
X146173000Y-72039500D01*
X112235000Y-66671000D02*
X112235000Y-66171000D01*
X111285000Y-66171000D02*
X111285000Y-66671000D01*
X114775000Y-66544000D02*
X114775000Y-66044000D01*
X113825000Y-66044000D02*
X113825000Y-66544000D01*
X116680000Y-63877000D02*
X116680000Y-63377000D01*
X115730000Y-63377000D02*
X115730000Y-63877000D01*
X154147500Y-68330000D02*
X154147500Y-68830000D01*
X155097500Y-68830000D02*
X155097500Y-68330000D01*
X107345500Y-63178500D02*
X107345500Y-62678500D01*
X106395500Y-62678500D02*
X106395500Y-63178500D01*
X105537000Y-57023000D02*
X95377000Y-57023000D01*
X95377000Y-57023000D02*
X95377000Y-59563000D01*
X95377000Y-59563000D02*
X105537000Y-59563000D01*
X108357000Y-56743000D02*
X106807000Y-56743000D01*
X105537000Y-57023000D02*
X105537000Y-59563000D01*
X106807000Y-59843000D02*
X108357000Y-59843000D01*
X108357000Y-59843000D02*
X108357000Y-56743000D01*
X125984000Y-67691000D02*
X125984000Y-57531000D01*
X125984000Y-57531000D02*
X123444000Y-57531000D01*
X123444000Y-57531000D02*
X123444000Y-67691000D01*
X126264000Y-70511000D02*
X126264000Y-68961000D01*
X125984000Y-67691000D02*
X123444000Y-67691000D01*
X123164000Y-68961000D02*
X123164000Y-70511000D01*
X123164000Y-70511000D02*
X126264000Y-70511000D01*
X135174500Y-70362000D02*
X135174500Y-70862000D01*
X136224500Y-70862000D02*
X136224500Y-70362000D01*
X136224500Y-68830000D02*
X136224500Y-68330000D01*
X135174500Y-68330000D02*
X135174500Y-68830000D01*
X108512000Y-76056000D02*
X108012000Y-76056000D01*
X108012000Y-77106000D02*
X108512000Y-77106000D01*
X155494500Y-71060500D02*
X155494500Y-71560500D01*
X156544500Y-71560500D02*
X156544500Y-71060500D01*
X145030000Y-64118000D02*
X144530000Y-64118000D01*
X144530000Y-65168000D02*
X145030000Y-65168000D01*
X156544500Y-68766500D02*
X156544500Y-68266500D01*
X155494500Y-68266500D02*
X155494500Y-68766500D01*
X118487000Y-59800000D02*
X117987000Y-59800000D01*
X117987000Y-60850000D02*
X118487000Y-60850000D01*
X118487000Y-58530000D02*
X117987000Y-58530000D01*
X117987000Y-59580000D02*
X118487000Y-59580000D01*
X118487000Y-57260000D02*
X117987000Y-57260000D01*
X117987000Y-58310000D02*
X118487000Y-58310000D01*
X96016000Y-65676000D02*
X96516000Y-65676000D01*
X96516000Y-64626000D02*
X96016000Y-64626000D01*
X96016000Y-64215500D02*
X96516000Y-64215500D01*
X96516000Y-63165500D02*
X96016000Y-63165500D01*
X96016000Y-62882000D02*
X96516000Y-62882000D01*
X96516000Y-61832000D02*
X96016000Y-61832000D01*
X104203500Y-74930000D02*
X98234500Y-74930000D01*
X104267000Y-78486000D02*
X98234500Y-78486000D01*
X98234500Y-74930000D02*
X98234500Y-78486000D01*
X104267000Y-76708000D02*
X104267000Y-78486000D01*
X104267000Y-78486000D02*
X104267000Y-74930000D01*
D10*
X113787000Y-65362000D02*
X109987000Y-65362000D01*
X109987000Y-65362000D02*
X109987000Y-63162000D01*
X113787000Y-65362000D02*
X113787000Y-65262000D01*
X109987000Y-63162000D02*
X113787000Y-63162000D01*
X113787000Y-63162000D02*
X113787000Y-65262000D01*
D13*
X119290500Y-63627000D02*
X119290500Y-65177000D01*
X119290500Y-65177000D02*
X122390500Y-65177000D01*
X122390500Y-65177000D02*
X122390500Y-63627000D01*
X119570500Y-62357000D02*
X119570500Y-57277000D01*
X119570500Y-57277000D02*
X122110500Y-57277000D01*
X122110500Y-57277000D02*
X122110500Y-62357000D01*
X122110500Y-62357000D02*
X119570500Y-62357000D01*
X120205500Y-67818000D02*
X120205500Y-77978000D01*
X120205500Y-77978000D02*
X122745500Y-77978000D01*
X122745500Y-77978000D02*
X122745500Y-67818000D01*
X119925500Y-64998000D02*
X119925500Y-66548000D01*
X120205500Y-67818000D02*
X122745500Y-67818000D01*
X123025500Y-66548000D02*
X123025500Y-64998000D01*
X123025500Y-64998000D02*
X119925500Y-64998000D01*
X133790500Y-68499500D02*
X133290500Y-68499500D01*
X133290500Y-69549500D02*
X133790500Y-69549500D01*
X133721500Y-70087000D02*
X133221500Y-70087000D01*
X133221500Y-71137000D02*
X133721500Y-71137000D01*
D10*
X142391921Y-67941000D02*
G75*
G03X142391921Y-67941000I-141421J0D01*
G01*
X142450500Y-67741000D02*
X142450500Y-65741000D01*
X142450500Y-65741000D02*
X144450500Y-65741000D01*
X144450500Y-65741000D02*
X144450500Y-67741000D01*
X144450500Y-67741000D02*
X142450500Y-67741000D01*
X109835000Y-57095000D02*
X116235000Y-57095000D01*
X116235000Y-57095000D02*
X116235000Y-62495000D01*
X116235000Y-62495000D02*
X109835000Y-62495000D01*
X109835000Y-62495000D02*
X109835000Y-57095000D01*
D13*
X100323667Y-68687905D02*
X100057000Y-68306952D01*
X99866524Y-68687905D02*
X99866524Y-67887905D01*
X100171286Y-67887905D01*
X100247477Y-67926000D01*
X100285572Y-67964095D01*
X100323667Y-68040286D01*
X100323667Y-68154571D01*
X100285572Y-68230762D01*
X100247477Y-68268857D01*
X100171286Y-68306952D01*
X99866524Y-68306952D01*
X101009381Y-68154571D02*
X101009381Y-68687905D01*
X100818905Y-67849810D02*
X100628429Y-68421238D01*
X101123667Y-68421238D01*
X100274524Y-70175381D02*
X99703095Y-70175381D01*
X99988809Y-70175381D02*
X99988809Y-69175381D01*
X99893571Y-69318238D01*
X99798333Y-69413476D01*
X99703095Y-69461095D01*
X100893571Y-69175381D02*
X100988810Y-69175381D01*
X101084048Y-69223000D01*
X101131667Y-69270619D01*
X101179286Y-69365857D01*
X101226905Y-69556333D01*
X101226905Y-69794429D01*
X101179286Y-69984905D01*
X101131667Y-70080143D01*
X101084048Y-70127762D01*
X100988810Y-70175381D01*
X100893571Y-70175381D01*
X100798333Y-70127762D01*
X100750714Y-70080143D01*
X100703095Y-69984905D01*
X100655476Y-69794429D01*
X100655476Y-69556333D01*
X100703095Y-69365857D01*
X100750714Y-69270619D01*
X100798333Y-69223000D01*
X100893571Y-69175381D01*
X101655476Y-70175381D02*
X101655476Y-69175381D01*
X102226905Y-70175381D02*
X101798333Y-69603952D01*
X102226905Y-69175381D02*
X101655476Y-69746810D01*
X140709667Y-70580214D02*
X140671572Y-70618310D01*
X140557286Y-70656405D01*
X140481096Y-70656405D01*
X140366810Y-70618310D01*
X140290619Y-70542119D01*
X140252524Y-70465929D01*
X140214429Y-70313548D01*
X140214429Y-70199262D01*
X140252524Y-70046881D01*
X140290619Y-69970690D01*
X140366810Y-69894500D01*
X140481096Y-69856405D01*
X140557286Y-69856405D01*
X140671572Y-69894500D01*
X140709667Y-69932595D01*
X140976334Y-69856405D02*
X141471572Y-69856405D01*
X141204905Y-70161167D01*
X141319191Y-70161167D01*
X141395381Y-70199262D01*
X141433477Y-70237357D01*
X141471572Y-70313548D01*
X141471572Y-70504024D01*
X141433477Y-70580214D01*
X141395381Y-70618310D01*
X141319191Y-70656405D01*
X141090619Y-70656405D01*
X141014429Y-70618310D01*
X140976334Y-70580214D01*
X139642905Y-73323286D02*
X139642905Y-73247095D01*
X139681000Y-73170905D01*
X139719095Y-73132810D01*
X139795286Y-73094714D01*
X139947667Y-73056619D01*
X140138143Y-73056619D01*
X140290524Y-73094714D01*
X140366714Y-73132810D01*
X140404810Y-73170905D01*
X140442905Y-73247095D01*
X140442905Y-73323286D01*
X140404810Y-73399476D01*
X140366714Y-73437572D01*
X140290524Y-73475667D01*
X140138143Y-73513762D01*
X139947667Y-73513762D01*
X139795286Y-73475667D01*
X139719095Y-73437572D01*
X139681000Y-73399476D01*
X139642905Y-73323286D01*
X140366714Y-72713762D02*
X140404810Y-72675667D01*
X140442905Y-72713762D01*
X140404810Y-72751857D01*
X140366714Y-72713762D01*
X140442905Y-72713762D01*
X140442905Y-71913762D02*
X140442905Y-72370905D01*
X140442905Y-72142334D02*
X139642905Y-72142334D01*
X139757190Y-72218524D01*
X139833381Y-72294715D01*
X139871476Y-72370905D01*
X139909571Y-71228048D02*
X140442905Y-71228048D01*
X139909571Y-71570905D02*
X140328619Y-71570905D01*
X140404810Y-71532810D01*
X140442905Y-71456619D01*
X140442905Y-71342333D01*
X140404810Y-71266143D01*
X140366714Y-71228048D01*
X140023857Y-70580428D02*
X140023857Y-70847095D01*
X140442905Y-70847095D02*
X139642905Y-70847095D01*
X139642905Y-70466142D01*
X96654881Y-72104095D02*
X95654881Y-72104095D01*
X95654881Y-71723142D01*
X95702500Y-71627904D01*
X95750119Y-71580285D01*
X95845357Y-71532666D01*
X95988214Y-71532666D01*
X96083452Y-71580285D01*
X96131071Y-71627904D01*
X96178690Y-71723142D01*
X96178690Y-72104095D01*
X96654881Y-71104095D02*
X95654881Y-71104095D01*
X95654881Y-70866000D01*
X95702500Y-70723142D01*
X95797738Y-70627904D01*
X95892976Y-70580285D01*
X96083452Y-70532666D01*
X96226310Y-70532666D01*
X96416786Y-70580285D01*
X96512024Y-70627904D01*
X96607262Y-70723142D01*
X96654881Y-70866000D01*
X96654881Y-71104095D01*
X95654881Y-70199333D02*
X95654881Y-69580285D01*
X96035833Y-69913619D01*
X96035833Y-69770761D01*
X96083452Y-69675523D01*
X96131071Y-69627904D01*
X96226310Y-69580285D01*
X96464405Y-69580285D01*
X96559643Y-69627904D01*
X96607262Y-69675523D01*
X96654881Y-69770761D01*
X96654881Y-70056476D01*
X96607262Y-70151714D01*
X96559643Y-70199333D01*
X115474881Y-67290905D02*
X115017738Y-67290905D01*
X115246309Y-67290905D02*
X115246309Y-66490905D01*
X115170119Y-66605190D01*
X115093928Y-66681381D01*
X115017738Y-66719476D01*
X115817738Y-67214714D02*
X115855833Y-67252810D01*
X115817738Y-67290905D01*
X115779643Y-67252810D01*
X115817738Y-67214714D01*
X115817738Y-67290905D01*
X116351071Y-66490905D02*
X116427262Y-66490905D01*
X116503452Y-66529000D01*
X116541547Y-66567095D01*
X116579643Y-66643286D01*
X116617738Y-66795667D01*
X116617738Y-66986143D01*
X116579643Y-67138524D01*
X116541547Y-67214714D01*
X116503452Y-67252810D01*
X116427262Y-67290905D01*
X116351071Y-67290905D01*
X116274881Y-67252810D01*
X116236785Y-67214714D01*
X116198690Y-67138524D01*
X116160595Y-66986143D01*
X116160595Y-66795667D01*
X116198690Y-66643286D01*
X116236785Y-66567095D01*
X116274881Y-66529000D01*
X116351071Y-66490905D01*
X117303452Y-66757571D02*
X117303452Y-67290905D01*
X116960595Y-66757571D02*
X116960595Y-67176619D01*
X116998690Y-67252810D01*
X117074881Y-67290905D01*
X117189167Y-67290905D01*
X117265357Y-67252810D01*
X117303452Y-67214714D01*
X117951072Y-66871857D02*
X117684405Y-66871857D01*
X117684405Y-67290905D02*
X117684405Y-66490905D01*
X118065358Y-66490905D01*
X119678405Y-68306786D02*
X119678405Y-68763929D01*
X119678405Y-68535358D02*
X118878405Y-68535358D01*
X118992690Y-68611548D01*
X119068881Y-68687739D01*
X119106976Y-68763929D01*
X118878405Y-67582976D02*
X118878405Y-67963929D01*
X119259357Y-68002024D01*
X119221262Y-67963929D01*
X119183167Y-67887738D01*
X119183167Y-67697262D01*
X119221262Y-67621072D01*
X119259357Y-67582976D01*
X119335548Y-67544881D01*
X119526024Y-67544881D01*
X119602214Y-67582976D01*
X119640310Y-67621072D01*
X119678405Y-67697262D01*
X119678405Y-67887738D01*
X119640310Y-67963929D01*
X119602214Y-68002024D01*
X119145071Y-67202024D02*
X119678405Y-67202024D01*
X119221262Y-67202024D02*
X119183167Y-67163929D01*
X119145071Y-67087738D01*
X119145071Y-66973452D01*
X119183167Y-66897262D01*
X119259357Y-66859167D01*
X119678405Y-66859167D01*
X119678405Y-66478214D02*
X118878405Y-66478214D01*
X119259357Y-66478214D02*
X119259357Y-66021071D01*
X119678405Y-66021071D02*
X118878405Y-66021071D01*
X119678405Y-65221071D02*
X119678405Y-65678214D01*
X119678405Y-65449643D02*
X118878405Y-65449643D01*
X118992690Y-65525833D01*
X119068881Y-65602024D01*
X119106976Y-65678214D01*
X142900572Y-72840833D02*
X143281524Y-72840833D01*
X142824381Y-73069405D02*
X143091048Y-72269405D01*
X143357715Y-73069405D01*
X144081524Y-72993214D02*
X144043429Y-73031310D01*
X143929143Y-73069405D01*
X143852953Y-73069405D01*
X143738667Y-73031310D01*
X143662476Y-72955119D01*
X143624381Y-72878929D01*
X143586286Y-72726548D01*
X143586286Y-72612262D01*
X143624381Y-72459881D01*
X143662476Y-72383690D01*
X143738667Y-72307500D01*
X143852953Y-72269405D01*
X143929143Y-72269405D01*
X144043429Y-72307500D01*
X144081524Y-72345595D01*
X144881524Y-72993214D02*
X144843429Y-73031310D01*
X144729143Y-73069405D01*
X144652953Y-73069405D01*
X144538667Y-73031310D01*
X144462476Y-72955119D01*
X144424381Y-72878929D01*
X144386286Y-72726548D01*
X144386286Y-72612262D01*
X144424381Y-72459881D01*
X144462476Y-72383690D01*
X144538667Y-72307500D01*
X144652953Y-72269405D01*
X144729143Y-72269405D01*
X144843429Y-72307500D01*
X144881524Y-72345595D01*
X145643429Y-73069405D02*
X145186286Y-73069405D01*
X145414857Y-73069405D02*
X145414857Y-72269405D01*
X145338667Y-72383690D01*
X145262476Y-72459881D01*
X145186286Y-72497976D01*
X141878286Y-73602857D02*
X141992572Y-73640952D01*
X142030667Y-73679048D01*
X142068762Y-73755238D01*
X142068762Y-73869524D01*
X142030667Y-73945714D01*
X141992572Y-73983810D01*
X141916381Y-74021905D01*
X141611619Y-74021905D01*
X141611619Y-73221905D01*
X141878286Y-73221905D01*
X141954476Y-73260000D01*
X141992572Y-73298095D01*
X142030667Y-73374286D01*
X142030667Y-73450476D01*
X141992572Y-73526667D01*
X141954476Y-73564762D01*
X141878286Y-73602857D01*
X141611619Y-73602857D01*
X142411619Y-74021905D02*
X142411619Y-73221905D01*
X142678286Y-73793333D01*
X142944953Y-73221905D01*
X142944953Y-74021905D01*
X143287810Y-73793333D02*
X143668762Y-73793333D01*
X143211619Y-74021905D02*
X143478286Y-73221905D01*
X143744953Y-74021905D01*
X143973524Y-73298095D02*
X144011619Y-73260000D01*
X144087810Y-73221905D01*
X144278286Y-73221905D01*
X144354476Y-73260000D01*
X144392572Y-73298095D01*
X144430667Y-73374286D01*
X144430667Y-73450476D01*
X144392572Y-73564762D01*
X143935429Y-74021905D01*
X144430667Y-74021905D01*
X145154477Y-73221905D02*
X144773524Y-73221905D01*
X144735429Y-73602857D01*
X144773524Y-73564762D01*
X144849715Y-73526667D01*
X145040191Y-73526667D01*
X145116381Y-73564762D01*
X145154477Y-73602857D01*
X145192572Y-73679048D01*
X145192572Y-73869524D01*
X145154477Y-73945714D01*
X145116381Y-73983810D01*
X145040191Y-74021905D01*
X144849715Y-74021905D01*
X144773524Y-73983810D01*
X144735429Y-73945714D01*
X145459239Y-73221905D02*
X145954477Y-73221905D01*
X145687810Y-73526667D01*
X145802096Y-73526667D01*
X145878286Y-73564762D01*
X145916382Y-73602857D01*
X145954477Y-73679048D01*
X145954477Y-73869524D01*
X145916382Y-73945714D01*
X145878286Y-73983810D01*
X145802096Y-74021905D01*
X145573524Y-74021905D01*
X145497334Y-73983810D01*
X145459239Y-73945714D01*
X145234834Y-68322000D02*
X145201500Y-68355333D01*
X145101500Y-68388667D01*
X145034834Y-68388667D01*
X144934834Y-68355333D01*
X144868167Y-68288667D01*
X144834834Y-68222000D01*
X144801500Y-68088667D01*
X144801500Y-67988667D01*
X144834834Y-67855333D01*
X144868167Y-67788667D01*
X144934834Y-67722000D01*
X145034834Y-67688667D01*
X145101500Y-67688667D01*
X145201500Y-67722000D01*
X145234834Y-67755333D01*
X145901500Y-68388667D02*
X145501500Y-68388667D01*
X145701500Y-68388667D02*
X145701500Y-67688667D01*
X145634834Y-67788667D01*
X145568167Y-67855333D01*
X145501500Y-67888667D01*
X146323214Y-69157905D02*
X146399405Y-69157905D01*
X146475595Y-69196000D01*
X146513690Y-69234095D01*
X146551786Y-69310286D01*
X146589881Y-69462667D01*
X146589881Y-69653143D01*
X146551786Y-69805524D01*
X146513690Y-69881714D01*
X146475595Y-69919810D01*
X146399405Y-69957905D01*
X146323214Y-69957905D01*
X146247024Y-69919810D01*
X146208928Y-69881714D01*
X146170833Y-69805524D01*
X146132738Y-69653143D01*
X146132738Y-69462667D01*
X146170833Y-69310286D01*
X146208928Y-69234095D01*
X146247024Y-69196000D01*
X146323214Y-69157905D01*
X146932738Y-69881714D02*
X146970833Y-69919810D01*
X146932738Y-69957905D01*
X146894643Y-69919810D01*
X146932738Y-69881714D01*
X146932738Y-69957905D01*
X147732738Y-69957905D02*
X147275595Y-69957905D01*
X147504166Y-69957905D02*
X147504166Y-69157905D01*
X147427976Y-69272190D01*
X147351785Y-69348381D01*
X147275595Y-69386476D01*
X148418452Y-69424571D02*
X148418452Y-69957905D01*
X148075595Y-69424571D02*
X148075595Y-69843619D01*
X148113690Y-69919810D01*
X148189881Y-69957905D01*
X148304167Y-69957905D01*
X148380357Y-69919810D01*
X148418452Y-69881714D01*
X149066072Y-69538857D02*
X148799405Y-69538857D01*
X148799405Y-69957905D02*
X148799405Y-69157905D01*
X149180358Y-69157905D01*
X134659643Y-76874666D02*
X134707262Y-76922285D01*
X134754881Y-77065142D01*
X134754881Y-77160380D01*
X134707262Y-77303238D01*
X134612024Y-77398476D01*
X134516786Y-77446095D01*
X134326310Y-77493714D01*
X134183452Y-77493714D01*
X133992976Y-77446095D01*
X133897738Y-77398476D01*
X133802500Y-77303238D01*
X133754881Y-77160380D01*
X133754881Y-77065142D01*
X133802500Y-76922285D01*
X133850119Y-76874666D01*
X133850119Y-76493714D02*
X133802500Y-76446095D01*
X133754881Y-76350857D01*
X133754881Y-76112761D01*
X133802500Y-76017523D01*
X133850119Y-75969904D01*
X133945357Y-75922285D01*
X134040595Y-75922285D01*
X134183452Y-75969904D01*
X134754881Y-76541333D01*
X134754881Y-75922285D01*
X132607214Y-78301905D02*
X132683405Y-78301905D01*
X132759595Y-78340000D01*
X132797690Y-78378095D01*
X132835786Y-78454286D01*
X132873881Y-78606667D01*
X132873881Y-78797143D01*
X132835786Y-78949524D01*
X132797690Y-79025714D01*
X132759595Y-79063810D01*
X132683405Y-79101905D01*
X132607214Y-79101905D01*
X132531024Y-79063810D01*
X132492928Y-79025714D01*
X132454833Y-78949524D01*
X132416738Y-78797143D01*
X132416738Y-78606667D01*
X132454833Y-78454286D01*
X132492928Y-78378095D01*
X132531024Y-78340000D01*
X132607214Y-78301905D01*
X133216738Y-79025714D02*
X133254833Y-79063810D01*
X133216738Y-79101905D01*
X133178643Y-79063810D01*
X133216738Y-79025714D01*
X133216738Y-79101905D01*
X134016738Y-79101905D02*
X133559595Y-79101905D01*
X133788166Y-79101905D02*
X133788166Y-78301905D01*
X133711976Y-78416190D01*
X133635785Y-78492381D01*
X133559595Y-78530476D01*
X134702452Y-78568571D02*
X134702452Y-79101905D01*
X134359595Y-78568571D02*
X134359595Y-78987619D01*
X134397690Y-79063810D01*
X134473881Y-79101905D01*
X134588167Y-79101905D01*
X134664357Y-79063810D01*
X134702452Y-79025714D01*
X135350072Y-78682857D02*
X135083405Y-78682857D01*
X135083405Y-79101905D02*
X135083405Y-78301905D01*
X135464358Y-78301905D01*
X147758167Y-71405714D02*
X147720072Y-71443810D01*
X147605786Y-71481905D01*
X147529596Y-71481905D01*
X147415310Y-71443810D01*
X147339119Y-71367619D01*
X147301024Y-71291429D01*
X147262929Y-71139048D01*
X147262929Y-71024762D01*
X147301024Y-70872381D01*
X147339119Y-70796190D01*
X147415310Y-70720000D01*
X147529596Y-70681905D01*
X147605786Y-70681905D01*
X147720072Y-70720000D01*
X147758167Y-70758095D01*
X148443881Y-70948571D02*
X148443881Y-71481905D01*
X148253405Y-70643810D02*
X148062929Y-71215238D01*
X148558167Y-71215238D01*
X147669405Y-72878905D02*
X147212262Y-72878905D01*
X147440833Y-72878905D02*
X147440833Y-72078905D01*
X147364643Y-72193190D01*
X147288452Y-72269381D01*
X147212262Y-72307476D01*
X148164643Y-72078905D02*
X148240834Y-72078905D01*
X148317024Y-72117000D01*
X148355119Y-72155095D01*
X148393215Y-72231286D01*
X148431310Y-72383667D01*
X148431310Y-72574143D01*
X148393215Y-72726524D01*
X148355119Y-72802714D01*
X148317024Y-72840810D01*
X148240834Y-72878905D01*
X148164643Y-72878905D01*
X148088453Y-72840810D01*
X148050357Y-72802714D01*
X148012262Y-72726524D01*
X147974167Y-72574143D01*
X147974167Y-72383667D01*
X148012262Y-72231286D01*
X148050357Y-72155095D01*
X148088453Y-72117000D01*
X148164643Y-72078905D01*
X148926548Y-72078905D02*
X149002739Y-72078905D01*
X149078929Y-72117000D01*
X149117024Y-72155095D01*
X149155120Y-72231286D01*
X149193215Y-72383667D01*
X149193215Y-72574143D01*
X149155120Y-72726524D01*
X149117024Y-72802714D01*
X149078929Y-72840810D01*
X149002739Y-72878905D01*
X148926548Y-72878905D01*
X148850358Y-72840810D01*
X148812262Y-72802714D01*
X148774167Y-72726524D01*
X148736072Y-72574143D01*
X148736072Y-72383667D01*
X148774167Y-72231286D01*
X148812262Y-72155095D01*
X148850358Y-72117000D01*
X148926548Y-72078905D01*
X149536072Y-72345571D02*
X149536072Y-72878905D01*
X149536072Y-72421762D02*
X149574167Y-72383667D01*
X149650358Y-72345571D01*
X149764644Y-72345571D01*
X149840834Y-72383667D01*
X149878929Y-72459857D01*
X149878929Y-72878905D01*
X150526549Y-72459857D02*
X150259882Y-72459857D01*
X150259882Y-72878905D02*
X150259882Y-72078905D01*
X150640835Y-72078905D01*
X111118667Y-68548214D02*
X111080572Y-68586310D01*
X110966286Y-68624405D01*
X110890096Y-68624405D01*
X110775810Y-68586310D01*
X110699619Y-68510119D01*
X110661524Y-68433929D01*
X110623429Y-68281548D01*
X110623429Y-68167262D01*
X110661524Y-68014881D01*
X110699619Y-67938690D01*
X110775810Y-67862500D01*
X110890096Y-67824405D01*
X110966286Y-67824405D01*
X111080572Y-67862500D01*
X111118667Y-67900595D01*
X111842477Y-67824405D02*
X111461524Y-67824405D01*
X111423429Y-68205357D01*
X111461524Y-68167262D01*
X111537715Y-68129167D01*
X111728191Y-68129167D01*
X111804381Y-68167262D01*
X111842477Y-68205357D01*
X111880572Y-68281548D01*
X111880572Y-68472024D01*
X111842477Y-68548214D01*
X111804381Y-68586310D01*
X111728191Y-68624405D01*
X111537715Y-68624405D01*
X111461524Y-68586310D01*
X111423429Y-68548214D01*
X111093357Y-69703905D02*
X110636214Y-69703905D01*
X110864785Y-69703905D02*
X110864785Y-68903905D01*
X110788595Y-69018190D01*
X110712404Y-69094381D01*
X110636214Y-69132476D01*
X111398119Y-68980095D02*
X111436214Y-68942000D01*
X111512405Y-68903905D01*
X111702881Y-68903905D01*
X111779071Y-68942000D01*
X111817167Y-68980095D01*
X111855262Y-69056286D01*
X111855262Y-69132476D01*
X111817167Y-69246762D01*
X111360024Y-69703905D01*
X111855262Y-69703905D01*
X112198119Y-69170571D02*
X112198119Y-69970571D01*
X112198119Y-69208667D02*
X112274310Y-69170571D01*
X112426691Y-69170571D01*
X112502881Y-69208667D01*
X112540976Y-69246762D01*
X112579072Y-69322952D01*
X112579072Y-69551524D01*
X112540976Y-69627714D01*
X112502881Y-69665810D01*
X112426691Y-69703905D01*
X112274310Y-69703905D01*
X112198119Y-69665810D01*
X113188596Y-69284857D02*
X112921929Y-69284857D01*
X112921929Y-69703905D02*
X112921929Y-68903905D01*
X113302882Y-68903905D01*
X114357167Y-68357714D02*
X114319072Y-68395810D01*
X114204786Y-68433905D01*
X114128596Y-68433905D01*
X114014310Y-68395810D01*
X113938119Y-68319619D01*
X113900024Y-68243429D01*
X113861929Y-68091048D01*
X113861929Y-67976762D01*
X113900024Y-67824381D01*
X113938119Y-67748190D01*
X114014310Y-67672000D01*
X114128596Y-67633905D01*
X114204786Y-67633905D01*
X114319072Y-67672000D01*
X114357167Y-67710095D01*
X115042881Y-67633905D02*
X114890500Y-67633905D01*
X114814310Y-67672000D01*
X114776215Y-67710095D01*
X114700024Y-67824381D01*
X114661929Y-67976762D01*
X114661929Y-68281524D01*
X114700024Y-68357714D01*
X114738119Y-68395810D01*
X114814310Y-68433905D01*
X114966691Y-68433905D01*
X115042881Y-68395810D01*
X115080977Y-68357714D01*
X115119072Y-68281524D01*
X115119072Y-68091048D01*
X115080977Y-68014857D01*
X115042881Y-67976762D01*
X114966691Y-67938667D01*
X114814310Y-67938667D01*
X114738119Y-67976762D01*
X114700024Y-68014857D01*
X114661929Y-68091048D01*
X114331857Y-69703905D02*
X113874714Y-69703905D01*
X114103285Y-69703905D02*
X114103285Y-68903905D01*
X114027095Y-69018190D01*
X113950904Y-69094381D01*
X113874714Y-69132476D01*
X114636619Y-68980095D02*
X114674714Y-68942000D01*
X114750905Y-68903905D01*
X114941381Y-68903905D01*
X115017571Y-68942000D01*
X115055667Y-68980095D01*
X115093762Y-69056286D01*
X115093762Y-69132476D01*
X115055667Y-69246762D01*
X114598524Y-69703905D01*
X115093762Y-69703905D01*
X115436619Y-69170571D02*
X115436619Y-69970571D01*
X115436619Y-69208667D02*
X115512810Y-69170571D01*
X115665191Y-69170571D01*
X115741381Y-69208667D01*
X115779476Y-69246762D01*
X115817572Y-69322952D01*
X115817572Y-69551524D01*
X115779476Y-69627714D01*
X115741381Y-69665810D01*
X115665191Y-69703905D01*
X115512810Y-69703905D01*
X115436619Y-69665810D01*
X116427096Y-69284857D02*
X116160429Y-69284857D01*
X116160429Y-69703905D02*
X116160429Y-68903905D01*
X116541382Y-68903905D01*
X114839714Y-64268333D02*
X114877810Y-64306428D01*
X114915905Y-64420714D01*
X114915905Y-64496904D01*
X114877810Y-64611190D01*
X114801619Y-64687381D01*
X114725429Y-64725476D01*
X114573048Y-64763571D01*
X114458762Y-64763571D01*
X114306381Y-64725476D01*
X114230190Y-64687381D01*
X114154000Y-64611190D01*
X114115905Y-64496904D01*
X114115905Y-64420714D01*
X114154000Y-64306428D01*
X114192095Y-64268333D01*
X114115905Y-64001666D02*
X114115905Y-63468333D01*
X114915905Y-63811190D01*
X152939714Y-69157833D02*
X152977810Y-69195928D01*
X153015905Y-69310214D01*
X153015905Y-69386404D01*
X152977810Y-69500690D01*
X152901619Y-69576881D01*
X152825429Y-69614976D01*
X152673048Y-69653071D01*
X152558762Y-69653071D01*
X152406381Y-69614976D01*
X152330190Y-69576881D01*
X152254000Y-69500690D01*
X152215905Y-69386404D01*
X152215905Y-69310214D01*
X152254000Y-69195928D01*
X152292095Y-69157833D01*
X152558762Y-68700690D02*
X152520667Y-68776881D01*
X152482571Y-68814976D01*
X152406381Y-68853071D01*
X152368286Y-68853071D01*
X152292095Y-68814976D01*
X152254000Y-68776881D01*
X152215905Y-68700690D01*
X152215905Y-68548309D01*
X152254000Y-68472119D01*
X152292095Y-68434023D01*
X152368286Y-68395928D01*
X152406381Y-68395928D01*
X152482571Y-68434023D01*
X152520667Y-68472119D01*
X152558762Y-68548309D01*
X152558762Y-68700690D01*
X152596857Y-68776881D01*
X152634952Y-68814976D01*
X152711143Y-68853071D01*
X152863524Y-68853071D01*
X152939714Y-68814976D01*
X152977810Y-68776881D01*
X153015905Y-68700690D01*
X153015905Y-68548309D01*
X152977810Y-68472119D01*
X152939714Y-68434023D01*
X152863524Y-68395928D01*
X152711143Y-68395928D01*
X152634952Y-68434023D01*
X152596857Y-68472119D01*
X152558762Y-68548309D01*
X153904905Y-69310190D02*
X153904905Y-69767333D01*
X153904905Y-69538762D02*
X153104905Y-69538762D01*
X153219190Y-69614952D01*
X153295381Y-69691143D01*
X153333476Y-69767333D01*
X153371571Y-68624476D02*
X153904905Y-68624476D01*
X153371571Y-68967333D02*
X153790619Y-68967333D01*
X153866810Y-68929238D01*
X153904905Y-68853047D01*
X153904905Y-68738761D01*
X153866810Y-68662571D01*
X153828714Y-68624476D01*
X153485857Y-67976856D02*
X153485857Y-68243523D01*
X153904905Y-68243523D02*
X153104905Y-68243523D01*
X153104905Y-67862570D01*
X107156214Y-61220333D02*
X107194310Y-61258428D01*
X107232405Y-61372714D01*
X107232405Y-61448904D01*
X107194310Y-61563190D01*
X107118119Y-61639381D01*
X107041929Y-61677476D01*
X106889548Y-61715571D01*
X106775262Y-61715571D01*
X106622881Y-61677476D01*
X106546690Y-61639381D01*
X106470500Y-61563190D01*
X106432405Y-61448904D01*
X106432405Y-61372714D01*
X106470500Y-61258428D01*
X106508595Y-61220333D01*
X107232405Y-60839381D02*
X107232405Y-60687000D01*
X107194310Y-60610809D01*
X107156214Y-60572714D01*
X107041929Y-60496523D01*
X106889548Y-60458428D01*
X106584786Y-60458428D01*
X106508595Y-60496523D01*
X106470500Y-60534619D01*
X106432405Y-60610809D01*
X106432405Y-60763190D01*
X106470500Y-60839381D01*
X106508595Y-60877476D01*
X106584786Y-60915571D01*
X106775262Y-60915571D01*
X106851452Y-60877476D01*
X106889548Y-60839381D01*
X106927643Y-60763190D01*
X106927643Y-60610809D01*
X106889548Y-60534619D01*
X106851452Y-60496523D01*
X106775262Y-60458428D01*
X107448405Y-64157786D02*
X107448405Y-64081595D01*
X107486500Y-64005405D01*
X107524595Y-63967310D01*
X107600786Y-63929214D01*
X107753167Y-63891119D01*
X107943643Y-63891119D01*
X108096024Y-63929214D01*
X108172214Y-63967310D01*
X108210310Y-64005405D01*
X108248405Y-64081595D01*
X108248405Y-64157786D01*
X108210310Y-64233976D01*
X108172214Y-64272072D01*
X108096024Y-64310167D01*
X107943643Y-64348262D01*
X107753167Y-64348262D01*
X107600786Y-64310167D01*
X107524595Y-64272072D01*
X107486500Y-64233976D01*
X107448405Y-64157786D01*
X108172214Y-63548262D02*
X108210310Y-63510167D01*
X108248405Y-63548262D01*
X108210310Y-63586357D01*
X108172214Y-63548262D01*
X108248405Y-63548262D01*
X108248405Y-62748262D02*
X108248405Y-63205405D01*
X108248405Y-62976834D02*
X107448405Y-62976834D01*
X107562690Y-63053024D01*
X107638881Y-63129215D01*
X107676976Y-63205405D01*
X107715071Y-62062548D02*
X108248405Y-62062548D01*
X107715071Y-62405405D02*
X108134119Y-62405405D01*
X108210310Y-62367310D01*
X108248405Y-62291119D01*
X108248405Y-62176833D01*
X108210310Y-62100643D01*
X108172214Y-62062548D01*
X107829357Y-61414928D02*
X107829357Y-61681595D01*
X108248405Y-61681595D02*
X107448405Y-61681595D01*
X107448405Y-61300642D01*
X100353905Y-60967881D02*
X100353905Y-59967881D01*
X100734858Y-59967881D01*
X100830096Y-60015500D01*
X100877715Y-60063119D01*
X100925334Y-60158357D01*
X100925334Y-60301214D01*
X100877715Y-60396452D01*
X100830096Y-60444071D01*
X100734858Y-60491690D01*
X100353905Y-60491690D01*
X101877715Y-60967881D02*
X101306286Y-60967881D01*
X101592000Y-60967881D02*
X101592000Y-59967881D01*
X101496762Y-60110738D01*
X101401524Y-60205976D01*
X101306286Y-60253595D01*
X123912405Y-72080381D02*
X123912405Y-71080381D01*
X124293358Y-71080381D01*
X124388596Y-71128000D01*
X124436215Y-71175619D01*
X124483834Y-71270857D01*
X124483834Y-71413714D01*
X124436215Y-71508952D01*
X124388596Y-71556571D01*
X124293358Y-71604190D01*
X123912405Y-71604190D01*
X124864786Y-71175619D02*
X124912405Y-71128000D01*
X125007643Y-71080381D01*
X125245739Y-71080381D01*
X125340977Y-71128000D01*
X125388596Y-71175619D01*
X125436215Y-71270857D01*
X125436215Y-71366095D01*
X125388596Y-71508952D01*
X124817167Y-72080381D01*
X125436215Y-72080381D01*
X137217167Y-71100905D02*
X136950500Y-70719952D01*
X136760024Y-71100905D02*
X136760024Y-70300905D01*
X137064786Y-70300905D01*
X137140977Y-70339000D01*
X137179072Y-70377095D01*
X137217167Y-70453286D01*
X137217167Y-70567571D01*
X137179072Y-70643762D01*
X137140977Y-70681857D01*
X137064786Y-70719952D01*
X136760024Y-70719952D01*
X137979072Y-71100905D02*
X137521929Y-71100905D01*
X137750500Y-71100905D02*
X137750500Y-70300905D01*
X137674310Y-70415190D01*
X137598119Y-70491381D01*
X137521929Y-70529476D01*
X137204477Y-71570905D02*
X136823524Y-71570905D01*
X136785429Y-71951857D01*
X136823524Y-71913762D01*
X136899715Y-71875667D01*
X137090191Y-71875667D01*
X137166381Y-71913762D01*
X137204477Y-71951857D01*
X137242572Y-72028048D01*
X137242572Y-72218524D01*
X137204477Y-72294714D01*
X137166381Y-72332810D01*
X137090191Y-72370905D01*
X136899715Y-72370905D01*
X136823524Y-72332810D01*
X136785429Y-72294714D01*
X137585429Y-72370905D02*
X137585429Y-71570905D01*
X138042572Y-72370905D02*
X137699715Y-71913762D01*
X138042572Y-71570905D02*
X137585429Y-72028048D01*
X137090167Y-68243405D02*
X136823500Y-67862452D01*
X136633024Y-68243405D02*
X136633024Y-67443405D01*
X136937786Y-67443405D01*
X137013977Y-67481500D01*
X137052072Y-67519595D01*
X137090167Y-67595786D01*
X137090167Y-67710071D01*
X137052072Y-67786262D01*
X137013977Y-67824357D01*
X136937786Y-67862452D01*
X136633024Y-67862452D01*
X137394929Y-67519595D02*
X137433024Y-67481500D01*
X137509215Y-67443405D01*
X137699691Y-67443405D01*
X137775881Y-67481500D01*
X137813977Y-67519595D01*
X137852072Y-67595786D01*
X137852072Y-67671976D01*
X137813977Y-67786262D01*
X137356834Y-68243405D01*
X137852072Y-68243405D01*
X135616977Y-66617905D02*
X135236024Y-66617905D01*
X135197929Y-66998857D01*
X135236024Y-66960762D01*
X135312215Y-66922667D01*
X135502691Y-66922667D01*
X135578881Y-66960762D01*
X135616977Y-66998857D01*
X135655072Y-67075048D01*
X135655072Y-67265524D01*
X135616977Y-67341714D01*
X135578881Y-67379810D01*
X135502691Y-67417905D01*
X135312215Y-67417905D01*
X135236024Y-67379810D01*
X135197929Y-67341714D01*
X135997929Y-67417905D02*
X135997929Y-66617905D01*
X136455072Y-67417905D02*
X136112215Y-66960762D01*
X136455072Y-66617905D02*
X135997929Y-67075048D01*
X108134167Y-75609405D02*
X107867500Y-75228452D01*
X107677024Y-75609405D02*
X107677024Y-74809405D01*
X107981786Y-74809405D01*
X108057977Y-74847500D01*
X108096072Y-74885595D01*
X108134167Y-74961786D01*
X108134167Y-75076071D01*
X108096072Y-75152262D01*
X108057977Y-75190357D01*
X107981786Y-75228452D01*
X107677024Y-75228452D01*
X108400834Y-74809405D02*
X108896072Y-74809405D01*
X108629405Y-75114167D01*
X108743691Y-75114167D01*
X108819881Y-75152262D01*
X108857977Y-75190357D01*
X108896072Y-75266548D01*
X108896072Y-75457024D01*
X108857977Y-75533214D01*
X108819881Y-75571310D01*
X108743691Y-75609405D01*
X108515119Y-75609405D01*
X108438929Y-75571310D01*
X108400834Y-75533214D01*
X107362786Y-77430381D02*
X107981834Y-77430381D01*
X107648500Y-77811333D01*
X107791358Y-77811333D01*
X107886596Y-77858952D01*
X107934215Y-77906571D01*
X107981834Y-78001810D01*
X107981834Y-78239905D01*
X107934215Y-78335143D01*
X107886596Y-78382762D01*
X107791358Y-78430381D01*
X107505643Y-78430381D01*
X107410405Y-78382762D01*
X107362786Y-78335143D01*
X108315167Y-77430381D02*
X108934215Y-77430381D01*
X108600881Y-77811333D01*
X108743739Y-77811333D01*
X108838977Y-77858952D01*
X108886596Y-77906571D01*
X108934215Y-78001810D01*
X108934215Y-78239905D01*
X108886596Y-78335143D01*
X108838977Y-78382762D01*
X108743739Y-78430381D01*
X108458024Y-78430381D01*
X108362786Y-78382762D01*
X108315167Y-78335143D01*
X109553262Y-77430381D02*
X109648501Y-77430381D01*
X109743739Y-77478000D01*
X109791358Y-77525619D01*
X109838977Y-77620857D01*
X109886596Y-77811333D01*
X109886596Y-78049429D01*
X109838977Y-78239905D01*
X109791358Y-78335143D01*
X109743739Y-78382762D01*
X109648501Y-78430381D01*
X109553262Y-78430381D01*
X109458024Y-78382762D01*
X109410405Y-78335143D01*
X109362786Y-78239905D01*
X109315167Y-78049429D01*
X109315167Y-77811333D01*
X109362786Y-77620857D01*
X109410405Y-77525619D01*
X109458024Y-77478000D01*
X109553262Y-77430381D01*
X155174905Y-71888333D02*
X154793952Y-72155000D01*
X155174905Y-72345476D02*
X154374905Y-72345476D01*
X154374905Y-72040714D01*
X154413000Y-71964523D01*
X154451095Y-71926428D01*
X154527286Y-71888333D01*
X154641571Y-71888333D01*
X154717762Y-71926428D01*
X154755857Y-71964523D01*
X154793952Y-72040714D01*
X154793952Y-72345476D01*
X154374905Y-71164523D02*
X154374905Y-71545476D01*
X154755857Y-71583571D01*
X154717762Y-71545476D01*
X154679667Y-71469285D01*
X154679667Y-71278809D01*
X154717762Y-71202619D01*
X154755857Y-71164523D01*
X154832048Y-71126428D01*
X155022524Y-71126428D01*
X155098714Y-71164523D01*
X155136810Y-71202619D01*
X155174905Y-71278809D01*
X155174905Y-71469285D01*
X155136810Y-71545476D01*
X155098714Y-71583571D01*
X155581405Y-73361523D02*
X155581405Y-73742476D01*
X155962357Y-73780571D01*
X155924262Y-73742476D01*
X155886167Y-73666285D01*
X155886167Y-73475809D01*
X155924262Y-73399619D01*
X155962357Y-73361523D01*
X156038548Y-73323428D01*
X156229024Y-73323428D01*
X156305214Y-73361523D01*
X156343310Y-73399619D01*
X156381405Y-73475809D01*
X156381405Y-73666285D01*
X156343310Y-73742476D01*
X156305214Y-73780571D01*
X156381405Y-72980571D02*
X155581405Y-72980571D01*
X156381405Y-72523428D02*
X155924262Y-72866285D01*
X155581405Y-72523428D02*
X156038548Y-72980571D01*
X143313167Y-63417405D02*
X143046500Y-63036452D01*
X142856024Y-63417405D02*
X142856024Y-62617405D01*
X143160786Y-62617405D01*
X143236977Y-62655500D01*
X143275072Y-62693595D01*
X143313167Y-62769786D01*
X143313167Y-62884071D01*
X143275072Y-62960262D01*
X143236977Y-62998357D01*
X143160786Y-63036452D01*
X142856024Y-63036452D01*
X143998881Y-62617405D02*
X143846500Y-62617405D01*
X143770310Y-62655500D01*
X143732215Y-62693595D01*
X143656024Y-62807881D01*
X143617929Y-62960262D01*
X143617929Y-63265024D01*
X143656024Y-63341214D01*
X143694119Y-63379310D01*
X143770310Y-63417405D01*
X143922691Y-63417405D01*
X143998881Y-63379310D01*
X144036977Y-63341214D01*
X144075072Y-63265024D01*
X144075072Y-63074548D01*
X144036977Y-62998357D01*
X143998881Y-62960262D01*
X143922691Y-62922167D01*
X143770310Y-62922167D01*
X143694119Y-62960262D01*
X143656024Y-62998357D01*
X143617929Y-63074548D01*
X145497619Y-63607905D02*
X145040476Y-63607905D01*
X145269047Y-63607905D02*
X145269047Y-62807905D01*
X145192857Y-62922190D01*
X145116666Y-62998381D01*
X145040476Y-63036476D01*
X145992857Y-62807905D02*
X146069048Y-62807905D01*
X146145238Y-62846000D01*
X146183333Y-62884095D01*
X146221429Y-62960286D01*
X146259524Y-63112667D01*
X146259524Y-63303143D01*
X146221429Y-63455524D01*
X146183333Y-63531714D01*
X146145238Y-63569810D01*
X146069048Y-63607905D01*
X145992857Y-63607905D01*
X145916667Y-63569810D01*
X145878571Y-63531714D01*
X145840476Y-63455524D01*
X145802381Y-63303143D01*
X145802381Y-63112667D01*
X145840476Y-62960286D01*
X145878571Y-62884095D01*
X145916667Y-62846000D01*
X145992857Y-62807905D01*
X146602381Y-63607905D02*
X146602381Y-62807905D01*
X147059524Y-63607905D02*
X146716667Y-63150762D01*
X147059524Y-62807905D02*
X146602381Y-63265048D01*
X155301905Y-66617833D02*
X154920952Y-66884500D01*
X155301905Y-67074976D02*
X154501905Y-67074976D01*
X154501905Y-66770214D01*
X154540000Y-66694023D01*
X154578095Y-66655928D01*
X154654286Y-66617833D01*
X154768571Y-66617833D01*
X154844762Y-66655928D01*
X154882857Y-66694023D01*
X154920952Y-66770214D01*
X154920952Y-67074976D01*
X154501905Y-66351166D02*
X154501905Y-65817833D01*
X155301905Y-66160690D01*
X155644905Y-67513071D02*
X155644905Y-67017833D01*
X155949667Y-67284500D01*
X155949667Y-67170214D01*
X155987762Y-67094024D01*
X156025857Y-67055928D01*
X156102048Y-67017833D01*
X156292524Y-67017833D01*
X156368714Y-67055928D01*
X156406810Y-67094024D01*
X156444905Y-67170214D01*
X156444905Y-67398786D01*
X156406810Y-67474976D01*
X156368714Y-67513071D01*
X155644905Y-66751166D02*
X155644905Y-66255928D01*
X155949667Y-66522595D01*
X155949667Y-66408309D01*
X155987762Y-66332119D01*
X156025857Y-66294023D01*
X156102048Y-66255928D01*
X156292524Y-66255928D01*
X156368714Y-66294023D01*
X156406810Y-66332119D01*
X156444905Y-66408309D01*
X156444905Y-66636881D01*
X156406810Y-66713071D01*
X156368714Y-66751166D01*
X155644905Y-65760690D02*
X155644905Y-65684499D01*
X155683000Y-65608309D01*
X155721095Y-65570214D01*
X155797286Y-65532118D01*
X155949667Y-65494023D01*
X156140143Y-65494023D01*
X156292524Y-65532118D01*
X156368714Y-65570214D01*
X156406810Y-65608309D01*
X156444905Y-65684499D01*
X156444905Y-65760690D01*
X156406810Y-65836880D01*
X156368714Y-65874976D01*
X156292524Y-65913071D01*
X156140143Y-65951166D01*
X155949667Y-65951166D01*
X155797286Y-65913071D01*
X155721095Y-65874976D01*
X155683000Y-65836880D01*
X155644905Y-65760690D01*
X117201905Y-61283833D02*
X116820952Y-61550500D01*
X117201905Y-61740976D02*
X116401905Y-61740976D01*
X116401905Y-61436214D01*
X116440000Y-61360023D01*
X116478095Y-61321928D01*
X116554286Y-61283833D01*
X116668571Y-61283833D01*
X116744762Y-61321928D01*
X116782857Y-61360023D01*
X116820952Y-61436214D01*
X116820952Y-61740976D01*
X116744762Y-60826690D02*
X116706667Y-60902881D01*
X116668571Y-60940976D01*
X116592381Y-60979071D01*
X116554286Y-60979071D01*
X116478095Y-60940976D01*
X116440000Y-60902881D01*
X116401905Y-60826690D01*
X116401905Y-60674309D01*
X116440000Y-60598119D01*
X116478095Y-60560023D01*
X116554286Y-60521928D01*
X116592381Y-60521928D01*
X116668571Y-60560023D01*
X116706667Y-60598119D01*
X116744762Y-60674309D01*
X116744762Y-60826690D01*
X116782857Y-60902881D01*
X116820952Y-60940976D01*
X116897143Y-60979071D01*
X117049524Y-60979071D01*
X117125714Y-60940976D01*
X117163810Y-60902881D01*
X117201905Y-60826690D01*
X117201905Y-60674309D01*
X117163810Y-60598119D01*
X117125714Y-60560023D01*
X117049524Y-60521928D01*
X116897143Y-60521928D01*
X116820952Y-60560023D01*
X116782857Y-60598119D01*
X116744762Y-60674309D01*
X117074905Y-59823333D02*
X116693952Y-60090000D01*
X117074905Y-60280476D02*
X116274905Y-60280476D01*
X116274905Y-59975714D01*
X116313000Y-59899523D01*
X116351095Y-59861428D01*
X116427286Y-59823333D01*
X116541571Y-59823333D01*
X116617762Y-59861428D01*
X116655857Y-59899523D01*
X116693952Y-59975714D01*
X116693952Y-60280476D01*
X117074905Y-59442381D02*
X117074905Y-59290000D01*
X117036810Y-59213809D01*
X116998714Y-59175714D01*
X116884429Y-59099523D01*
X116732048Y-59061428D01*
X116427286Y-59061428D01*
X116351095Y-59099523D01*
X116313000Y-59137619D01*
X116274905Y-59213809D01*
X116274905Y-59366190D01*
X116313000Y-59442381D01*
X116351095Y-59480476D01*
X116427286Y-59518571D01*
X116617762Y-59518571D01*
X116693952Y-59480476D01*
X116732048Y-59442381D01*
X116770143Y-59366190D01*
X116770143Y-59213809D01*
X116732048Y-59137619D01*
X116693952Y-59099523D01*
X116617762Y-59061428D01*
X117011405Y-58362786D02*
X116630452Y-58629453D01*
X117011405Y-58819929D02*
X116211405Y-58819929D01*
X116211405Y-58515167D01*
X116249500Y-58438976D01*
X116287595Y-58400881D01*
X116363786Y-58362786D01*
X116478071Y-58362786D01*
X116554262Y-58400881D01*
X116592357Y-58438976D01*
X116630452Y-58515167D01*
X116630452Y-58819929D01*
X117011405Y-57600881D02*
X117011405Y-58058024D01*
X117011405Y-57829453D02*
X116211405Y-57829453D01*
X116325690Y-57905643D01*
X116401881Y-57981834D01*
X116439976Y-58058024D01*
X116211405Y-57105643D02*
X116211405Y-57029452D01*
X116249500Y-56953262D01*
X116287595Y-56915167D01*
X116363786Y-56877071D01*
X116516167Y-56838976D01*
X116706643Y-56838976D01*
X116859024Y-56877071D01*
X116935214Y-56915167D01*
X116973310Y-56953262D01*
X117011405Y-57029452D01*
X117011405Y-57105643D01*
X116973310Y-57181833D01*
X116935214Y-57219929D01*
X116859024Y-57258024D01*
X116706643Y-57296119D01*
X116516167Y-57296119D01*
X116363786Y-57258024D01*
X116287595Y-57219929D01*
X116249500Y-57181833D01*
X116211405Y-57105643D01*
X122288429Y-56775405D02*
X122783667Y-56775405D01*
X122517000Y-57080167D01*
X122631286Y-57080167D01*
X122707476Y-57118262D01*
X122745572Y-57156357D01*
X122783667Y-57232548D01*
X122783667Y-57423024D01*
X122745572Y-57499214D01*
X122707476Y-57537310D01*
X122631286Y-57575405D01*
X122402714Y-57575405D01*
X122326524Y-57537310D01*
X122288429Y-57499214D01*
X123050334Y-56775405D02*
X123545572Y-56775405D01*
X123278905Y-57080167D01*
X123393191Y-57080167D01*
X123469381Y-57118262D01*
X123507477Y-57156357D01*
X123545572Y-57232548D01*
X123545572Y-57423024D01*
X123507477Y-57499214D01*
X123469381Y-57537310D01*
X123393191Y-57575405D01*
X123164619Y-57575405D01*
X123088429Y-57537310D01*
X123050334Y-57499214D01*
X124040810Y-56775405D02*
X124117001Y-56775405D01*
X124193191Y-56813500D01*
X124231286Y-56851595D01*
X124269382Y-56927786D01*
X124307477Y-57080167D01*
X124307477Y-57270643D01*
X124269382Y-57423024D01*
X124231286Y-57499214D01*
X124193191Y-57537310D01*
X124117001Y-57575405D01*
X124040810Y-57575405D01*
X123964620Y-57537310D01*
X123926524Y-57499214D01*
X123888429Y-57423024D01*
X123850334Y-57270643D01*
X123850334Y-57080167D01*
X123888429Y-56927786D01*
X123926524Y-56851595D01*
X123964620Y-56813500D01*
X124040810Y-56775405D01*
X95942214Y-66782905D02*
X95675547Y-66401952D01*
X95485071Y-66782905D02*
X95485071Y-65982905D01*
X95789833Y-65982905D01*
X95866024Y-66021000D01*
X95904119Y-66059095D01*
X95942214Y-66135286D01*
X95942214Y-66249571D01*
X95904119Y-66325762D01*
X95866024Y-66363857D01*
X95789833Y-66401952D01*
X95485071Y-66401952D01*
X96704119Y-66782905D02*
X96246976Y-66782905D01*
X96475547Y-66782905D02*
X96475547Y-65982905D01*
X96399357Y-66097190D01*
X96323166Y-66173381D01*
X96246976Y-66211476D01*
X97466024Y-66782905D02*
X97008881Y-66782905D01*
X97237452Y-66782905D02*
X97237452Y-65982905D01*
X97161262Y-66097190D01*
X97085071Y-66173381D01*
X97008881Y-66211476D01*
X97462286Y-63269881D02*
X98081334Y-63269881D01*
X97748000Y-63650833D01*
X97890858Y-63650833D01*
X97986096Y-63698452D01*
X98033715Y-63746071D01*
X98081334Y-63841310D01*
X98081334Y-64079405D01*
X98033715Y-64174643D01*
X97986096Y-64222262D01*
X97890858Y-64269881D01*
X97605143Y-64269881D01*
X97509905Y-64222262D01*
X97462286Y-64174643D01*
X98414667Y-63269881D02*
X99033715Y-63269881D01*
X98700381Y-63650833D01*
X98843239Y-63650833D01*
X98938477Y-63698452D01*
X98986096Y-63746071D01*
X99033715Y-63841310D01*
X99033715Y-64079405D01*
X98986096Y-64174643D01*
X98938477Y-64222262D01*
X98843239Y-64269881D01*
X98557524Y-64269881D01*
X98462286Y-64222262D01*
X98414667Y-64174643D01*
X99652762Y-63269881D02*
X99748001Y-63269881D01*
X99843239Y-63317500D01*
X99890858Y-63365119D01*
X99938477Y-63460357D01*
X99986096Y-63650833D01*
X99986096Y-63888929D01*
X99938477Y-64079405D01*
X99890858Y-64174643D01*
X99843239Y-64222262D01*
X99748001Y-64269881D01*
X99652762Y-64269881D01*
X99557524Y-64222262D01*
X99509905Y-64174643D01*
X99462286Y-64079405D01*
X99414667Y-63888929D01*
X99414667Y-63650833D01*
X99462286Y-63460357D01*
X99509905Y-63365119D01*
X99557524Y-63317500D01*
X99652762Y-63269881D01*
X95815214Y-61575905D02*
X95548547Y-61194952D01*
X95358071Y-61575905D02*
X95358071Y-60775905D01*
X95662833Y-60775905D01*
X95739024Y-60814000D01*
X95777119Y-60852095D01*
X95815214Y-60928286D01*
X95815214Y-61042571D01*
X95777119Y-61118762D01*
X95739024Y-61156857D01*
X95662833Y-61194952D01*
X95358071Y-61194952D01*
X96577119Y-61575905D02*
X96119976Y-61575905D01*
X96348547Y-61575905D02*
X96348547Y-60775905D01*
X96272357Y-60890190D01*
X96196166Y-60966381D01*
X96119976Y-61004476D01*
X96881881Y-60852095D02*
X96919976Y-60814000D01*
X96996167Y-60775905D01*
X97186643Y-60775905D01*
X97262833Y-60814000D01*
X97300929Y-60852095D01*
X97339024Y-60928286D01*
X97339024Y-61004476D01*
X97300929Y-61118762D01*
X96843786Y-61575905D01*
X97339024Y-61575905D01*
X97451286Y-64603381D02*
X98070334Y-64603381D01*
X97737000Y-64984333D01*
X97879858Y-64984333D01*
X97975096Y-65031952D01*
X98022715Y-65079571D01*
X98070334Y-65174810D01*
X98070334Y-65412905D01*
X98022715Y-65508143D01*
X97975096Y-65555762D01*
X97879858Y-65603381D01*
X97594143Y-65603381D01*
X97498905Y-65555762D01*
X97451286Y-65508143D01*
X98403667Y-64603381D02*
X99022715Y-64603381D01*
X98689381Y-64984333D01*
X98832239Y-64984333D01*
X98927477Y-65031952D01*
X98975096Y-65079571D01*
X99022715Y-65174810D01*
X99022715Y-65412905D01*
X98975096Y-65508143D01*
X98927477Y-65555762D01*
X98832239Y-65603381D01*
X98546524Y-65603381D01*
X98451286Y-65555762D01*
X98403667Y-65508143D01*
X99641762Y-64603381D02*
X99737001Y-64603381D01*
X99832239Y-64651000D01*
X99879858Y-64698619D01*
X99927477Y-64793857D01*
X99975096Y-64984333D01*
X99975096Y-65222429D01*
X99927477Y-65412905D01*
X99879858Y-65508143D01*
X99832239Y-65555762D01*
X99737001Y-65603381D01*
X99641762Y-65603381D01*
X99546524Y-65555762D01*
X99498905Y-65508143D01*
X99451286Y-65412905D01*
X99403667Y-65222429D01*
X99403667Y-64984333D01*
X99451286Y-64793857D01*
X99498905Y-64698619D01*
X99546524Y-64651000D01*
X99641762Y-64603381D01*
X95815214Y-60496405D02*
X95548547Y-60115452D01*
X95358071Y-60496405D02*
X95358071Y-59696405D01*
X95662833Y-59696405D01*
X95739024Y-59734500D01*
X95777119Y-59772595D01*
X95815214Y-59848786D01*
X95815214Y-59963071D01*
X95777119Y-60039262D01*
X95739024Y-60077357D01*
X95662833Y-60115452D01*
X95358071Y-60115452D01*
X96577119Y-60496405D02*
X96119976Y-60496405D01*
X96348547Y-60496405D02*
X96348547Y-59696405D01*
X96272357Y-59810690D01*
X96196166Y-59886881D01*
X96119976Y-59924976D01*
X96843786Y-59696405D02*
X97339024Y-59696405D01*
X97072357Y-60001167D01*
X97186643Y-60001167D01*
X97262833Y-60039262D01*
X97300929Y-60077357D01*
X97339024Y-60153548D01*
X97339024Y-60344024D01*
X97300929Y-60420214D01*
X97262833Y-60458310D01*
X97186643Y-60496405D01*
X96958071Y-60496405D01*
X96881881Y-60458310D01*
X96843786Y-60420214D01*
X97451286Y-61872881D02*
X98070334Y-61872881D01*
X97737000Y-62253833D01*
X97879858Y-62253833D01*
X97975096Y-62301452D01*
X98022715Y-62349071D01*
X98070334Y-62444310D01*
X98070334Y-62682405D01*
X98022715Y-62777643D01*
X97975096Y-62825262D01*
X97879858Y-62872881D01*
X97594143Y-62872881D01*
X97498905Y-62825262D01*
X97451286Y-62777643D01*
X98403667Y-61872881D02*
X99022715Y-61872881D01*
X98689381Y-62253833D01*
X98832239Y-62253833D01*
X98927477Y-62301452D01*
X98975096Y-62349071D01*
X99022715Y-62444310D01*
X99022715Y-62682405D01*
X98975096Y-62777643D01*
X98927477Y-62825262D01*
X98832239Y-62872881D01*
X98546524Y-62872881D01*
X98451286Y-62825262D01*
X98403667Y-62777643D01*
X99641762Y-61872881D02*
X99737001Y-61872881D01*
X99832239Y-61920500D01*
X99879858Y-61968119D01*
X99927477Y-62063357D01*
X99975096Y-62253833D01*
X99975096Y-62491929D01*
X99927477Y-62682405D01*
X99879858Y-62777643D01*
X99832239Y-62825262D01*
X99737001Y-62872881D01*
X99641762Y-62872881D01*
X99546524Y-62825262D01*
X99498905Y-62777643D01*
X99451286Y-62682405D01*
X99403667Y-62491929D01*
X99403667Y-62253833D01*
X99451286Y-62063357D01*
X99498905Y-61968119D01*
X99546524Y-61920500D01*
X99641762Y-61872881D01*
X99809467Y-73844162D02*
X99952324Y-73891781D01*
X100190420Y-73891781D01*
X100285658Y-73844162D01*
X100333277Y-73796543D01*
X100380896Y-73701305D01*
X100380896Y-73606067D01*
X100333277Y-73510829D01*
X100285658Y-73463210D01*
X100190420Y-73415590D01*
X99999943Y-73367971D01*
X99904705Y-73320352D01*
X99857086Y-73272733D01*
X99809467Y-73177495D01*
X99809467Y-73082257D01*
X99857086Y-72987019D01*
X99904705Y-72939400D01*
X99999943Y-72891781D01*
X100238039Y-72891781D01*
X100380896Y-72939400D01*
X100714229Y-72891781D02*
X100952324Y-73891781D01*
X101142801Y-73177495D01*
X101333277Y-73891781D01*
X101571372Y-72891781D01*
X101904705Y-72987019D02*
X101952324Y-72939400D01*
X102047562Y-72891781D01*
X102285658Y-72891781D01*
X102380896Y-72939400D01*
X102428515Y-72987019D01*
X102476134Y-73082257D01*
X102476134Y-73177495D01*
X102428515Y-73320352D01*
X101857086Y-73891781D01*
X102476134Y-73891781D01*
D10*
D13*
X103429143Y-64649405D02*
X103924381Y-64649405D01*
X103657714Y-64954167D01*
X103772000Y-64954167D01*
X103848190Y-64992262D01*
X103886286Y-65030357D01*
X103924381Y-65106548D01*
X103924381Y-65297024D01*
X103886286Y-65373214D01*
X103848190Y-65411310D01*
X103772000Y-65449405D01*
X103543428Y-65449405D01*
X103467238Y-65411310D01*
X103429143Y-65373214D01*
X104229143Y-64725595D02*
X104267238Y-64687500D01*
X104343429Y-64649405D01*
X104533905Y-64649405D01*
X104610095Y-64687500D01*
X104648191Y-64725595D01*
X104686286Y-64801786D01*
X104686286Y-64877976D01*
X104648191Y-64992262D01*
X104191048Y-65449405D01*
X104686286Y-65449405D01*
X105029143Y-65373214D02*
X105067238Y-65411310D01*
X105029143Y-65449405D01*
X104991048Y-65411310D01*
X105029143Y-65373214D01*
X105029143Y-65449405D01*
X105333905Y-64649405D02*
X105867238Y-64649405D01*
X105524381Y-65449405D01*
X106514857Y-64649405D02*
X106362476Y-64649405D01*
X106286286Y-64687500D01*
X106248191Y-64725595D01*
X106172000Y-64839881D01*
X106133905Y-64992262D01*
X106133905Y-65297024D01*
X106172000Y-65373214D01*
X106210095Y-65411310D01*
X106286286Y-65449405D01*
X106438667Y-65449405D01*
X106514857Y-65411310D01*
X106552953Y-65373214D01*
X106591048Y-65297024D01*
X106591048Y-65106548D01*
X106552953Y-65030357D01*
X106514857Y-64992262D01*
X106438667Y-64954167D01*
X106286286Y-64954167D01*
X106210095Y-64992262D01*
X106172000Y-65030357D01*
X106133905Y-65106548D01*
X107048191Y-64992262D02*
X106972000Y-64954167D01*
X106933905Y-64916071D01*
X106895810Y-64839881D01*
X106895810Y-64801786D01*
X106933905Y-64725595D01*
X106972000Y-64687500D01*
X107048191Y-64649405D01*
X107200572Y-64649405D01*
X107276762Y-64687500D01*
X107314858Y-64725595D01*
X107352953Y-64801786D01*
X107352953Y-64839881D01*
X107314858Y-64916071D01*
X107276762Y-64954167D01*
X107200572Y-64992262D01*
X107048191Y-64992262D01*
X106972000Y-65030357D01*
X106933905Y-65068452D01*
X106895810Y-65144643D01*
X106895810Y-65297024D01*
X106933905Y-65373214D01*
X106972000Y-65411310D01*
X107048191Y-65449405D01*
X107200572Y-65449405D01*
X107276762Y-65411310D01*
X107314858Y-65373214D01*
X107352953Y-65297024D01*
X107352953Y-65144643D01*
X107314858Y-65068452D01*
X107276762Y-65030357D01*
X107200572Y-64992262D01*
X107695810Y-65449405D02*
X107695810Y-64649405D01*
X107772001Y-65144643D02*
X108000572Y-65449405D01*
X108000572Y-64916071D02*
X107695810Y-65220833D01*
X108343429Y-65449405D02*
X108343429Y-64649405D01*
X108343429Y-65030357D02*
X108800572Y-65030357D01*
X108800572Y-65449405D02*
X108800572Y-64649405D01*
X109105334Y-64916071D02*
X109524381Y-64916071D01*
X109105334Y-65449405D01*
X109524381Y-65449405D01*
X142708405Y-58745381D02*
X142708405Y-57745381D01*
X142946500Y-57745381D01*
X143089358Y-57793000D01*
X143184596Y-57888238D01*
X143232215Y-57983476D01*
X143279834Y-58173952D01*
X143279834Y-58316810D01*
X143232215Y-58507286D01*
X143184596Y-58602524D01*
X143089358Y-58697762D01*
X142946500Y-58745381D01*
X142708405Y-58745381D01*
X144232215Y-58745381D02*
X143660786Y-58745381D01*
X143946500Y-58745381D02*
X143946500Y-57745381D01*
X143851262Y-57888238D01*
X143756024Y-57983476D01*
X143660786Y-58031095D01*
X142581405Y-78557381D02*
X142581405Y-77557381D01*
X142819500Y-77557381D01*
X142962358Y-77605000D01*
X143057596Y-77700238D01*
X143105215Y-77795476D01*
X143152834Y-77985952D01*
X143152834Y-78128810D01*
X143105215Y-78319286D01*
X143057596Y-78414524D01*
X142962358Y-78509762D01*
X142819500Y-78557381D01*
X142581405Y-78557381D01*
X143533786Y-77652619D02*
X143581405Y-77605000D01*
X143676643Y-77557381D01*
X143914739Y-77557381D01*
X144009977Y-77605000D01*
X144057596Y-77652619D01*
X144105215Y-77747857D01*
X144105215Y-77843095D01*
X144057596Y-77985952D01*
X143486167Y-78557381D01*
X144105215Y-78557381D01*
X118562381Y-71278595D02*
X117562381Y-71278595D01*
X117562381Y-70897642D01*
X117610000Y-70802404D01*
X117657619Y-70754785D01*
X117752857Y-70707166D01*
X117895714Y-70707166D01*
X117990952Y-70754785D01*
X118038571Y-70802404D01*
X118086190Y-70897642D01*
X118086190Y-71278595D01*
X118562381Y-70278595D02*
X117562381Y-70278595D01*
X117562381Y-70040500D01*
X117610000Y-69897642D01*
X117705238Y-69802404D01*
X117800476Y-69754785D01*
X117990952Y-69707166D01*
X118133810Y-69707166D01*
X118324286Y-69754785D01*
X118419524Y-69802404D01*
X118514762Y-69897642D01*
X118562381Y-70040500D01*
X118562381Y-70278595D01*
X117895714Y-68850023D02*
X118562381Y-68850023D01*
X117514762Y-69088119D02*
X118229048Y-69326214D01*
X118229048Y-68707166D01*
X133026214Y-68052905D02*
X132759547Y-67671952D01*
X132569071Y-68052905D02*
X132569071Y-67252905D01*
X132873833Y-67252905D01*
X132950024Y-67291000D01*
X132988119Y-67329095D01*
X133026214Y-67405286D01*
X133026214Y-67519571D01*
X132988119Y-67595762D01*
X132950024Y-67633857D01*
X132873833Y-67671952D01*
X132569071Y-67671952D01*
X133788119Y-68052905D02*
X133330976Y-68052905D01*
X133559547Y-68052905D02*
X133559547Y-67252905D01*
X133483357Y-67367190D01*
X133407166Y-67443381D01*
X133330976Y-67481476D01*
X134473833Y-67519571D02*
X134473833Y-68052905D01*
X134283357Y-67214810D02*
X134092881Y-67786238D01*
X134588119Y-67786238D01*
X132873834Y-67063881D02*
X132302405Y-67063881D01*
X132588119Y-67063881D02*
X132588119Y-66063881D01*
X132492881Y-66206738D01*
X132397643Y-66301976D01*
X132302405Y-66349595D01*
X133492881Y-66063881D02*
X133588120Y-66063881D01*
X133683358Y-66111500D01*
X133730977Y-66159119D01*
X133778596Y-66254357D01*
X133826215Y-66444833D01*
X133826215Y-66682929D01*
X133778596Y-66873405D01*
X133730977Y-66968643D01*
X133683358Y-67016262D01*
X133588120Y-67063881D01*
X133492881Y-67063881D01*
X133397643Y-67016262D01*
X133350024Y-66968643D01*
X133302405Y-66873405D01*
X133254786Y-66682929D01*
X133254786Y-66444833D01*
X133302405Y-66254357D01*
X133350024Y-66159119D01*
X133397643Y-66111500D01*
X133492881Y-66063881D01*
X134445262Y-66063881D02*
X134540501Y-66063881D01*
X134635739Y-66111500D01*
X134683358Y-66159119D01*
X134730977Y-66254357D01*
X134778596Y-66444833D01*
X134778596Y-66682929D01*
X134730977Y-66873405D01*
X134683358Y-66968643D01*
X134635739Y-67016262D01*
X134540501Y-67063881D01*
X134445262Y-67063881D01*
X134350024Y-67016262D01*
X134302405Y-66968643D01*
X134254786Y-66873405D01*
X134207167Y-66682929D01*
X134207167Y-66444833D01*
X134254786Y-66254357D01*
X134302405Y-66159119D01*
X134350024Y-66111500D01*
X134445262Y-66063881D01*
X133026214Y-72370905D02*
X132759547Y-71989952D01*
X132569071Y-72370905D02*
X132569071Y-71570905D01*
X132873833Y-71570905D01*
X132950024Y-71609000D01*
X132988119Y-71647095D01*
X133026214Y-71723286D01*
X133026214Y-71837571D01*
X132988119Y-71913762D01*
X132950024Y-71951857D01*
X132873833Y-71989952D01*
X132569071Y-71989952D01*
X133788119Y-72370905D02*
X133330976Y-72370905D01*
X133559547Y-72370905D02*
X133559547Y-71570905D01*
X133483357Y-71685190D01*
X133407166Y-71761381D01*
X133330976Y-71799476D01*
X134511929Y-71570905D02*
X134130976Y-71570905D01*
X134092881Y-71951857D01*
X134130976Y-71913762D01*
X134207167Y-71875667D01*
X134397643Y-71875667D01*
X134473833Y-71913762D01*
X134511929Y-71951857D01*
X134550024Y-72028048D01*
X134550024Y-72218524D01*
X134511929Y-72294714D01*
X134473833Y-72332810D01*
X134397643Y-72370905D01*
X134207167Y-72370905D01*
X134130976Y-72332810D01*
X134092881Y-72294714D01*
X132810334Y-73667881D02*
X132238905Y-73667881D01*
X132524619Y-73667881D02*
X132524619Y-72667881D01*
X132429381Y-72810738D01*
X132334143Y-72905976D01*
X132238905Y-72953595D01*
X133429381Y-72667881D02*
X133524620Y-72667881D01*
X133619858Y-72715500D01*
X133667477Y-72763119D01*
X133715096Y-72858357D01*
X133762715Y-73048833D01*
X133762715Y-73286929D01*
X133715096Y-73477405D01*
X133667477Y-73572643D01*
X133619858Y-73620262D01*
X133524620Y-73667881D01*
X133429381Y-73667881D01*
X133334143Y-73620262D01*
X133286524Y-73572643D01*
X133238905Y-73477405D01*
X133191286Y-73286929D01*
X133191286Y-73048833D01*
X133238905Y-72858357D01*
X133286524Y-72763119D01*
X133334143Y-72715500D01*
X133429381Y-72667881D01*
X134381762Y-72667881D02*
X134477001Y-72667881D01*
X134572239Y-72715500D01*
X134619858Y-72763119D01*
X134667477Y-72858357D01*
X134715096Y-73048833D01*
X134715096Y-73286929D01*
X134667477Y-73477405D01*
X134619858Y-73572643D01*
X134572239Y-73620262D01*
X134477001Y-73667881D01*
X134381762Y-73667881D01*
X134286524Y-73620262D01*
X134238905Y-73572643D01*
X134191286Y-73477405D01*
X134143667Y-73286929D01*
X134143667Y-73048833D01*
X134191286Y-72858357D01*
X134238905Y-72763119D01*
X134286524Y-72715500D01*
X134381762Y-72667881D01*
X139382619Y-66046405D02*
X139382619Y-66694024D01*
X139420714Y-66770214D01*
X139458810Y-66808310D01*
X139535000Y-66846405D01*
X139687381Y-66846405D01*
X139763572Y-66808310D01*
X139801667Y-66770214D01*
X139839762Y-66694024D01*
X139839762Y-66046405D01*
X140106428Y-66046405D02*
X140373095Y-66846405D01*
X140639762Y-66046405D01*
X141325476Y-66846405D02*
X140868333Y-66846405D01*
X141096904Y-66846405D02*
X141096904Y-66046405D01*
X141020714Y-66160690D01*
X140944523Y-66236881D01*
X140868333Y-66274976D01*
X138201643Y-65601810D02*
X138315929Y-65639905D01*
X138506405Y-65639905D01*
X138582595Y-65601810D01*
X138620691Y-65563714D01*
X138658786Y-65487524D01*
X138658786Y-65411333D01*
X138620691Y-65335143D01*
X138582595Y-65297048D01*
X138506405Y-65258952D01*
X138354024Y-65220857D01*
X138277833Y-65182762D01*
X138239738Y-65144667D01*
X138201643Y-65068476D01*
X138201643Y-64992286D01*
X138239738Y-64916095D01*
X138277833Y-64878000D01*
X138354024Y-64839905D01*
X138544500Y-64839905D01*
X138658786Y-64878000D01*
X139001643Y-65639905D02*
X139001643Y-64839905D01*
X139801643Y-65639905D02*
X139344500Y-65639905D01*
X139573071Y-65639905D02*
X139573071Y-64839905D01*
X139496881Y-64954190D01*
X139420690Y-65030381D01*
X139344500Y-65068476D01*
X140563548Y-65639905D02*
X140106405Y-65639905D01*
X140334976Y-65639905D02*
X140334976Y-64839905D01*
X140258786Y-64954190D01*
X140182595Y-65030381D01*
X140106405Y-65068476D01*
X140830215Y-64839905D02*
X141325453Y-64839905D01*
X141058786Y-65144667D01*
X141173072Y-65144667D01*
X141249262Y-65182762D01*
X141287358Y-65220857D01*
X141325453Y-65297048D01*
X141325453Y-65487524D01*
X141287358Y-65563714D01*
X141249262Y-65601810D01*
X141173072Y-65639905D01*
X140944500Y-65639905D01*
X140868310Y-65601810D01*
X140830215Y-65563714D01*
X141592120Y-64839905D02*
X142087358Y-64839905D01*
X141820691Y-65144667D01*
X141934977Y-65144667D01*
X142011167Y-65182762D01*
X142049263Y-65220857D01*
X142087358Y-65297048D01*
X142087358Y-65487524D01*
X142049263Y-65563714D01*
X142011167Y-65601810D01*
X141934977Y-65639905D01*
X141706405Y-65639905D01*
X141630215Y-65601810D01*
X141592120Y-65563714D01*
X109391405Y-61912191D02*
X108591405Y-61912191D01*
X109162833Y-61645524D01*
X108591405Y-61378857D01*
X109391405Y-61378857D01*
X109391405Y-60997905D02*
X108591405Y-60997905D01*
X108591405Y-60807429D01*
X108629500Y-60693143D01*
X108705690Y-60616952D01*
X108781881Y-60578857D01*
X108934262Y-60540762D01*
X109048548Y-60540762D01*
X109200929Y-60578857D01*
X109277119Y-60616952D01*
X109353310Y-60693143D01*
X109391405Y-60807429D01*
X109391405Y-60997905D01*
X108972357Y-59931238D02*
X109010452Y-59816952D01*
X109048548Y-59778857D01*
X109124738Y-59740762D01*
X109239024Y-59740762D01*
X109315214Y-59778857D01*
X109353310Y-59816952D01*
X109391405Y-59893143D01*
X109391405Y-60197905D01*
X108591405Y-60197905D01*
X108591405Y-59931238D01*
X108629500Y-59855048D01*
X108667595Y-59816952D01*
X108743786Y-59778857D01*
X108819976Y-59778857D01*
X108896167Y-59816952D01*
X108934262Y-59855048D01*
X108972357Y-59931238D01*
X108972357Y-60197905D01*
X108591405Y-59512191D02*
X108591405Y-59055048D01*
X109391405Y-59283619D02*
X108591405Y-59283619D01*
X108858071Y-58445524D02*
X109391405Y-58445524D01*
X108553310Y-58636000D02*
X109124738Y-58826476D01*
X109124738Y-58331238D01*
X108667595Y-58064571D02*
X108629500Y-58026476D01*
X108591405Y-57950285D01*
X108591405Y-57759809D01*
X108629500Y-57683619D01*
X108667595Y-57645523D01*
X108743786Y-57607428D01*
X108819976Y-57607428D01*
X108934262Y-57645523D01*
X109391405Y-58102666D01*
X109391405Y-57607428D01*
X108591405Y-57378857D02*
X109391405Y-57112190D01*
X108591405Y-56845523D01*
%LPC*%
D14*
X98806000Y-70173000D03*
X98806000Y-69273000D03*
D15*
X141541500Y-71417000D03*
X141541500Y-72517000D03*
D16*
X146725000Y-67310000D03*
X151725000Y-67310000D03*
D17*
X93599000Y-65024000D03*
D18*
X93599000Y-62484000D03*
X93599000Y-59944000D03*
D17*
X93599000Y-75819000D03*
D18*
X93599000Y-73279000D03*
X93599000Y-70739000D03*
X93599000Y-68199000D03*
D19*
X117644000Y-65151000D03*
X116544000Y-65151000D03*
D20*
X117983000Y-61353000D03*
X117983000Y-62853000D03*
D21*
X118560000Y-64008000D03*
X117660000Y-64008000D03*
D22*
X143760000Y-70114500D03*
X143260000Y-70114500D03*
X143760000Y-71744500D03*
X143260000Y-71744500D03*
D23*
X142695000Y-70179500D03*
X142695000Y-70679500D03*
X142695000Y-71179500D03*
X142695000Y-71679500D03*
X144325000Y-71679500D03*
X144325000Y-71179500D03*
X144325000Y-70679500D03*
X144325000Y-70179500D03*
D15*
X145478500Y-69236500D03*
X145478500Y-70336500D03*
X132969000Y-77258000D03*
X132969000Y-76158000D03*
D19*
X145373000Y-71564500D03*
X146473000Y-71564500D03*
D15*
X111760000Y-65871000D03*
X111760000Y-66971000D03*
X114300000Y-65744000D03*
X114300000Y-66844000D03*
X116205000Y-63077000D03*
X116205000Y-64177000D03*
X154622500Y-69130000D03*
X154622500Y-68030000D03*
X106870500Y-62378500D03*
X106870500Y-63478500D03*
D24*
X106807000Y-58293000D03*
D25*
X104267000Y-58293000D03*
X101727000Y-58293000D03*
X99187000Y-58293000D03*
X96647000Y-58293000D03*
D17*
X124714000Y-68961000D03*
D18*
X124714000Y-66421000D03*
X124714000Y-63881000D03*
X124714000Y-61341000D03*
X124714000Y-58801000D03*
D14*
X135699500Y-71062000D03*
X135699500Y-70162000D03*
X135699500Y-68130000D03*
X135699500Y-69030000D03*
D21*
X107812000Y-76581000D03*
X108712000Y-76581000D03*
D14*
X156019500Y-71760500D03*
X156019500Y-70860500D03*
D21*
X144330000Y-64643000D03*
X145230000Y-64643000D03*
D14*
X156019500Y-68066500D03*
X156019500Y-68966500D03*
D21*
X117787000Y-60325000D03*
X118687000Y-60325000D03*
X117787000Y-59055000D03*
X118687000Y-59055000D03*
X117787000Y-57785000D03*
X118687000Y-57785000D03*
X96716000Y-65151000D03*
X95816000Y-65151000D03*
X96716000Y-63690500D03*
X95816000Y-63690500D03*
X96716000Y-62357000D03*
X95816000Y-62357000D03*
D26*
X105892600Y-76669900D03*
X96647000Y-76644500D03*
D27*
X113137000Y-64262000D03*
X110637000Y-64262000D03*
D17*
X120840500Y-63627000D03*
D18*
X120840500Y-61087000D03*
X120840500Y-58547000D03*
D17*
X157797500Y-65024000D03*
D18*
X157797500Y-62484000D03*
X157797500Y-59944000D03*
D17*
X130556000Y-66421000D03*
D18*
X130556000Y-63881000D03*
X130556000Y-61341000D03*
D17*
X130556000Y-77216000D03*
D18*
X130556000Y-74676000D03*
X130556000Y-72136000D03*
X130556000Y-69596000D03*
D28*
X142116500Y-59829000D03*
X144776500Y-59829000D03*
X144776500Y-61329000D03*
X142116500Y-61329000D03*
X142116500Y-75069000D03*
X144776500Y-75069000D03*
X144776500Y-76569000D03*
X142116500Y-76569000D03*
D17*
X121475500Y-66548000D03*
D18*
X121475500Y-69088000D03*
X121475500Y-71628000D03*
X121475500Y-74168000D03*
X121475500Y-76708000D03*
D17*
X158432500Y-67945000D03*
D18*
X158432500Y-70485000D03*
X158432500Y-73025000D03*
X158432500Y-75565000D03*
X158432500Y-78105000D03*
D21*
X133090500Y-69024500D03*
X133990500Y-69024500D03*
X133021500Y-70612000D03*
X133921500Y-70612000D03*
D29*
X127762000Y-62738000D03*
X127762000Y-74803000D03*
D30*
X142700500Y-65791000D03*
X143200500Y-65791000D03*
X143700500Y-65791000D03*
X144200500Y-65791000D03*
X144200500Y-67691000D03*
X143700500Y-67691000D03*
X143200500Y-67691000D03*
X142700500Y-67691000D03*
D31*
X144400500Y-66741000D03*
X142500500Y-66741000D03*
D32*
X115710000Y-57295000D03*
X115710000Y-58045000D03*
X114935000Y-58420000D03*
X115710000Y-58795000D03*
X114935000Y-59170000D03*
X115710000Y-59545000D03*
X114935000Y-59920000D03*
X115710000Y-60295000D03*
X115710000Y-61045000D03*
X115710000Y-62045000D03*
X114935000Y-61460000D03*
X114460000Y-62045000D03*
X113985000Y-61460000D03*
X113510000Y-62045000D03*
X113035000Y-61460000D03*
X112560000Y-62045000D03*
X112085000Y-61460000D03*
X111610000Y-62045000D03*
X111135000Y-61460000D03*
X110360000Y-62045000D03*
X110360000Y-61045000D03*
X110360000Y-60295000D03*
X110360000Y-59545000D03*
X111135000Y-59920000D03*
X111135000Y-59170000D03*
X111135000Y-58420000D03*
X110360000Y-58795000D03*
X110360000Y-58045000D03*
X110360000Y-57295000D03*
M02*
