G04 #@! TF.FileFunction,Copper,L1,Top,Signal*
%FSLAX46Y46*%
G04 Gerber Fmt 4.6, Leading zero omitted, Abs format (unit mm)*
G04 Created by KiCad (PCBNEW 4.0.2+dfsg1-stable) date Fri 06 Oct 2017 12:43:40 PM EEST*
%MOMM*%
G01*
G04 APERTURE LIST*
%ADD10C,0.100000*%
%ADD11R,0.600000X0.400000*%
%ADD12R,0.500000X0.600000*%
%ADD13C,1.524000*%
%ADD14R,2.032000X1.727200*%
%ADD15O,2.032000X1.727200*%
%ADD16R,0.600000X0.500000*%
%ADD17R,0.900000X0.500000*%
%ADD18R,0.400000X0.600000*%
%ADD19R,0.280000X0.410000*%
%ADD20R,0.410000X0.280000*%
%ADD21R,1.727200X2.032000*%
%ADD22O,1.727200X2.032000*%
%ADD23R,2.180000X1.600000*%
%ADD24R,1.100000X1.900000*%
%ADD25R,1.000000X0.700000*%
%ADD26O,0.500000X11.000000*%
%ADD27R,0.300000X0.800000*%
%ADD28R,0.800000X0.300000*%
%ADD29R,0.550000X0.400000*%
%ADD30C,0.500000*%
%ADD31C,0.600000*%
%ADD32C,0.200000*%
%ADD33C,0.400000*%
%ADD34C,0.254000*%
G04 APERTURE END LIST*
D10*
D11*
X98806000Y-70173000D03*
X98806000Y-69273000D03*
D12*
X141541500Y-71417000D03*
X141541500Y-72517000D03*
D13*
X146725000Y-67310000D03*
X151725000Y-67310000D03*
D14*
X93599000Y-65024000D03*
D15*
X93599000Y-62484000D03*
X93599000Y-59944000D03*
D14*
X93599000Y-75819000D03*
D15*
X93599000Y-73279000D03*
X93599000Y-70739000D03*
X93599000Y-68199000D03*
D16*
X117644000Y-65151000D03*
X116544000Y-65151000D03*
D17*
X117983000Y-61353000D03*
X117983000Y-62853000D03*
D18*
X118560000Y-64008000D03*
X117660000Y-64008000D03*
D19*
X143760000Y-70114500D03*
X143260000Y-70114500D03*
X143760000Y-71744500D03*
X143260000Y-71744500D03*
D20*
X142695000Y-70179500D03*
X142695000Y-70679500D03*
X142695000Y-71179500D03*
X142695000Y-71679500D03*
X144325000Y-71679500D03*
X144325000Y-71179500D03*
X144325000Y-70679500D03*
X144325000Y-70179500D03*
D12*
X145478500Y-69236500D03*
X145478500Y-70336500D03*
X132969000Y-77258000D03*
X132969000Y-76158000D03*
D16*
X145373000Y-71564500D03*
X146473000Y-71564500D03*
D12*
X111760000Y-65871000D03*
X111760000Y-66971000D03*
X114300000Y-65744000D03*
X114300000Y-66844000D03*
X116205000Y-63077000D03*
X116205000Y-64177000D03*
X154622500Y-69130000D03*
X154622500Y-68030000D03*
X106870500Y-62378500D03*
X106870500Y-63478500D03*
D21*
X106807000Y-58293000D03*
D22*
X104267000Y-58293000D03*
X101727000Y-58293000D03*
X99187000Y-58293000D03*
X96647000Y-58293000D03*
D14*
X124714000Y-68961000D03*
D15*
X124714000Y-66421000D03*
X124714000Y-63881000D03*
X124714000Y-61341000D03*
X124714000Y-58801000D03*
D11*
X135699500Y-71062000D03*
X135699500Y-70162000D03*
X135699500Y-68130000D03*
X135699500Y-69030000D03*
D18*
X107812000Y-76581000D03*
X108712000Y-76581000D03*
D11*
X156019500Y-71760500D03*
X156019500Y-70860500D03*
D18*
X144330000Y-64643000D03*
X145230000Y-64643000D03*
D11*
X156019500Y-68066500D03*
X156019500Y-68966500D03*
D18*
X117787000Y-60325000D03*
X118687000Y-60325000D03*
X117787000Y-59055000D03*
X118687000Y-59055000D03*
X117787000Y-57785000D03*
X118687000Y-57785000D03*
X96716000Y-65151000D03*
X95816000Y-65151000D03*
X96716000Y-63690500D03*
X95816000Y-63690500D03*
X96716000Y-62357000D03*
X95816000Y-62357000D03*
D23*
X105892600Y-76669900D03*
X96647000Y-76644500D03*
D24*
X113137000Y-64262000D03*
X110637000Y-64262000D03*
D14*
X120840500Y-63627000D03*
D15*
X120840500Y-61087000D03*
X120840500Y-58547000D03*
D14*
X157797500Y-65024000D03*
D15*
X157797500Y-62484000D03*
X157797500Y-59944000D03*
D14*
X130556000Y-66421000D03*
D15*
X130556000Y-63881000D03*
X130556000Y-61341000D03*
D14*
X130556000Y-77216000D03*
D15*
X130556000Y-74676000D03*
X130556000Y-72136000D03*
X130556000Y-69596000D03*
D25*
X142116500Y-59829000D03*
X144776500Y-59829000D03*
X144776500Y-61329000D03*
X142116500Y-61329000D03*
X142116500Y-75069000D03*
X144776500Y-75069000D03*
X144776500Y-76569000D03*
X142116500Y-76569000D03*
D14*
X121475500Y-66548000D03*
D15*
X121475500Y-69088000D03*
X121475500Y-71628000D03*
X121475500Y-74168000D03*
X121475500Y-76708000D03*
D14*
X158432500Y-67945000D03*
D15*
X158432500Y-70485000D03*
X158432500Y-73025000D03*
X158432500Y-75565000D03*
X158432500Y-78105000D03*
D18*
X133090500Y-69024500D03*
X133990500Y-69024500D03*
X133021500Y-70612000D03*
X133921500Y-70612000D03*
D26*
X127762000Y-62738000D03*
X127762000Y-74803000D03*
D27*
X142700500Y-65791000D03*
X143200500Y-65791000D03*
X143700500Y-65791000D03*
X144200500Y-65791000D03*
X144200500Y-67691000D03*
X143700500Y-67691000D03*
X143200500Y-67691000D03*
X142700500Y-67691000D03*
D28*
X144400500Y-66741000D03*
X142500500Y-66741000D03*
D29*
X115710000Y-57295000D03*
X115710000Y-58045000D03*
X114935000Y-58420000D03*
X115710000Y-58795000D03*
X114935000Y-59170000D03*
X115710000Y-59545000D03*
X114935000Y-59920000D03*
X115710000Y-60295000D03*
X115710000Y-61045000D03*
X115710000Y-62045000D03*
X114935000Y-61460000D03*
X114460000Y-62045000D03*
X113985000Y-61460000D03*
X113510000Y-62045000D03*
X113035000Y-61460000D03*
X112560000Y-62045000D03*
X112085000Y-61460000D03*
X111610000Y-62045000D03*
X111135000Y-61460000D03*
X110360000Y-62045000D03*
X110360000Y-61045000D03*
X110360000Y-60295000D03*
X110360000Y-59545000D03*
X111135000Y-59920000D03*
X111135000Y-59170000D03*
X111135000Y-58420000D03*
X110360000Y-58795000D03*
X110360000Y-58045000D03*
X110360000Y-57295000D03*
D30*
X114681000Y-63627000D03*
X115506500Y-64325500D03*
X113496000Y-66844000D03*
X112627500Y-66971000D03*
D31*
X109664500Y-76581000D03*
D30*
X112966500Y-58991500D03*
X107696000Y-62357000D03*
X142240000Y-68834000D03*
D31*
X139001500Y-69342000D03*
X139001500Y-70104000D03*
X141859000Y-69977000D03*
X96774000Y-73977500D03*
X117983000Y-74041000D03*
D30*
X125095000Y-73977500D03*
X113474500Y-60452000D03*
X112585500Y-62738000D03*
D31*
X95250000Y-70167500D03*
D30*
X126428500Y-76390500D03*
X126428500Y-74866500D03*
X126428500Y-75628500D03*
X116649500Y-62039500D03*
X109283500Y-61912500D03*
X112903000Y-60833000D03*
D31*
X136842500Y-72961500D03*
X136842500Y-68770500D03*
X137604500Y-68707000D03*
X137795000Y-73024996D03*
X138684000Y-72898000D03*
X138429998Y-68770500D03*
D30*
X117094000Y-58610500D03*
X114173000Y-58420000D03*
D31*
X105283000Y-61277500D03*
D30*
X111125000Y-60706000D03*
D31*
X103949500Y-60960000D03*
D30*
X112331500Y-60388500D03*
X115252500Y-63055500D03*
X114808000Y-60769500D03*
X114109500Y-60896500D03*
X114109500Y-62674500D03*
X114173000Y-59182000D03*
X117030500Y-60325000D03*
D31*
X149415500Y-74422000D03*
X149352000Y-71691500D03*
X148209000Y-74358500D03*
X148209000Y-71691500D03*
D30*
X142684500Y-69532500D03*
D31*
X143446500Y-64643000D03*
X146494500Y-70358000D03*
X142621000Y-72517000D03*
D30*
X108394500Y-62547500D03*
X111823500Y-60833000D03*
D32*
X115710000Y-61045000D02*
X116417000Y-61045000D01*
X116417000Y-61045000D02*
X117221000Y-61849000D01*
X117221000Y-61849000D02*
X117221000Y-63754000D01*
X117221000Y-63754000D02*
X117475000Y-64008000D01*
X117475000Y-64008000D02*
X117660000Y-64008000D01*
X117660000Y-64008000D02*
X117660000Y-65135000D01*
X117660000Y-65135000D02*
X117644000Y-65151000D01*
D33*
X116205000Y-64177000D02*
X115655000Y-64177000D01*
X115655000Y-64177000D02*
X115506500Y-64325500D01*
X114300000Y-66844000D02*
X113496000Y-66844000D01*
X106870500Y-63478500D02*
X107082500Y-63478500D01*
X107082500Y-63478500D02*
X107696000Y-62865000D01*
X109664500Y-76581000D02*
X108712000Y-76581000D01*
X112966500Y-58991500D02*
X112966500Y-58547000D01*
X112966500Y-58547000D02*
X114109500Y-57404000D01*
X114109500Y-57404000D02*
X115601000Y-57404000D01*
X115601000Y-57404000D02*
X115710000Y-57295000D01*
X107696000Y-62865000D02*
X107696000Y-62357000D01*
X110360000Y-57295000D02*
X109265500Y-57295000D01*
X109265500Y-57295000D02*
X108267500Y-58293000D01*
X108267500Y-58293000D02*
X106807000Y-58293000D01*
D32*
X107696000Y-62357000D02*
X108077000Y-61976000D01*
X108077000Y-61976000D02*
X108585000Y-61976000D01*
X108585000Y-61976000D02*
X109156500Y-62547500D01*
X109156500Y-62547500D02*
X109474000Y-62547500D01*
X109474000Y-62547500D02*
X109976500Y-62045000D01*
X109976500Y-62045000D02*
X110360000Y-62045000D01*
X114681000Y-63309500D02*
X114681000Y-63627000D01*
X114681000Y-63309500D02*
X114681000Y-62484000D01*
X114681000Y-62484000D02*
X114460000Y-62263000D01*
X114460000Y-62263000D02*
X114460000Y-62045000D01*
X110360000Y-62045000D02*
X110178000Y-62045000D01*
D33*
X121285000Y-76517500D02*
X121475500Y-76708000D01*
X111760000Y-66971000D02*
X112627500Y-66971000D01*
X112627500Y-66971000D02*
X112649000Y-66992500D01*
D32*
X116544000Y-65151000D02*
X116544000Y-64516000D01*
X116544000Y-64516000D02*
X116205000Y-64177000D01*
X117243000Y-61353000D02*
X117983000Y-61353000D01*
X115710000Y-60295000D02*
X116185000Y-60295000D01*
X116185000Y-60295000D02*
X117243000Y-61353000D01*
X117983000Y-62853000D02*
X118554500Y-63424500D01*
X118554500Y-63424500D02*
X118554500Y-64002500D01*
X118554500Y-64002500D02*
X118560000Y-64008000D01*
X143256000Y-68834000D02*
X142240000Y-68834000D01*
X133990500Y-69024500D02*
X135694000Y-69024500D01*
X135694000Y-69024500D02*
X135699500Y-69030000D01*
X136017000Y-69342000D02*
X138577236Y-69342000D01*
X135699500Y-69024500D02*
X136017000Y-69342000D01*
X138577236Y-69342000D02*
X139001500Y-69342000D01*
X143256000Y-69088000D02*
X143256000Y-68834000D01*
X143256000Y-68834000D02*
X143256000Y-67740000D01*
X143256000Y-69596000D02*
X143256000Y-69088000D01*
X143260000Y-70231000D02*
X143260000Y-69092000D01*
X143260000Y-69092000D02*
X143256000Y-69088000D01*
X158496000Y-73152000D02*
X144526000Y-73152000D01*
X144526000Y-73152000D02*
X143760000Y-72386000D01*
X143760000Y-72386000D02*
X143760000Y-71744500D01*
X158300000Y-72956000D02*
X158496000Y-73152000D01*
X158496000Y-75692000D02*
X152082500Y-75692000D01*
X152082500Y-75692000D02*
X149987000Y-73596500D01*
X149987000Y-73596500D02*
X144272000Y-73596500D01*
X144272000Y-73596500D02*
X143260000Y-72584500D01*
X143260000Y-72584500D02*
X143260000Y-71744500D01*
X138943500Y-70162000D02*
X139001500Y-70104000D01*
X135699500Y-70162000D02*
X138943500Y-70162000D01*
X141859000Y-69977000D02*
X141859000Y-69913500D01*
X141859000Y-69913500D02*
X141668500Y-69723000D01*
X141668500Y-69723000D02*
X141668500Y-68262500D01*
X141668500Y-68262500D02*
X142176500Y-67754500D01*
X142176500Y-67754500D02*
X142494000Y-67754500D01*
X142494000Y-67754500D02*
X142508500Y-67740000D01*
X142508500Y-67740000D02*
X142756000Y-67740000D01*
X133921500Y-70612000D02*
X134321500Y-70612000D01*
X134321500Y-70612000D02*
X134771500Y-70162000D01*
X134771500Y-70162000D02*
X135699500Y-70162000D01*
X142641000Y-70670000D02*
X142171000Y-70670000D01*
X142171000Y-70670000D02*
X141859000Y-70358000D01*
X141859000Y-70358000D02*
X141859000Y-69977000D01*
D33*
X96774000Y-73977500D02*
X97648526Y-73977500D01*
X97648526Y-73977500D02*
X100156119Y-71469907D01*
X100156119Y-71469907D02*
X115411907Y-71469907D01*
X115411907Y-71469907D02*
X117983000Y-74041000D01*
X117983000Y-76581000D02*
X119634000Y-78232000D01*
X125095000Y-75823200D02*
X125095000Y-73977500D01*
X117983000Y-74041000D02*
X117983000Y-76581000D01*
X119634000Y-78232000D02*
X122686200Y-78232000D01*
X122686200Y-78232000D02*
X125095000Y-75823200D01*
D32*
X154622500Y-68030000D02*
X154622500Y-67980000D01*
X154622500Y-67980000D02*
X153952500Y-67310000D01*
X153952500Y-67310000D02*
X152802630Y-67310000D01*
X152802630Y-67310000D02*
X151725000Y-67310000D01*
X113474500Y-60452000D02*
X113474500Y-61020500D01*
X113474500Y-61020500D02*
X113035000Y-61460000D01*
X112395000Y-62738000D02*
X112585500Y-62738000D01*
X111760000Y-65871000D02*
X110956000Y-65871000D01*
X110956000Y-65871000D02*
X110637000Y-65552000D01*
X110637000Y-65552000D02*
X110637000Y-64135000D01*
X110637000Y-64135000D02*
X110998000Y-64135000D01*
X110998000Y-64135000D02*
X112395000Y-62738000D01*
X114300000Y-65617000D02*
X113157000Y-64474000D01*
X113157000Y-64474000D02*
X113157000Y-64155000D01*
X113157000Y-64155000D02*
X113137000Y-64135000D01*
X113137000Y-64135000D02*
X113137000Y-63012000D01*
X113137000Y-63012000D02*
X113538000Y-62611000D01*
X113538000Y-62611000D02*
X113538000Y-62073000D01*
X113538000Y-62073000D02*
X113510000Y-62045000D01*
D33*
X126428500Y-76390500D02*
X126428500Y-77406500D01*
X126428500Y-77406500D02*
X124523500Y-79311500D01*
X124523500Y-79311500D02*
X95694500Y-79311500D01*
X95694500Y-79311500D02*
X93599000Y-77216000D01*
X93599000Y-77216000D02*
X93599000Y-75819000D01*
X95250000Y-70167500D02*
X95250000Y-74485500D01*
X95250000Y-74485500D02*
X93916500Y-75819000D01*
X93916500Y-75819000D02*
X93599000Y-75819000D01*
X95250000Y-70167500D02*
X97245579Y-70167500D01*
X97245579Y-70167500D02*
X98140079Y-69273000D01*
X98140079Y-69273000D02*
X98806000Y-69273000D01*
X126428500Y-76390500D02*
X126428500Y-75628500D01*
X126428500Y-75628500D02*
X126428500Y-74866500D01*
X126428500Y-74866500D02*
X126428500Y-60515500D01*
X126428500Y-60515500D02*
X124714000Y-58801000D01*
X116649500Y-62039500D02*
X116649500Y-62632500D01*
X116649500Y-62632500D02*
X116205000Y-63077000D01*
D32*
X116205000Y-63077000D02*
X116205000Y-62801500D01*
X116205000Y-62801500D02*
X115887500Y-62484000D01*
X115887500Y-62484000D02*
X115887500Y-62222500D01*
X115887500Y-62222500D02*
X115710000Y-62045000D01*
X115726000Y-62061000D02*
X115710000Y-62045000D01*
X156019500Y-68966500D02*
X154786000Y-68966500D01*
X106870500Y-62378500D02*
X106879566Y-62378500D01*
X106879566Y-62378500D02*
X107663066Y-61595000D01*
X107663066Y-61595000D02*
X108839000Y-61595000D01*
X108839000Y-61595000D02*
X109156500Y-61912500D01*
X109156500Y-61912500D02*
X109283500Y-61912500D01*
X98806000Y-70173000D02*
X99076000Y-70173000D01*
X99076000Y-70173000D02*
X105798564Y-63450436D01*
X105798564Y-63450436D02*
X106870500Y-62378500D01*
X98806000Y-70173000D02*
X98806000Y-70421500D01*
X98806000Y-70421500D02*
X95948500Y-73279000D01*
X95948500Y-73279000D02*
X95948500Y-76236000D01*
X95948500Y-76236000D02*
X96357000Y-76644500D01*
X96357000Y-76644500D02*
X96647000Y-76644500D01*
X112903000Y-60833000D02*
X112903000Y-60071000D01*
X112903000Y-60071000D02*
X111252000Y-58420000D01*
X111252000Y-58420000D02*
X111135000Y-58420000D01*
X96647000Y-76009500D02*
X96647000Y-76644500D01*
X142116500Y-61329000D02*
X142116500Y-61879000D01*
X153860500Y-62420500D02*
X156464000Y-65024000D01*
X142116500Y-61879000D02*
X142658000Y-62420500D01*
X142658000Y-62420500D02*
X153860500Y-62420500D01*
X156464000Y-65024000D02*
X157797500Y-65024000D01*
X155563000Y-61329000D02*
X155892500Y-61658500D01*
X155892500Y-61658500D02*
X155956000Y-61722000D01*
X157797500Y-62484000D02*
X156718000Y-62484000D01*
X156718000Y-62484000D02*
X155892500Y-61658500D01*
X144776500Y-61329000D02*
X155563000Y-61329000D01*
X144776500Y-59829000D02*
X157682500Y-59829000D01*
X157682500Y-59829000D02*
X157797500Y-59944000D01*
X130556000Y-66421000D02*
X135255000Y-66421000D01*
X135255000Y-66421000D02*
X136842500Y-68008500D01*
X136842500Y-68008500D02*
X136842500Y-68770500D01*
X136842500Y-73385764D02*
X136842500Y-72961500D01*
X142116500Y-76569000D02*
X140025736Y-76569000D01*
X140025736Y-76569000D02*
X136842500Y-73385764D01*
X137604500Y-68707000D02*
X137604500Y-67754500D01*
X137604500Y-67754500D02*
X133731000Y-63881000D01*
X133731000Y-63881000D02*
X130556000Y-63881000D01*
X138094999Y-73324995D02*
X137795000Y-73024996D01*
X138747504Y-73977500D02*
X138094999Y-73324995D01*
X142938500Y-73977500D02*
X138747504Y-73977500D01*
X143891000Y-75833500D02*
X143891000Y-74930000D01*
X144626500Y-76569000D02*
X143891000Y-75833500D01*
X144776500Y-76569000D02*
X144626500Y-76569000D01*
X143891000Y-74930000D02*
X142938500Y-73977500D01*
X138684000Y-72898000D02*
X138854272Y-72898000D01*
X138854272Y-72898000D02*
X139235272Y-73279000D01*
X139235272Y-73279000D02*
X142836500Y-73279000D01*
X142836500Y-73279000D02*
X144626500Y-75069000D01*
X144626500Y-75069000D02*
X144776500Y-75069000D01*
X130556000Y-61341000D02*
X131772000Y-61341000D01*
X131772000Y-61341000D02*
X138430000Y-67999000D01*
X138430000Y-67999000D02*
X138430000Y-68770498D01*
X138430000Y-68770498D02*
X138429998Y-68770500D01*
X115710000Y-58795000D02*
X115881500Y-58795000D01*
X116776500Y-59690000D02*
X117538500Y-59690000D01*
X115881500Y-58795000D02*
X116776500Y-59690000D01*
X117538500Y-59690000D02*
X117787000Y-59938500D01*
X117787000Y-59938500D02*
X117787000Y-60325000D01*
X117094000Y-58610500D02*
X117538500Y-59055000D01*
X117538500Y-59055000D02*
X117787000Y-59055000D01*
X114173000Y-58420000D02*
X114935000Y-58420000D01*
X117787000Y-59049500D02*
X117787000Y-59055000D01*
X117787000Y-57785000D02*
X117533000Y-58039000D01*
X117533000Y-58039000D02*
X115716000Y-58039000D01*
X115716000Y-58039000D02*
X115710000Y-58045000D01*
X98933000Y-65151000D02*
X96716000Y-65151000D01*
X105283000Y-61277500D02*
X105283000Y-61341000D01*
X101473000Y-65151000D02*
X98933000Y-65151000D01*
X105283000Y-61341000D02*
X101473000Y-65151000D01*
X111125000Y-60706000D02*
X111135000Y-60696000D01*
X111135000Y-60696000D02*
X111135000Y-59920000D01*
X103949500Y-60960000D02*
X103949500Y-61214000D01*
X103949500Y-61214000D02*
X102806500Y-62357000D01*
X102806500Y-62357000D02*
X96716000Y-62357000D01*
X112331500Y-60388500D02*
X112331500Y-60134500D01*
X112331500Y-60134500D02*
X111367000Y-59170000D01*
X111367000Y-59170000D02*
X111135000Y-59170000D01*
X110360000Y-59545000D02*
X109936500Y-59545000D01*
X101092000Y-64643000D02*
X98107500Y-64643000D01*
X109936500Y-59545000D02*
X109029500Y-60452000D01*
X109029500Y-60452000D02*
X105283000Y-60452000D01*
X105283000Y-60452000D02*
X101092000Y-64643000D01*
X98107500Y-64643000D02*
X97155000Y-63690500D01*
X97155000Y-63690500D02*
X96716000Y-63690500D01*
X115252500Y-63055500D02*
X115316000Y-63119000D01*
X115316000Y-63119000D02*
X115316000Y-63715992D01*
X115316000Y-63715992D02*
X114935000Y-64096992D01*
X114935000Y-64096992D02*
X114935000Y-64643000D01*
X114935000Y-64643000D02*
X116205000Y-65913000D01*
X116205000Y-65913000D02*
X118237000Y-65913000D01*
X118237000Y-65913000D02*
X119253000Y-64897000D01*
X119253000Y-64897000D02*
X123698000Y-64897000D01*
X123698000Y-64897000D02*
X124714000Y-63881000D01*
X114808000Y-60769500D02*
X114935000Y-60896500D01*
X114935000Y-60896500D02*
X114935000Y-61460000D01*
X124714000Y-66421000D02*
X124561600Y-66421000D01*
X114109500Y-63055500D02*
X114109500Y-62674500D01*
X124561600Y-66421000D02*
X123418600Y-65278000D01*
X123418600Y-65278000D02*
X119888000Y-65278000D01*
X119888000Y-65278000D02*
X118681500Y-66484500D01*
X118681500Y-66484500D02*
X116014500Y-66484500D01*
X116014500Y-66484500D02*
X114109500Y-64579500D01*
X114109500Y-64579500D02*
X114109500Y-63055500D01*
X114109500Y-60896500D02*
X114109500Y-61335500D01*
X114109500Y-61335500D02*
X113985000Y-61460000D01*
X114173000Y-59182000D02*
X114236500Y-59118500D01*
X114236500Y-59118500D02*
X114883500Y-59118500D01*
X114883500Y-59118500D02*
X114935000Y-59170000D01*
X121539000Y-69215000D02*
X121412000Y-69215000D01*
X93599000Y-70739000D02*
X95440500Y-68897500D01*
X95440500Y-68897500D02*
X97299456Y-68897500D01*
X97299456Y-68897500D02*
X97628912Y-68568044D01*
X97628912Y-68568044D02*
X99516456Y-68568044D01*
X99516456Y-68568044D02*
X106870500Y-61214000D01*
X106870500Y-61214000D02*
X109751079Y-61214000D01*
X109751079Y-61214000D02*
X109913748Y-61051331D01*
X109913748Y-61051331D02*
X110353669Y-61051331D01*
X110353669Y-61051331D02*
X110360000Y-61045000D01*
X110285000Y-61045000D02*
X110360000Y-61045000D01*
X110360000Y-60295000D02*
X110012000Y-60295000D01*
X110012000Y-60295000D02*
X109474000Y-60833000D01*
X109474000Y-60833000D02*
X106680000Y-60833000D01*
X106680000Y-60833000D02*
X99570906Y-67942094D01*
X99570906Y-67942094D02*
X96840406Y-67942094D01*
X96840406Y-67942094D02*
X96583500Y-68199000D01*
X96583500Y-68199000D02*
X93599000Y-68199000D01*
X93751400Y-68199000D02*
X93599000Y-68199000D01*
X110360000Y-60295000D02*
X110285000Y-60295000D01*
X110266000Y-60295000D02*
X110360000Y-60295000D01*
X110360000Y-58795000D02*
X109988000Y-58795000D01*
X109988000Y-58795000D02*
X108712000Y-60071000D01*
X108712000Y-60071000D02*
X103441500Y-60071000D01*
X103441500Y-60071000D02*
X101917500Y-58547000D01*
X101917500Y-58293000D02*
X101854000Y-58229500D01*
X110360000Y-58795000D02*
X110285000Y-58795000D01*
X110360000Y-58045000D02*
X110039500Y-58045000D01*
X110039500Y-58045000D02*
X108394500Y-59690000D01*
X108394500Y-59690000D02*
X105600500Y-59690000D01*
X105600500Y-59690000D02*
X104457500Y-58547000D01*
X110360000Y-58045000D02*
X110178500Y-58045000D01*
X156019500Y-70860500D02*
X148648000Y-70860500D01*
X148648000Y-70860500D02*
X145527500Y-67740000D01*
X145527500Y-67740000D02*
X144256000Y-67740000D01*
X158496000Y-70612000D02*
X156268000Y-70612000D01*
X156268000Y-70612000D02*
X156019500Y-70860500D01*
X158496000Y-70612000D02*
X158242000Y-70866000D01*
X107812000Y-76581000D02*
X105981500Y-76581000D01*
X105981500Y-76581000D02*
X105892600Y-76669900D01*
X106108500Y-76009500D02*
X106146600Y-75971400D01*
X143814000Y-63881000D02*
X143192500Y-63881000D01*
X144330000Y-64897000D02*
X144330000Y-64397000D01*
X144330000Y-64397000D02*
X143814000Y-63881000D01*
X142756000Y-66040000D02*
X142756000Y-64317500D01*
X142756000Y-64317500D02*
X143192500Y-63881000D01*
X144256000Y-66040000D02*
X143756000Y-66040000D01*
X144256000Y-66040000D02*
X144256000Y-64971000D01*
X144256000Y-64971000D02*
X144330000Y-64897000D01*
X120650000Y-62865000D02*
X120497600Y-62865000D01*
X120497600Y-62865000D02*
X118999000Y-61366400D01*
X118999000Y-60579000D02*
X118745000Y-60325000D01*
X118999000Y-61366400D02*
X118999000Y-60579000D01*
X118745000Y-60325000D02*
X118687000Y-60325000D01*
X118687000Y-59055000D02*
X119380000Y-59055000D01*
X119380000Y-59055000D02*
X120650000Y-60325000D01*
X118687000Y-57785000D02*
X120650000Y-57785000D01*
X95816000Y-65151000D02*
X93726000Y-65151000D01*
X93726000Y-65151000D02*
X93599000Y-65024000D01*
X93599000Y-65024000D02*
X93751400Y-65024000D01*
X95816000Y-63690500D02*
X94805500Y-63690500D01*
X94805500Y-63690500D02*
X93599000Y-62484000D01*
X93751400Y-62484000D02*
X93599000Y-62484000D01*
X95694500Y-62357000D02*
X93599000Y-60261500D01*
X93599000Y-60261500D02*
X93599000Y-59944000D01*
X95816000Y-62357000D02*
X95694500Y-62357000D01*
X94513400Y-59944000D02*
X94361000Y-59944000D01*
X115710000Y-59545000D02*
X115996500Y-59545000D01*
X115996500Y-59545000D02*
X116522500Y-60071000D01*
X116522500Y-60071000D02*
X116649508Y-60071000D01*
X116649508Y-60071000D02*
X116967008Y-60388500D01*
X121539000Y-66675000D02*
X121475500Y-66611500D01*
X158496000Y-68072000D02*
X156025000Y-68072000D01*
X156025000Y-68072000D02*
X156019500Y-68066500D01*
X148209000Y-71691500D02*
X149352000Y-71691500D01*
X145859500Y-72517000D02*
X147383500Y-72517000D01*
X147383500Y-72517000D02*
X148209000Y-71691500D01*
X145373000Y-72030500D02*
X145859500Y-72517000D01*
X145373000Y-71564500D02*
X145373000Y-72030500D01*
X132969000Y-77258000D02*
X134959000Y-77258000D01*
X134959000Y-77258000D02*
X135001000Y-77216000D01*
X144730000Y-71679500D02*
X144845000Y-71564500D01*
X144845000Y-71564500D02*
X145373000Y-71564500D01*
X132969000Y-77258000D02*
X134535000Y-77258000D01*
X134535000Y-77258000D02*
X134556500Y-77279500D01*
X144325000Y-71679500D02*
X144730000Y-71679500D01*
X141541500Y-71417000D02*
X141779000Y-71179500D01*
X141779000Y-71179500D02*
X142695000Y-71179500D01*
D33*
X130556000Y-77216000D02*
X132927000Y-77216000D01*
X132927000Y-77216000D02*
X132969000Y-77258000D01*
D32*
X142695000Y-70179500D02*
X142695000Y-69543000D01*
X142695000Y-69543000D02*
X142684500Y-69532500D01*
X143200500Y-65791000D02*
X143200500Y-64889000D01*
X143200500Y-64889000D02*
X143446500Y-64643000D01*
X142695000Y-69416000D02*
X142684500Y-69405500D01*
X145478500Y-70336500D02*
X146473000Y-70336500D01*
X146473000Y-70336500D02*
X146494500Y-70358000D01*
X146473000Y-71564500D02*
X146473000Y-70379500D01*
X146473000Y-70379500D02*
X146494500Y-70358000D01*
X144325000Y-70679500D02*
X145135500Y-70679500D01*
X145135500Y-70679500D02*
X145478500Y-70336500D01*
X144325000Y-71179500D02*
X144325000Y-70679500D01*
X142695000Y-71679500D02*
X142695000Y-72443000D01*
X142695000Y-72443000D02*
X142621000Y-72517000D01*
X141541500Y-72517000D02*
X142621000Y-72517000D01*
X132524500Y-74676000D02*
X132969000Y-75120500D01*
X132969000Y-75120500D02*
X132969000Y-76158000D01*
X130556000Y-74676000D02*
X132524500Y-74676000D01*
X108394500Y-62547500D02*
X109029500Y-63182500D01*
X109029500Y-63182500D02*
X109029500Y-66357500D01*
X109029500Y-66357500D02*
X110871000Y-68199000D01*
X121475500Y-73977500D02*
X121475500Y-74168000D01*
X110871000Y-68199000D02*
X117284500Y-68199000D01*
X117284500Y-68199000D02*
X119824500Y-70739000D01*
X119824500Y-70739000D02*
X119824500Y-72326500D01*
X119824500Y-72326500D02*
X121475500Y-73977500D01*
X111135000Y-61460000D02*
X111196500Y-61460000D01*
X111196500Y-61460000D02*
X111823500Y-60833000D01*
X111610000Y-62045000D02*
X111610000Y-62062500D01*
X111610000Y-62062500D02*
X110998000Y-62674500D01*
X110998000Y-62674500D02*
X110045500Y-62674500D01*
X110045500Y-62674500D02*
X109601000Y-63119000D01*
X109601000Y-63119000D02*
X109601000Y-66167000D01*
X109601000Y-66167000D02*
X111252000Y-67818000D01*
X111252000Y-67818000D02*
X117729000Y-67818000D01*
X117729000Y-67818000D02*
X121475500Y-71564500D01*
X121475500Y-71564500D02*
X121475500Y-71628000D01*
X130556000Y-72136000D02*
X130683000Y-72136000D01*
X130683000Y-72136000D02*
X132207000Y-70612000D01*
X132207000Y-70612000D02*
X133021500Y-70612000D01*
X130556000Y-69596000D02*
X131191000Y-68961000D01*
X131191000Y-68961000D02*
X133032500Y-68961000D01*
X133032500Y-68961000D02*
X133032500Y-68966500D01*
X133032500Y-68966500D02*
X133090500Y-69024500D01*
X131127500Y-69024500D02*
X130556000Y-69596000D01*
D34*
G36*
X160274000Y-79502000D02*
X128778000Y-79502000D01*
X128778000Y-77501750D01*
X128905000Y-77501750D01*
X128905000Y-78205909D01*
X129001673Y-78439298D01*
X129180301Y-78617927D01*
X129413690Y-78714600D01*
X130270250Y-78714600D01*
X130429000Y-78555850D01*
X130429000Y-77343000D01*
X130683000Y-77343000D01*
X130683000Y-78555850D01*
X130841750Y-78714600D01*
X131698310Y-78714600D01*
X131931699Y-78617927D01*
X132110327Y-78439298D01*
X132207000Y-78205909D01*
X132207000Y-77944025D01*
X132359301Y-78096327D01*
X132592690Y-78193000D01*
X132685250Y-78193000D01*
X132844000Y-78034250D01*
X132844000Y-77385000D01*
X133094000Y-77385000D01*
X133094000Y-78034250D01*
X133252750Y-78193000D01*
X133345310Y-78193000D01*
X133557760Y-78105000D01*
X157063189Y-78105000D01*
X157153818Y-78560623D01*
X157411908Y-78946881D01*
X157798166Y-79204971D01*
X158253789Y-79295600D01*
X158611211Y-79295600D01*
X159066834Y-79204971D01*
X159453092Y-78946881D01*
X159711182Y-78560623D01*
X159801811Y-78105000D01*
X159711182Y-77649377D01*
X159453092Y-77263119D01*
X159066834Y-77005029D01*
X158611211Y-76914400D01*
X158253789Y-76914400D01*
X157798166Y-77005029D01*
X157411908Y-77263119D01*
X157153818Y-77649377D01*
X157063189Y-78105000D01*
X133557760Y-78105000D01*
X133578699Y-78096327D01*
X133757327Y-77917698D01*
X133854000Y-77684309D01*
X133854000Y-77543750D01*
X133695250Y-77385000D01*
X133094000Y-77385000D01*
X132844000Y-77385000D01*
X132242750Y-77385000D01*
X132166500Y-77461250D01*
X132048250Y-77343000D01*
X130683000Y-77343000D01*
X130429000Y-77343000D01*
X129063750Y-77343000D01*
X128905000Y-77501750D01*
X128778000Y-77501750D01*
X128778000Y-76226091D01*
X128905000Y-76226091D01*
X128905000Y-76930250D01*
X129063750Y-77089000D01*
X130429000Y-77089000D01*
X130429000Y-77069000D01*
X130683000Y-77069000D01*
X130683000Y-77089000D01*
X132048250Y-77089000D01*
X132124500Y-77012750D01*
X132242750Y-77131000D01*
X132844000Y-77131000D01*
X132844000Y-77111000D01*
X133094000Y-77111000D01*
X133094000Y-77131000D01*
X133695250Y-77131000D01*
X133854000Y-76972250D01*
X133854000Y-76831691D01*
X133757327Y-76598302D01*
X133578699Y-76419673D01*
X133552406Y-76408782D01*
X133552406Y-75858000D01*
X133529605Y-75736821D01*
X133457988Y-75625526D01*
X133396000Y-75583171D01*
X133396000Y-75120505D01*
X133396001Y-75120500D01*
X133363497Y-74957094D01*
X133270935Y-74818565D01*
X132826435Y-74374065D01*
X132687906Y-74281503D01*
X132524500Y-74248999D01*
X132524495Y-74249000D01*
X131840375Y-74249000D01*
X131834682Y-74220377D01*
X131576592Y-73834119D01*
X131190334Y-73576029D01*
X130734711Y-73485400D01*
X130377289Y-73485400D01*
X129921666Y-73576029D01*
X129535408Y-73834119D01*
X129277318Y-74220377D01*
X129186689Y-74676000D01*
X129277318Y-75131623D01*
X129535408Y-75517881D01*
X129834009Y-75717400D01*
X129413690Y-75717400D01*
X129180301Y-75814073D01*
X129001673Y-75992702D01*
X128905000Y-76226091D01*
X128778000Y-76226091D01*
X128778000Y-61341000D01*
X129186689Y-61341000D01*
X129277318Y-61796623D01*
X129535408Y-62182881D01*
X129921666Y-62440971D01*
X130377289Y-62531600D01*
X130734711Y-62531600D01*
X131190334Y-62440971D01*
X131576592Y-62182881D01*
X131750196Y-61923066D01*
X133281130Y-63454000D01*
X131840375Y-63454000D01*
X131834682Y-63425377D01*
X131576592Y-63039119D01*
X131190334Y-62781029D01*
X130734711Y-62690400D01*
X130377289Y-62690400D01*
X129921666Y-62781029D01*
X129535408Y-63039119D01*
X129277318Y-63425377D01*
X129186689Y-63881000D01*
X129277318Y-64336623D01*
X129535408Y-64722881D01*
X129921666Y-64980971D01*
X130377289Y-65071600D01*
X130734711Y-65071600D01*
X131190334Y-64980971D01*
X131576592Y-64722881D01*
X131834682Y-64336623D01*
X131840375Y-64308000D01*
X133554130Y-64308000D01*
X135240130Y-65994000D01*
X131905406Y-65994000D01*
X131905406Y-65557400D01*
X131882605Y-65436221D01*
X131810988Y-65324926D01*
X131701714Y-65250262D01*
X131572000Y-65223994D01*
X129540000Y-65223994D01*
X129418821Y-65246795D01*
X129307526Y-65318412D01*
X129232862Y-65427686D01*
X129206594Y-65557400D01*
X129206594Y-67284600D01*
X129229395Y-67405779D01*
X129301012Y-67517074D01*
X129410286Y-67591738D01*
X129540000Y-67618006D01*
X131572000Y-67618006D01*
X131693179Y-67595205D01*
X131804474Y-67523588D01*
X131879138Y-67414314D01*
X131905406Y-67284600D01*
X131905406Y-66848000D01*
X135078130Y-66848000D01*
X135572498Y-67342368D01*
X135572498Y-67453748D01*
X135413750Y-67295000D01*
X135273190Y-67295000D01*
X135039801Y-67391673D01*
X134861173Y-67570302D01*
X134764500Y-67803691D01*
X134764500Y-67871250D01*
X134923250Y-68030000D01*
X135572500Y-68030000D01*
X135572500Y-67983000D01*
X135826500Y-67983000D01*
X135826500Y-68030000D01*
X135846500Y-68030000D01*
X135846500Y-68230000D01*
X135826500Y-68230000D01*
X135826500Y-68277000D01*
X135572500Y-68277000D01*
X135572500Y-68230000D01*
X134923250Y-68230000D01*
X134764500Y-68388750D01*
X134764500Y-68456309D01*
X134822983Y-68597500D01*
X134497359Y-68597500D01*
X134429488Y-68492026D01*
X134320214Y-68417362D01*
X134190500Y-68391094D01*
X133790500Y-68391094D01*
X133669321Y-68413895D01*
X133558026Y-68485512D01*
X133541170Y-68510181D01*
X133529488Y-68492026D01*
X133420214Y-68417362D01*
X133290500Y-68391094D01*
X132890500Y-68391094D01*
X132769321Y-68413895D01*
X132658026Y-68485512D01*
X132624895Y-68534000D01*
X131247161Y-68534000D01*
X131190334Y-68496029D01*
X130734711Y-68405400D01*
X130377289Y-68405400D01*
X129921666Y-68496029D01*
X129535408Y-68754119D01*
X129277318Y-69140377D01*
X129186689Y-69596000D01*
X129277318Y-70051623D01*
X129535408Y-70437881D01*
X129921666Y-70695971D01*
X130377289Y-70786600D01*
X130734711Y-70786600D01*
X131190334Y-70695971D01*
X131576592Y-70437881D01*
X131834682Y-70051623D01*
X131925311Y-69596000D01*
X131883937Y-69388000D01*
X132569042Y-69388000D01*
X132579895Y-69445679D01*
X132651512Y-69556974D01*
X132760786Y-69631638D01*
X132890500Y-69657906D01*
X133290500Y-69657906D01*
X133411679Y-69635105D01*
X133522974Y-69563488D01*
X133539830Y-69538819D01*
X133551512Y-69556974D01*
X133660786Y-69631638D01*
X133790500Y-69657906D01*
X134190500Y-69657906D01*
X134311679Y-69635105D01*
X134422974Y-69563488D01*
X134497638Y-69454214D01*
X134498188Y-69451500D01*
X135153450Y-69451500D01*
X135160512Y-69462474D01*
X135269786Y-69537138D01*
X135399500Y-69563406D01*
X135634537Y-69563406D01*
X135699725Y-69628594D01*
X135399500Y-69628594D01*
X135278321Y-69651395D01*
X135167026Y-69723012D01*
X135158835Y-69735000D01*
X134771500Y-69735000D01*
X134608094Y-69767503D01*
X134469565Y-69860065D01*
X134294911Y-70034719D01*
X134251214Y-70004862D01*
X134121500Y-69978594D01*
X133721500Y-69978594D01*
X133600321Y-70001395D01*
X133489026Y-70073012D01*
X133472170Y-70097681D01*
X133460488Y-70079526D01*
X133351214Y-70004862D01*
X133221500Y-69978594D01*
X132821500Y-69978594D01*
X132700321Y-70001395D01*
X132589026Y-70073012D01*
X132514362Y-70182286D01*
X132513812Y-70185000D01*
X132207000Y-70185000D01*
X132043594Y-70217503D01*
X131905065Y-70310065D01*
X131905063Y-70310068D01*
X131180965Y-71034165D01*
X130734711Y-70945400D01*
X130377289Y-70945400D01*
X129921666Y-71036029D01*
X129535408Y-71294119D01*
X129277318Y-71680377D01*
X129186689Y-72136000D01*
X129277318Y-72591623D01*
X129535408Y-72977881D01*
X129921666Y-73235971D01*
X130377289Y-73326600D01*
X130734711Y-73326600D01*
X131190334Y-73235971D01*
X131415273Y-73085671D01*
X136215391Y-73085671D01*
X136310645Y-73316203D01*
X136424312Y-73430069D01*
X136448003Y-73549170D01*
X136540565Y-73687699D01*
X139723799Y-76870932D01*
X139723801Y-76870935D01*
X139862330Y-76963497D01*
X140025736Y-76996001D01*
X140025741Y-76996000D01*
X141297582Y-76996000D01*
X141305895Y-77040179D01*
X141377512Y-77151474D01*
X141486786Y-77226138D01*
X141616500Y-77252406D01*
X142616500Y-77252406D01*
X142737679Y-77229605D01*
X142848974Y-77157988D01*
X142923638Y-77048714D01*
X142949906Y-76919000D01*
X142949906Y-76219000D01*
X142927105Y-76097821D01*
X142866056Y-76002950D01*
X142976199Y-75957327D01*
X143154827Y-75778698D01*
X143251500Y-75545309D01*
X143251500Y-75354750D01*
X143092750Y-75196000D01*
X142243500Y-75196000D01*
X142243500Y-75216000D01*
X141989500Y-75216000D01*
X141989500Y-75196000D01*
X141140250Y-75196000D01*
X140981500Y-75354750D01*
X140981500Y-75545309D01*
X141078173Y-75778698D01*
X141256801Y-75957327D01*
X141368042Y-76003405D01*
X141309362Y-76089286D01*
X141298687Y-76142000D01*
X140202605Y-76142000D01*
X137712530Y-73651924D01*
X137818151Y-73652017D01*
X138445567Y-74279432D01*
X138445569Y-74279435D01*
X138565099Y-74359302D01*
X138584098Y-74371997D01*
X138747504Y-74404500D01*
X141059451Y-74404500D01*
X140981500Y-74592691D01*
X140981500Y-74783250D01*
X141140250Y-74942000D01*
X141989500Y-74942000D01*
X141989500Y-74922000D01*
X142243500Y-74922000D01*
X142243500Y-74942000D01*
X143092750Y-74942000D01*
X143195940Y-74838810D01*
X143464000Y-75106869D01*
X143464000Y-75833495D01*
X143463999Y-75833500D01*
X143496503Y-75996906D01*
X143589065Y-76135435D01*
X143943094Y-76489464D01*
X143943094Y-76919000D01*
X143965895Y-77040179D01*
X144037512Y-77151474D01*
X144146786Y-77226138D01*
X144276500Y-77252406D01*
X145276500Y-77252406D01*
X145397679Y-77229605D01*
X145508974Y-77157988D01*
X145583638Y-77048714D01*
X145609906Y-76919000D01*
X145609906Y-76219000D01*
X145587105Y-76097821D01*
X145515488Y-75986526D01*
X145406214Y-75911862D01*
X145276500Y-75885594D01*
X144546964Y-75885594D01*
X144413776Y-75752406D01*
X145276500Y-75752406D01*
X145397679Y-75729605D01*
X145508974Y-75657988D01*
X145583638Y-75548714D01*
X145609906Y-75419000D01*
X145609906Y-74719000D01*
X145587105Y-74597821D01*
X145515488Y-74486526D01*
X145406214Y-74411862D01*
X145276500Y-74385594D01*
X144546963Y-74385594D01*
X144163235Y-74001866D01*
X144272000Y-74023500D01*
X149810130Y-74023500D01*
X151780563Y-75993932D01*
X151780565Y-75993935D01*
X151870459Y-76054000D01*
X151919094Y-76086497D01*
X152082500Y-76119001D01*
X152082505Y-76119000D01*
X157219552Y-76119000D01*
X157411908Y-76406881D01*
X157798166Y-76664971D01*
X158253789Y-76755600D01*
X158611211Y-76755600D01*
X159066834Y-76664971D01*
X159453092Y-76406881D01*
X159711182Y-76020623D01*
X159801811Y-75565000D01*
X159711182Y-75109377D01*
X159453092Y-74723119D01*
X159066834Y-74465029D01*
X158611211Y-74374400D01*
X158253789Y-74374400D01*
X157798166Y-74465029D01*
X157411908Y-74723119D01*
X157153818Y-75109377D01*
X157122863Y-75265000D01*
X152259369Y-75265000D01*
X150573370Y-73579000D01*
X157219552Y-73579000D01*
X157411908Y-73866881D01*
X157798166Y-74124971D01*
X158253789Y-74215600D01*
X158611211Y-74215600D01*
X159066834Y-74124971D01*
X159453092Y-73866881D01*
X159711182Y-73480623D01*
X159801811Y-73025000D01*
X159711182Y-72569377D01*
X159453092Y-72183119D01*
X159066834Y-71925029D01*
X158611211Y-71834400D01*
X158253789Y-71834400D01*
X157798166Y-71925029D01*
X157411908Y-72183119D01*
X157153818Y-72569377D01*
X157122863Y-72725000D01*
X144702869Y-72725000D01*
X144432370Y-72454500D01*
X144452002Y-72454500D01*
X144452002Y-72320252D01*
X144586250Y-72454500D01*
X144656309Y-72454500D01*
X144807536Y-72391860D01*
X144946691Y-72449500D01*
X145087250Y-72449500D01*
X145246000Y-72290750D01*
X145246000Y-71689500D01*
X145226000Y-71689500D01*
X145226000Y-71439500D01*
X145246000Y-71439500D01*
X145246000Y-71417500D01*
X145500000Y-71417500D01*
X145500000Y-71439500D01*
X145520000Y-71439500D01*
X145520000Y-71689500D01*
X145500000Y-71689500D01*
X145500000Y-72290750D01*
X145658750Y-72449500D01*
X145799309Y-72449500D01*
X146032698Y-72352827D01*
X146211327Y-72174199D01*
X146222218Y-72147906D01*
X146773000Y-72147906D01*
X146894179Y-72125105D01*
X147005474Y-72053488D01*
X147028867Y-72019250D01*
X155084500Y-72019250D01*
X155084500Y-72086809D01*
X155181173Y-72320198D01*
X155359801Y-72498827D01*
X155593190Y-72595500D01*
X155733750Y-72595500D01*
X155892500Y-72436750D01*
X155892500Y-71860500D01*
X156146500Y-71860500D01*
X156146500Y-72436750D01*
X156305250Y-72595500D01*
X156445810Y-72595500D01*
X156679199Y-72498827D01*
X156857827Y-72320198D01*
X156954500Y-72086809D01*
X156954500Y-72019250D01*
X156795750Y-71860500D01*
X156146500Y-71860500D01*
X155892500Y-71860500D01*
X155243250Y-71860500D01*
X155084500Y-72019250D01*
X147028867Y-72019250D01*
X147080138Y-71944214D01*
X147106406Y-71814500D01*
X147106406Y-71314500D01*
X147083605Y-71193321D01*
X147011988Y-71082026D01*
X146902714Y-71007362D01*
X146900000Y-71006812D01*
X146900000Y-70839147D01*
X147025735Y-70713631D01*
X147121391Y-70483265D01*
X147121609Y-70233829D01*
X147026355Y-70003297D01*
X146850131Y-69826765D01*
X146619765Y-69731109D01*
X146370329Y-69730891D01*
X146328066Y-69748354D01*
X146363500Y-69662809D01*
X146363500Y-69522250D01*
X146204750Y-69363500D01*
X145603500Y-69363500D01*
X145603500Y-69383500D01*
X145353500Y-69383500D01*
X145353500Y-69363500D01*
X144752250Y-69363500D01*
X144593500Y-69522250D01*
X144593500Y-69662809D01*
X144618885Y-69724094D01*
X144530000Y-69706094D01*
X144503066Y-69706094D01*
X144438327Y-69549801D01*
X144259698Y-69371173D01*
X144026309Y-69274500D01*
X143988750Y-69274500D01*
X143830000Y-69433250D01*
X143830000Y-69884704D01*
X143812862Y-69909786D01*
X143786594Y-70039500D01*
X143786594Y-70319500D01*
X143808052Y-70433540D01*
X143786594Y-70539500D01*
X143786594Y-70819500D01*
X143808052Y-70933540D01*
X143797473Y-70985776D01*
X143760302Y-71001173D01*
X143581673Y-71179801D01*
X143566622Y-71216138D01*
X143505960Y-71227552D01*
X143400000Y-71206094D01*
X143120000Y-71206094D01*
X143005960Y-71227552D01*
X142900000Y-71206094D01*
X142548000Y-71206094D01*
X142548000Y-71152906D01*
X142900000Y-71152906D01*
X143021179Y-71130105D01*
X143053200Y-71109500D01*
X143376250Y-71109500D01*
X143690000Y-70795750D01*
X143690000Y-70474296D01*
X143707138Y-70449214D01*
X143733406Y-70319500D01*
X143733406Y-69909500D01*
X143710605Y-69788321D01*
X143690000Y-69756300D01*
X143690000Y-69433250D01*
X143687000Y-69430250D01*
X143687000Y-69092005D01*
X143687001Y-69092000D01*
X143683000Y-69071886D01*
X143683000Y-68810191D01*
X144593500Y-68810191D01*
X144593500Y-68950750D01*
X144752250Y-69109500D01*
X145353500Y-69109500D01*
X145353500Y-68460250D01*
X145194750Y-68301500D01*
X145102190Y-68301500D01*
X144868801Y-68398173D01*
X144690173Y-68576802D01*
X144593500Y-68810191D01*
X143683000Y-68810191D01*
X143683000Y-68095474D01*
X143683906Y-68091000D01*
X143683906Y-67544000D01*
X143717094Y-67544000D01*
X143717094Y-68091000D01*
X143739895Y-68212179D01*
X143775500Y-68267510D01*
X143775500Y-68567250D01*
X143934250Y-68726000D01*
X143976810Y-68726000D01*
X144210199Y-68629327D01*
X144388827Y-68450698D01*
X144403878Y-68414362D01*
X144471679Y-68401605D01*
X144582974Y-68329988D01*
X144657638Y-68220714D01*
X144668515Y-68167000D01*
X145350630Y-68167000D01*
X145623690Y-68440060D01*
X145603500Y-68460250D01*
X145603500Y-69109500D01*
X146204750Y-69109500D01*
X146248940Y-69065310D01*
X148346063Y-71162432D01*
X148346065Y-71162435D01*
X148484594Y-71254997D01*
X148648000Y-71287500D01*
X155145261Y-71287500D01*
X155084500Y-71434191D01*
X155084500Y-71501750D01*
X155243250Y-71660500D01*
X155892500Y-71660500D01*
X155892500Y-71613500D01*
X156146500Y-71613500D01*
X156146500Y-71660500D01*
X156795750Y-71660500D01*
X156954500Y-71501750D01*
X156954500Y-71434191D01*
X156857827Y-71200802D01*
X156696026Y-71039000D01*
X157219552Y-71039000D01*
X157411908Y-71326881D01*
X157798166Y-71584971D01*
X158253789Y-71675600D01*
X158611211Y-71675600D01*
X159066834Y-71584971D01*
X159453092Y-71326881D01*
X159711182Y-70940623D01*
X159801811Y-70485000D01*
X159711182Y-70029377D01*
X159453092Y-69643119D01*
X159066834Y-69385029D01*
X158611211Y-69294400D01*
X158253789Y-69294400D01*
X157798166Y-69385029D01*
X157411908Y-69643119D01*
X157153818Y-70029377D01*
X157122863Y-70185000D01*
X156268005Y-70185000D01*
X156268000Y-70184999D01*
X156104594Y-70217503D01*
X155966065Y-70310065D01*
X155949036Y-70327094D01*
X155719500Y-70327094D01*
X155598321Y-70349895D01*
X155487026Y-70421512D01*
X155478835Y-70433500D01*
X148824869Y-70433500D01*
X146790428Y-68399058D01*
X146940665Y-68399189D01*
X147341063Y-68233748D01*
X147647671Y-67927674D01*
X147813811Y-67527566D01*
X147813812Y-67525665D01*
X150635811Y-67525665D01*
X150801252Y-67926063D01*
X151107326Y-68232671D01*
X151507434Y-68398811D01*
X151940665Y-68399189D01*
X152341063Y-68233748D01*
X152647671Y-67927674D01*
X152726846Y-67737000D01*
X153775630Y-67737000D01*
X154039094Y-68000464D01*
X154039094Y-68330000D01*
X154061895Y-68451179D01*
X154133512Y-68562474D01*
X154158181Y-68579330D01*
X154140026Y-68591012D01*
X154065362Y-68700286D01*
X154039094Y-68830000D01*
X154039094Y-69430000D01*
X154061895Y-69551179D01*
X154133512Y-69662474D01*
X154242786Y-69737138D01*
X154372500Y-69763406D01*
X154872500Y-69763406D01*
X154993679Y-69740605D01*
X155104974Y-69668988D01*
X155179638Y-69559714D01*
X155205906Y-69430000D01*
X155205906Y-69393500D01*
X155476990Y-69393500D01*
X155480512Y-69398974D01*
X155589786Y-69473638D01*
X155719500Y-69499906D01*
X156319500Y-69499906D01*
X156440679Y-69477105D01*
X156551974Y-69405488D01*
X156626638Y-69296214D01*
X156652906Y-69166500D01*
X156652906Y-68766500D01*
X156630105Y-68645321D01*
X156558488Y-68534026D01*
X156533819Y-68517170D01*
X156551974Y-68505488D01*
X156556407Y-68499000D01*
X157083094Y-68499000D01*
X157083094Y-68808600D01*
X157105895Y-68929779D01*
X157177512Y-69041074D01*
X157286786Y-69115738D01*
X157416500Y-69142006D01*
X159448500Y-69142006D01*
X159569679Y-69119205D01*
X159680974Y-69047588D01*
X159755638Y-68938314D01*
X159781906Y-68808600D01*
X159781906Y-67081400D01*
X159759105Y-66960221D01*
X159687488Y-66848926D01*
X159578214Y-66774262D01*
X159448500Y-66747994D01*
X157416500Y-66747994D01*
X157295321Y-66770795D01*
X157184026Y-66842412D01*
X157109362Y-66951686D01*
X157083094Y-67081400D01*
X157083094Y-67645000D01*
X156565550Y-67645000D01*
X156558488Y-67634026D01*
X156449214Y-67559362D01*
X156319500Y-67533094D01*
X155719500Y-67533094D01*
X155598321Y-67555895D01*
X155487026Y-67627512D01*
X155412362Y-67736786D01*
X155386094Y-67866500D01*
X155386094Y-68266500D01*
X155408895Y-68387679D01*
X155480512Y-68498974D01*
X155505181Y-68515830D01*
X155487026Y-68527512D01*
X155478835Y-68539500D01*
X155125122Y-68539500D01*
X155179638Y-68459714D01*
X155205906Y-68330000D01*
X155205906Y-67730000D01*
X155183105Y-67608821D01*
X155111488Y-67497526D01*
X155002214Y-67422862D01*
X154872500Y-67396594D01*
X154642964Y-67396594D01*
X154254435Y-67008065D01*
X154115906Y-66915503D01*
X153952500Y-66882999D01*
X153952495Y-66883000D01*
X152726867Y-66883000D01*
X152648748Y-66693937D01*
X152342674Y-66387329D01*
X151942566Y-66221189D01*
X151509335Y-66220811D01*
X151108937Y-66386252D01*
X150802329Y-66692326D01*
X150636189Y-67092434D01*
X150635811Y-67525665D01*
X147813812Y-67525665D01*
X147814189Y-67094335D01*
X147648748Y-66693937D01*
X147342674Y-66387329D01*
X146942566Y-66221189D01*
X146509335Y-66220811D01*
X146108937Y-66386252D01*
X145802329Y-66692326D01*
X145636189Y-67092434D01*
X145635978Y-67334577D01*
X145527500Y-67312999D01*
X145527495Y-67313000D01*
X144683906Y-67313000D01*
X144683906Y-67291000D01*
X144671376Y-67224406D01*
X144800500Y-67224406D01*
X144921679Y-67201605D01*
X145032974Y-67129988D01*
X145107638Y-67020714D01*
X145133906Y-66891000D01*
X145133906Y-66591000D01*
X145111105Y-66469821D01*
X145039488Y-66358526D01*
X144930214Y-66283862D01*
X144800500Y-66257594D01*
X144670420Y-66257594D01*
X144683906Y-66191000D01*
X144683906Y-65486962D01*
X144903691Y-65578000D01*
X144971250Y-65578000D01*
X145130000Y-65419250D01*
X145130000Y-64770000D01*
X145330000Y-64770000D01*
X145330000Y-65419250D01*
X145488750Y-65578000D01*
X145556309Y-65578000D01*
X145789698Y-65481327D01*
X145968327Y-65302699D01*
X146065000Y-65069310D01*
X146065000Y-64928750D01*
X145906250Y-64770000D01*
X145330000Y-64770000D01*
X145130000Y-64770000D01*
X145083000Y-64770000D01*
X145083000Y-64516000D01*
X145130000Y-64516000D01*
X145130000Y-63866750D01*
X145330000Y-63866750D01*
X145330000Y-64516000D01*
X145906250Y-64516000D01*
X146065000Y-64357250D01*
X146065000Y-64216690D01*
X145968327Y-63983301D01*
X145789698Y-63804673D01*
X145556309Y-63708000D01*
X145488750Y-63708000D01*
X145330000Y-63866750D01*
X145130000Y-63866750D01*
X144971250Y-63708000D01*
X144903691Y-63708000D01*
X144670302Y-63804673D01*
X144505922Y-63969052D01*
X144115935Y-63579065D01*
X143977406Y-63486503D01*
X143814000Y-63453999D01*
X143813995Y-63454000D01*
X143192500Y-63454000D01*
X143029094Y-63486503D01*
X142890565Y-63579065D01*
X142890563Y-63579068D01*
X142454065Y-64015565D01*
X142361503Y-64154094D01*
X142328999Y-64317500D01*
X142329000Y-64317505D01*
X142329000Y-65144950D01*
X142318026Y-65152012D01*
X142243362Y-65261286D01*
X142217094Y-65391000D01*
X142217094Y-66191000D01*
X142229624Y-66257594D01*
X142100500Y-66257594D01*
X141979321Y-66280395D01*
X141868026Y-66352012D01*
X141793362Y-66461286D01*
X141767094Y-66591000D01*
X141767094Y-66891000D01*
X141789895Y-67012179D01*
X141861512Y-67123474D01*
X141970786Y-67198138D01*
X142100500Y-67224406D01*
X142230580Y-67224406D01*
X142217094Y-67291000D01*
X142217094Y-67327500D01*
X142176500Y-67327500D01*
X142013094Y-67360003D01*
X141874565Y-67452565D01*
X141874563Y-67452568D01*
X141366565Y-67960565D01*
X141274003Y-68099094D01*
X141241499Y-68262500D01*
X141241500Y-68262505D01*
X141241500Y-69722995D01*
X141241499Y-69723000D01*
X141255771Y-69794750D01*
X141232109Y-69851735D01*
X141231891Y-70101171D01*
X141327145Y-70331703D01*
X141451559Y-70456335D01*
X141456664Y-70482000D01*
X141414498Y-70482000D01*
X141414498Y-70638748D01*
X141257750Y-70482000D01*
X141165190Y-70482000D01*
X140931801Y-70578673D01*
X140753173Y-70757302D01*
X140656500Y-70990691D01*
X140656500Y-71131250D01*
X140815250Y-71290000D01*
X141416500Y-71290000D01*
X141416500Y-71270000D01*
X141666500Y-71270000D01*
X141666500Y-71290000D01*
X141688500Y-71290000D01*
X141688500Y-71544000D01*
X141666500Y-71544000D01*
X141666500Y-71564000D01*
X141416500Y-71564000D01*
X141416500Y-71544000D01*
X140815250Y-71544000D01*
X140656500Y-71702750D01*
X140656500Y-71843309D01*
X140753173Y-72076698D01*
X140931801Y-72255327D01*
X140958094Y-72266218D01*
X140958094Y-72817000D01*
X140964680Y-72852000D01*
X139412141Y-72852000D01*
X139295011Y-72734870D01*
X139215855Y-72543297D01*
X139039631Y-72366765D01*
X138809265Y-72271109D01*
X138559829Y-72270891D01*
X138329297Y-72366145D01*
X138176000Y-72519174D01*
X138150631Y-72493761D01*
X137920265Y-72398105D01*
X137670829Y-72397887D01*
X137440297Y-72493141D01*
X137350441Y-72582841D01*
X137198131Y-72430265D01*
X136967765Y-72334609D01*
X136718329Y-72334391D01*
X136487797Y-72429645D01*
X136311265Y-72605869D01*
X136215609Y-72836235D01*
X136215391Y-73085671D01*
X131415273Y-73085671D01*
X131576592Y-72977881D01*
X131834682Y-72591623D01*
X131925311Y-72136000D01*
X131834682Y-71680377D01*
X131797756Y-71625113D01*
X132102119Y-71320750D01*
X134764500Y-71320750D01*
X134764500Y-71388309D01*
X134861173Y-71621698D01*
X135039801Y-71800327D01*
X135273190Y-71897000D01*
X135413750Y-71897000D01*
X135572500Y-71738250D01*
X135572500Y-71162000D01*
X135826500Y-71162000D01*
X135826500Y-71738250D01*
X135985250Y-71897000D01*
X136125810Y-71897000D01*
X136359199Y-71800327D01*
X136537827Y-71621698D01*
X136634500Y-71388309D01*
X136634500Y-71320750D01*
X136475750Y-71162000D01*
X135826500Y-71162000D01*
X135572500Y-71162000D01*
X134923250Y-71162000D01*
X134764500Y-71320750D01*
X132102119Y-71320750D01*
X132383869Y-71039000D01*
X132514641Y-71039000D01*
X132582512Y-71144474D01*
X132691786Y-71219138D01*
X132821500Y-71245406D01*
X133221500Y-71245406D01*
X133342679Y-71222605D01*
X133453974Y-71150988D01*
X133470830Y-71126319D01*
X133482512Y-71144474D01*
X133591786Y-71219138D01*
X133721500Y-71245406D01*
X134121500Y-71245406D01*
X134242679Y-71222605D01*
X134353974Y-71150988D01*
X134428638Y-71041714D01*
X134433707Y-71016681D01*
X134484906Y-71006497D01*
X134623435Y-70913935D01*
X134764500Y-70772870D01*
X134764500Y-70803250D01*
X134923250Y-70962000D01*
X135572500Y-70962000D01*
X135572500Y-70915000D01*
X135826500Y-70915000D01*
X135826500Y-70962000D01*
X136475750Y-70962000D01*
X136634500Y-70803250D01*
X136634500Y-70735691D01*
X136573739Y-70589000D01*
X138599715Y-70589000D01*
X138645869Y-70635235D01*
X138876235Y-70730891D01*
X139125671Y-70731109D01*
X139356203Y-70635855D01*
X139532735Y-70459631D01*
X139628391Y-70229265D01*
X139628609Y-69979829D01*
X139533355Y-69749297D01*
X139507213Y-69723109D01*
X139532735Y-69697631D01*
X139628391Y-69467265D01*
X139628609Y-69217829D01*
X139533355Y-68987297D01*
X139357131Y-68810765D01*
X139126765Y-68715109D01*
X139057047Y-68715048D01*
X139057107Y-68646329D01*
X138961853Y-68415797D01*
X138857000Y-68310761D01*
X138857000Y-67999005D01*
X138857001Y-67999000D01*
X138824497Y-67835594D01*
X138731935Y-67697065D01*
X132073935Y-61039065D01*
X131935406Y-60946503D01*
X131843192Y-60928160D01*
X131834682Y-60885377D01*
X131576592Y-60499119D01*
X131190334Y-60241029D01*
X130734711Y-60150400D01*
X130377289Y-60150400D01*
X129921666Y-60241029D01*
X129535408Y-60499119D01*
X129277318Y-60885377D01*
X129186689Y-61341000D01*
X128778000Y-61341000D01*
X128778000Y-60114750D01*
X140981500Y-60114750D01*
X140981500Y-60305309D01*
X141078173Y-60538698D01*
X141256801Y-60717327D01*
X141368042Y-60763405D01*
X141309362Y-60849286D01*
X141283094Y-60979000D01*
X141283094Y-61679000D01*
X141305895Y-61800179D01*
X141377512Y-61911474D01*
X141486786Y-61986138D01*
X141616500Y-62012406D01*
X141716036Y-62012406D01*
X141722003Y-62042406D01*
X141814565Y-62180935D01*
X142356063Y-62722432D01*
X142356065Y-62722435D01*
X142451098Y-62785934D01*
X142494594Y-62814997D01*
X142658000Y-62847501D01*
X142658005Y-62847500D01*
X153683630Y-62847500D01*
X156162065Y-65325935D01*
X156300594Y-65418497D01*
X156448094Y-65447837D01*
X156448094Y-65887600D01*
X156470895Y-66008779D01*
X156542512Y-66120074D01*
X156651786Y-66194738D01*
X156781500Y-66221006D01*
X158813500Y-66221006D01*
X158934679Y-66198205D01*
X159045974Y-66126588D01*
X159120638Y-66017314D01*
X159146906Y-65887600D01*
X159146906Y-64160400D01*
X159124105Y-64039221D01*
X159052488Y-63927926D01*
X158943214Y-63853262D01*
X158813500Y-63826994D01*
X156781500Y-63826994D01*
X156660321Y-63849795D01*
X156549026Y-63921412D01*
X156474362Y-64030686D01*
X156448094Y-64160400D01*
X156448094Y-64404224D01*
X154162435Y-62118565D01*
X154023906Y-62026003D01*
X153860500Y-61993499D01*
X153860495Y-61993500D01*
X145376978Y-61993500D01*
X145397679Y-61989605D01*
X145508974Y-61917988D01*
X145583638Y-61808714D01*
X145594313Y-61756000D01*
X155386130Y-61756000D01*
X155590563Y-61960432D01*
X155590565Y-61960435D01*
X156416063Y-62785932D01*
X156416065Y-62785935D01*
X156499312Y-62841559D01*
X156518818Y-62939623D01*
X156776908Y-63325881D01*
X157163166Y-63583971D01*
X157618789Y-63674600D01*
X157976211Y-63674600D01*
X158431834Y-63583971D01*
X158818092Y-63325881D01*
X159076182Y-62939623D01*
X159166811Y-62484000D01*
X159076182Y-62028377D01*
X158818092Y-61642119D01*
X158431834Y-61384029D01*
X157976211Y-61293400D01*
X157618789Y-61293400D01*
X157163166Y-61384029D01*
X156776908Y-61642119D01*
X156657979Y-61820109D01*
X156194435Y-61356565D01*
X156194432Y-61356563D01*
X155864935Y-61027065D01*
X155726406Y-60934503D01*
X155563000Y-60901999D01*
X155562995Y-60902000D01*
X145595418Y-60902000D01*
X145587105Y-60857821D01*
X145515488Y-60746526D01*
X145406214Y-60671862D01*
X145276500Y-60645594D01*
X144276500Y-60645594D01*
X144155321Y-60668395D01*
X144044026Y-60740012D01*
X143969362Y-60849286D01*
X143943094Y-60979000D01*
X143943094Y-61679000D01*
X143965895Y-61800179D01*
X144037512Y-61911474D01*
X144146786Y-61986138D01*
X144183140Y-61993500D01*
X142834869Y-61993500D01*
X142794446Y-61953076D01*
X142848974Y-61917988D01*
X142923638Y-61808714D01*
X142949906Y-61679000D01*
X142949906Y-60979000D01*
X142927105Y-60857821D01*
X142866056Y-60762950D01*
X142976199Y-60717327D01*
X143154827Y-60538698D01*
X143251500Y-60305309D01*
X143251500Y-60114750D01*
X143092750Y-59956000D01*
X142243500Y-59956000D01*
X142243500Y-59976000D01*
X141989500Y-59976000D01*
X141989500Y-59956000D01*
X141140250Y-59956000D01*
X140981500Y-60114750D01*
X128778000Y-60114750D01*
X128778000Y-59352691D01*
X140981500Y-59352691D01*
X140981500Y-59543250D01*
X141140250Y-59702000D01*
X141989500Y-59702000D01*
X141989500Y-59002750D01*
X142243500Y-59002750D01*
X142243500Y-59702000D01*
X143092750Y-59702000D01*
X143251500Y-59543250D01*
X143251500Y-59479000D01*
X143943094Y-59479000D01*
X143943094Y-60179000D01*
X143965895Y-60300179D01*
X144037512Y-60411474D01*
X144146786Y-60486138D01*
X144276500Y-60512406D01*
X145276500Y-60512406D01*
X145397679Y-60489605D01*
X145508974Y-60417988D01*
X145583638Y-60308714D01*
X145594313Y-60256000D01*
X156490250Y-60256000D01*
X156518818Y-60399623D01*
X156776908Y-60785881D01*
X157163166Y-61043971D01*
X157618789Y-61134600D01*
X157976211Y-61134600D01*
X158431834Y-61043971D01*
X158818092Y-60785881D01*
X159076182Y-60399623D01*
X159166811Y-59944000D01*
X159076182Y-59488377D01*
X158818092Y-59102119D01*
X158431834Y-58844029D01*
X157976211Y-58753400D01*
X157618789Y-58753400D01*
X157163166Y-58844029D01*
X156776908Y-59102119D01*
X156576533Y-59402000D01*
X145595418Y-59402000D01*
X145587105Y-59357821D01*
X145515488Y-59246526D01*
X145406214Y-59171862D01*
X145276500Y-59145594D01*
X144276500Y-59145594D01*
X144155321Y-59168395D01*
X144044026Y-59240012D01*
X143969362Y-59349286D01*
X143943094Y-59479000D01*
X143251500Y-59479000D01*
X143251500Y-59352691D01*
X143154827Y-59119302D01*
X142976199Y-58940673D01*
X142742810Y-58844000D01*
X142402250Y-58844000D01*
X142243500Y-59002750D01*
X141989500Y-59002750D01*
X141830750Y-58844000D01*
X141490190Y-58844000D01*
X141256801Y-58940673D01*
X141078173Y-59119302D01*
X140981500Y-59352691D01*
X128778000Y-59352691D01*
X128778000Y-57912000D01*
X160274000Y-57912000D01*
X160274000Y-79502000D01*
X160274000Y-79502000D01*
G37*
X160274000Y-79502000D02*
X128778000Y-79502000D01*
X128778000Y-77501750D01*
X128905000Y-77501750D01*
X128905000Y-78205909D01*
X129001673Y-78439298D01*
X129180301Y-78617927D01*
X129413690Y-78714600D01*
X130270250Y-78714600D01*
X130429000Y-78555850D01*
X130429000Y-77343000D01*
X130683000Y-77343000D01*
X130683000Y-78555850D01*
X130841750Y-78714600D01*
X131698310Y-78714600D01*
X131931699Y-78617927D01*
X132110327Y-78439298D01*
X132207000Y-78205909D01*
X132207000Y-77944025D01*
X132359301Y-78096327D01*
X132592690Y-78193000D01*
X132685250Y-78193000D01*
X132844000Y-78034250D01*
X132844000Y-77385000D01*
X133094000Y-77385000D01*
X133094000Y-78034250D01*
X133252750Y-78193000D01*
X133345310Y-78193000D01*
X133557760Y-78105000D01*
X157063189Y-78105000D01*
X157153818Y-78560623D01*
X157411908Y-78946881D01*
X157798166Y-79204971D01*
X158253789Y-79295600D01*
X158611211Y-79295600D01*
X159066834Y-79204971D01*
X159453092Y-78946881D01*
X159711182Y-78560623D01*
X159801811Y-78105000D01*
X159711182Y-77649377D01*
X159453092Y-77263119D01*
X159066834Y-77005029D01*
X158611211Y-76914400D01*
X158253789Y-76914400D01*
X157798166Y-77005029D01*
X157411908Y-77263119D01*
X157153818Y-77649377D01*
X157063189Y-78105000D01*
X133557760Y-78105000D01*
X133578699Y-78096327D01*
X133757327Y-77917698D01*
X133854000Y-77684309D01*
X133854000Y-77543750D01*
X133695250Y-77385000D01*
X133094000Y-77385000D01*
X132844000Y-77385000D01*
X132242750Y-77385000D01*
X132166500Y-77461250D01*
X132048250Y-77343000D01*
X130683000Y-77343000D01*
X130429000Y-77343000D01*
X129063750Y-77343000D01*
X128905000Y-77501750D01*
X128778000Y-77501750D01*
X128778000Y-76226091D01*
X128905000Y-76226091D01*
X128905000Y-76930250D01*
X129063750Y-77089000D01*
X130429000Y-77089000D01*
X130429000Y-77069000D01*
X130683000Y-77069000D01*
X130683000Y-77089000D01*
X132048250Y-77089000D01*
X132124500Y-77012750D01*
X132242750Y-77131000D01*
X132844000Y-77131000D01*
X132844000Y-77111000D01*
X133094000Y-77111000D01*
X133094000Y-77131000D01*
X133695250Y-77131000D01*
X133854000Y-76972250D01*
X133854000Y-76831691D01*
X133757327Y-76598302D01*
X133578699Y-76419673D01*
X133552406Y-76408782D01*
X133552406Y-75858000D01*
X133529605Y-75736821D01*
X133457988Y-75625526D01*
X133396000Y-75583171D01*
X133396000Y-75120505D01*
X133396001Y-75120500D01*
X133363497Y-74957094D01*
X133270935Y-74818565D01*
X132826435Y-74374065D01*
X132687906Y-74281503D01*
X132524500Y-74248999D01*
X132524495Y-74249000D01*
X131840375Y-74249000D01*
X131834682Y-74220377D01*
X131576592Y-73834119D01*
X131190334Y-73576029D01*
X130734711Y-73485400D01*
X130377289Y-73485400D01*
X129921666Y-73576029D01*
X129535408Y-73834119D01*
X129277318Y-74220377D01*
X129186689Y-74676000D01*
X129277318Y-75131623D01*
X129535408Y-75517881D01*
X129834009Y-75717400D01*
X129413690Y-75717400D01*
X129180301Y-75814073D01*
X129001673Y-75992702D01*
X128905000Y-76226091D01*
X128778000Y-76226091D01*
X128778000Y-61341000D01*
X129186689Y-61341000D01*
X129277318Y-61796623D01*
X129535408Y-62182881D01*
X129921666Y-62440971D01*
X130377289Y-62531600D01*
X130734711Y-62531600D01*
X131190334Y-62440971D01*
X131576592Y-62182881D01*
X131750196Y-61923066D01*
X133281130Y-63454000D01*
X131840375Y-63454000D01*
X131834682Y-63425377D01*
X131576592Y-63039119D01*
X131190334Y-62781029D01*
X130734711Y-62690400D01*
X130377289Y-62690400D01*
X129921666Y-62781029D01*
X129535408Y-63039119D01*
X129277318Y-63425377D01*
X129186689Y-63881000D01*
X129277318Y-64336623D01*
X129535408Y-64722881D01*
X129921666Y-64980971D01*
X130377289Y-65071600D01*
X130734711Y-65071600D01*
X131190334Y-64980971D01*
X131576592Y-64722881D01*
X131834682Y-64336623D01*
X131840375Y-64308000D01*
X133554130Y-64308000D01*
X135240130Y-65994000D01*
X131905406Y-65994000D01*
X131905406Y-65557400D01*
X131882605Y-65436221D01*
X131810988Y-65324926D01*
X131701714Y-65250262D01*
X131572000Y-65223994D01*
X129540000Y-65223994D01*
X129418821Y-65246795D01*
X129307526Y-65318412D01*
X129232862Y-65427686D01*
X129206594Y-65557400D01*
X129206594Y-67284600D01*
X129229395Y-67405779D01*
X129301012Y-67517074D01*
X129410286Y-67591738D01*
X129540000Y-67618006D01*
X131572000Y-67618006D01*
X131693179Y-67595205D01*
X131804474Y-67523588D01*
X131879138Y-67414314D01*
X131905406Y-67284600D01*
X131905406Y-66848000D01*
X135078130Y-66848000D01*
X135572498Y-67342368D01*
X135572498Y-67453748D01*
X135413750Y-67295000D01*
X135273190Y-67295000D01*
X135039801Y-67391673D01*
X134861173Y-67570302D01*
X134764500Y-67803691D01*
X134764500Y-67871250D01*
X134923250Y-68030000D01*
X135572500Y-68030000D01*
X135572500Y-67983000D01*
X135826500Y-67983000D01*
X135826500Y-68030000D01*
X135846500Y-68030000D01*
X135846500Y-68230000D01*
X135826500Y-68230000D01*
X135826500Y-68277000D01*
X135572500Y-68277000D01*
X135572500Y-68230000D01*
X134923250Y-68230000D01*
X134764500Y-68388750D01*
X134764500Y-68456309D01*
X134822983Y-68597500D01*
X134497359Y-68597500D01*
X134429488Y-68492026D01*
X134320214Y-68417362D01*
X134190500Y-68391094D01*
X133790500Y-68391094D01*
X133669321Y-68413895D01*
X133558026Y-68485512D01*
X133541170Y-68510181D01*
X133529488Y-68492026D01*
X133420214Y-68417362D01*
X133290500Y-68391094D01*
X132890500Y-68391094D01*
X132769321Y-68413895D01*
X132658026Y-68485512D01*
X132624895Y-68534000D01*
X131247161Y-68534000D01*
X131190334Y-68496029D01*
X130734711Y-68405400D01*
X130377289Y-68405400D01*
X129921666Y-68496029D01*
X129535408Y-68754119D01*
X129277318Y-69140377D01*
X129186689Y-69596000D01*
X129277318Y-70051623D01*
X129535408Y-70437881D01*
X129921666Y-70695971D01*
X130377289Y-70786600D01*
X130734711Y-70786600D01*
X131190334Y-70695971D01*
X131576592Y-70437881D01*
X131834682Y-70051623D01*
X131925311Y-69596000D01*
X131883937Y-69388000D01*
X132569042Y-69388000D01*
X132579895Y-69445679D01*
X132651512Y-69556974D01*
X132760786Y-69631638D01*
X132890500Y-69657906D01*
X133290500Y-69657906D01*
X133411679Y-69635105D01*
X133522974Y-69563488D01*
X133539830Y-69538819D01*
X133551512Y-69556974D01*
X133660786Y-69631638D01*
X133790500Y-69657906D01*
X134190500Y-69657906D01*
X134311679Y-69635105D01*
X134422974Y-69563488D01*
X134497638Y-69454214D01*
X134498188Y-69451500D01*
X135153450Y-69451500D01*
X135160512Y-69462474D01*
X135269786Y-69537138D01*
X135399500Y-69563406D01*
X135634537Y-69563406D01*
X135699725Y-69628594D01*
X135399500Y-69628594D01*
X135278321Y-69651395D01*
X135167026Y-69723012D01*
X135158835Y-69735000D01*
X134771500Y-69735000D01*
X134608094Y-69767503D01*
X134469565Y-69860065D01*
X134294911Y-70034719D01*
X134251214Y-70004862D01*
X134121500Y-69978594D01*
X133721500Y-69978594D01*
X133600321Y-70001395D01*
X133489026Y-70073012D01*
X133472170Y-70097681D01*
X133460488Y-70079526D01*
X133351214Y-70004862D01*
X133221500Y-69978594D01*
X132821500Y-69978594D01*
X132700321Y-70001395D01*
X132589026Y-70073012D01*
X132514362Y-70182286D01*
X132513812Y-70185000D01*
X132207000Y-70185000D01*
X132043594Y-70217503D01*
X131905065Y-70310065D01*
X131905063Y-70310068D01*
X131180965Y-71034165D01*
X130734711Y-70945400D01*
X130377289Y-70945400D01*
X129921666Y-71036029D01*
X129535408Y-71294119D01*
X129277318Y-71680377D01*
X129186689Y-72136000D01*
X129277318Y-72591623D01*
X129535408Y-72977881D01*
X129921666Y-73235971D01*
X130377289Y-73326600D01*
X130734711Y-73326600D01*
X131190334Y-73235971D01*
X131415273Y-73085671D01*
X136215391Y-73085671D01*
X136310645Y-73316203D01*
X136424312Y-73430069D01*
X136448003Y-73549170D01*
X136540565Y-73687699D01*
X139723799Y-76870932D01*
X139723801Y-76870935D01*
X139862330Y-76963497D01*
X140025736Y-76996001D01*
X140025741Y-76996000D01*
X141297582Y-76996000D01*
X141305895Y-77040179D01*
X141377512Y-77151474D01*
X141486786Y-77226138D01*
X141616500Y-77252406D01*
X142616500Y-77252406D01*
X142737679Y-77229605D01*
X142848974Y-77157988D01*
X142923638Y-77048714D01*
X142949906Y-76919000D01*
X142949906Y-76219000D01*
X142927105Y-76097821D01*
X142866056Y-76002950D01*
X142976199Y-75957327D01*
X143154827Y-75778698D01*
X143251500Y-75545309D01*
X143251500Y-75354750D01*
X143092750Y-75196000D01*
X142243500Y-75196000D01*
X142243500Y-75216000D01*
X141989500Y-75216000D01*
X141989500Y-75196000D01*
X141140250Y-75196000D01*
X140981500Y-75354750D01*
X140981500Y-75545309D01*
X141078173Y-75778698D01*
X141256801Y-75957327D01*
X141368042Y-76003405D01*
X141309362Y-76089286D01*
X141298687Y-76142000D01*
X140202605Y-76142000D01*
X137712530Y-73651924D01*
X137818151Y-73652017D01*
X138445567Y-74279432D01*
X138445569Y-74279435D01*
X138565099Y-74359302D01*
X138584098Y-74371997D01*
X138747504Y-74404500D01*
X141059451Y-74404500D01*
X140981500Y-74592691D01*
X140981500Y-74783250D01*
X141140250Y-74942000D01*
X141989500Y-74942000D01*
X141989500Y-74922000D01*
X142243500Y-74922000D01*
X142243500Y-74942000D01*
X143092750Y-74942000D01*
X143195940Y-74838810D01*
X143464000Y-75106869D01*
X143464000Y-75833495D01*
X143463999Y-75833500D01*
X143496503Y-75996906D01*
X143589065Y-76135435D01*
X143943094Y-76489464D01*
X143943094Y-76919000D01*
X143965895Y-77040179D01*
X144037512Y-77151474D01*
X144146786Y-77226138D01*
X144276500Y-77252406D01*
X145276500Y-77252406D01*
X145397679Y-77229605D01*
X145508974Y-77157988D01*
X145583638Y-77048714D01*
X145609906Y-76919000D01*
X145609906Y-76219000D01*
X145587105Y-76097821D01*
X145515488Y-75986526D01*
X145406214Y-75911862D01*
X145276500Y-75885594D01*
X144546964Y-75885594D01*
X144413776Y-75752406D01*
X145276500Y-75752406D01*
X145397679Y-75729605D01*
X145508974Y-75657988D01*
X145583638Y-75548714D01*
X145609906Y-75419000D01*
X145609906Y-74719000D01*
X145587105Y-74597821D01*
X145515488Y-74486526D01*
X145406214Y-74411862D01*
X145276500Y-74385594D01*
X144546963Y-74385594D01*
X144163235Y-74001866D01*
X144272000Y-74023500D01*
X149810130Y-74023500D01*
X151780563Y-75993932D01*
X151780565Y-75993935D01*
X151870459Y-76054000D01*
X151919094Y-76086497D01*
X152082500Y-76119001D01*
X152082505Y-76119000D01*
X157219552Y-76119000D01*
X157411908Y-76406881D01*
X157798166Y-76664971D01*
X158253789Y-76755600D01*
X158611211Y-76755600D01*
X159066834Y-76664971D01*
X159453092Y-76406881D01*
X159711182Y-76020623D01*
X159801811Y-75565000D01*
X159711182Y-75109377D01*
X159453092Y-74723119D01*
X159066834Y-74465029D01*
X158611211Y-74374400D01*
X158253789Y-74374400D01*
X157798166Y-74465029D01*
X157411908Y-74723119D01*
X157153818Y-75109377D01*
X157122863Y-75265000D01*
X152259369Y-75265000D01*
X150573370Y-73579000D01*
X157219552Y-73579000D01*
X157411908Y-73866881D01*
X157798166Y-74124971D01*
X158253789Y-74215600D01*
X158611211Y-74215600D01*
X159066834Y-74124971D01*
X159453092Y-73866881D01*
X159711182Y-73480623D01*
X159801811Y-73025000D01*
X159711182Y-72569377D01*
X159453092Y-72183119D01*
X159066834Y-71925029D01*
X158611211Y-71834400D01*
X158253789Y-71834400D01*
X157798166Y-71925029D01*
X157411908Y-72183119D01*
X157153818Y-72569377D01*
X157122863Y-72725000D01*
X144702869Y-72725000D01*
X144432370Y-72454500D01*
X144452002Y-72454500D01*
X144452002Y-72320252D01*
X144586250Y-72454500D01*
X144656309Y-72454500D01*
X144807536Y-72391860D01*
X144946691Y-72449500D01*
X145087250Y-72449500D01*
X145246000Y-72290750D01*
X145246000Y-71689500D01*
X145226000Y-71689500D01*
X145226000Y-71439500D01*
X145246000Y-71439500D01*
X145246000Y-71417500D01*
X145500000Y-71417500D01*
X145500000Y-71439500D01*
X145520000Y-71439500D01*
X145520000Y-71689500D01*
X145500000Y-71689500D01*
X145500000Y-72290750D01*
X145658750Y-72449500D01*
X145799309Y-72449500D01*
X146032698Y-72352827D01*
X146211327Y-72174199D01*
X146222218Y-72147906D01*
X146773000Y-72147906D01*
X146894179Y-72125105D01*
X147005474Y-72053488D01*
X147028867Y-72019250D01*
X155084500Y-72019250D01*
X155084500Y-72086809D01*
X155181173Y-72320198D01*
X155359801Y-72498827D01*
X155593190Y-72595500D01*
X155733750Y-72595500D01*
X155892500Y-72436750D01*
X155892500Y-71860500D01*
X156146500Y-71860500D01*
X156146500Y-72436750D01*
X156305250Y-72595500D01*
X156445810Y-72595500D01*
X156679199Y-72498827D01*
X156857827Y-72320198D01*
X156954500Y-72086809D01*
X156954500Y-72019250D01*
X156795750Y-71860500D01*
X156146500Y-71860500D01*
X155892500Y-71860500D01*
X155243250Y-71860500D01*
X155084500Y-72019250D01*
X147028867Y-72019250D01*
X147080138Y-71944214D01*
X147106406Y-71814500D01*
X147106406Y-71314500D01*
X147083605Y-71193321D01*
X147011988Y-71082026D01*
X146902714Y-71007362D01*
X146900000Y-71006812D01*
X146900000Y-70839147D01*
X147025735Y-70713631D01*
X147121391Y-70483265D01*
X147121609Y-70233829D01*
X147026355Y-70003297D01*
X146850131Y-69826765D01*
X146619765Y-69731109D01*
X146370329Y-69730891D01*
X146328066Y-69748354D01*
X146363500Y-69662809D01*
X146363500Y-69522250D01*
X146204750Y-69363500D01*
X145603500Y-69363500D01*
X145603500Y-69383500D01*
X145353500Y-69383500D01*
X145353500Y-69363500D01*
X144752250Y-69363500D01*
X144593500Y-69522250D01*
X144593500Y-69662809D01*
X144618885Y-69724094D01*
X144530000Y-69706094D01*
X144503066Y-69706094D01*
X144438327Y-69549801D01*
X144259698Y-69371173D01*
X144026309Y-69274500D01*
X143988750Y-69274500D01*
X143830000Y-69433250D01*
X143830000Y-69884704D01*
X143812862Y-69909786D01*
X143786594Y-70039500D01*
X143786594Y-70319500D01*
X143808052Y-70433540D01*
X143786594Y-70539500D01*
X143786594Y-70819500D01*
X143808052Y-70933540D01*
X143797473Y-70985776D01*
X143760302Y-71001173D01*
X143581673Y-71179801D01*
X143566622Y-71216138D01*
X143505960Y-71227552D01*
X143400000Y-71206094D01*
X143120000Y-71206094D01*
X143005960Y-71227552D01*
X142900000Y-71206094D01*
X142548000Y-71206094D01*
X142548000Y-71152906D01*
X142900000Y-71152906D01*
X143021179Y-71130105D01*
X143053200Y-71109500D01*
X143376250Y-71109500D01*
X143690000Y-70795750D01*
X143690000Y-70474296D01*
X143707138Y-70449214D01*
X143733406Y-70319500D01*
X143733406Y-69909500D01*
X143710605Y-69788321D01*
X143690000Y-69756300D01*
X143690000Y-69433250D01*
X143687000Y-69430250D01*
X143687000Y-69092005D01*
X143687001Y-69092000D01*
X143683000Y-69071886D01*
X143683000Y-68810191D01*
X144593500Y-68810191D01*
X144593500Y-68950750D01*
X144752250Y-69109500D01*
X145353500Y-69109500D01*
X145353500Y-68460250D01*
X145194750Y-68301500D01*
X145102190Y-68301500D01*
X144868801Y-68398173D01*
X144690173Y-68576802D01*
X144593500Y-68810191D01*
X143683000Y-68810191D01*
X143683000Y-68095474D01*
X143683906Y-68091000D01*
X143683906Y-67544000D01*
X143717094Y-67544000D01*
X143717094Y-68091000D01*
X143739895Y-68212179D01*
X143775500Y-68267510D01*
X143775500Y-68567250D01*
X143934250Y-68726000D01*
X143976810Y-68726000D01*
X144210199Y-68629327D01*
X144388827Y-68450698D01*
X144403878Y-68414362D01*
X144471679Y-68401605D01*
X144582974Y-68329988D01*
X144657638Y-68220714D01*
X144668515Y-68167000D01*
X145350630Y-68167000D01*
X145623690Y-68440060D01*
X145603500Y-68460250D01*
X145603500Y-69109500D01*
X146204750Y-69109500D01*
X146248940Y-69065310D01*
X148346063Y-71162432D01*
X148346065Y-71162435D01*
X148484594Y-71254997D01*
X148648000Y-71287500D01*
X155145261Y-71287500D01*
X155084500Y-71434191D01*
X155084500Y-71501750D01*
X155243250Y-71660500D01*
X155892500Y-71660500D01*
X155892500Y-71613500D01*
X156146500Y-71613500D01*
X156146500Y-71660500D01*
X156795750Y-71660500D01*
X156954500Y-71501750D01*
X156954500Y-71434191D01*
X156857827Y-71200802D01*
X156696026Y-71039000D01*
X157219552Y-71039000D01*
X157411908Y-71326881D01*
X157798166Y-71584971D01*
X158253789Y-71675600D01*
X158611211Y-71675600D01*
X159066834Y-71584971D01*
X159453092Y-71326881D01*
X159711182Y-70940623D01*
X159801811Y-70485000D01*
X159711182Y-70029377D01*
X159453092Y-69643119D01*
X159066834Y-69385029D01*
X158611211Y-69294400D01*
X158253789Y-69294400D01*
X157798166Y-69385029D01*
X157411908Y-69643119D01*
X157153818Y-70029377D01*
X157122863Y-70185000D01*
X156268005Y-70185000D01*
X156268000Y-70184999D01*
X156104594Y-70217503D01*
X155966065Y-70310065D01*
X155949036Y-70327094D01*
X155719500Y-70327094D01*
X155598321Y-70349895D01*
X155487026Y-70421512D01*
X155478835Y-70433500D01*
X148824869Y-70433500D01*
X146790428Y-68399058D01*
X146940665Y-68399189D01*
X147341063Y-68233748D01*
X147647671Y-67927674D01*
X147813811Y-67527566D01*
X147813812Y-67525665D01*
X150635811Y-67525665D01*
X150801252Y-67926063D01*
X151107326Y-68232671D01*
X151507434Y-68398811D01*
X151940665Y-68399189D01*
X152341063Y-68233748D01*
X152647671Y-67927674D01*
X152726846Y-67737000D01*
X153775630Y-67737000D01*
X154039094Y-68000464D01*
X154039094Y-68330000D01*
X154061895Y-68451179D01*
X154133512Y-68562474D01*
X154158181Y-68579330D01*
X154140026Y-68591012D01*
X154065362Y-68700286D01*
X154039094Y-68830000D01*
X154039094Y-69430000D01*
X154061895Y-69551179D01*
X154133512Y-69662474D01*
X154242786Y-69737138D01*
X154372500Y-69763406D01*
X154872500Y-69763406D01*
X154993679Y-69740605D01*
X155104974Y-69668988D01*
X155179638Y-69559714D01*
X155205906Y-69430000D01*
X155205906Y-69393500D01*
X155476990Y-69393500D01*
X155480512Y-69398974D01*
X155589786Y-69473638D01*
X155719500Y-69499906D01*
X156319500Y-69499906D01*
X156440679Y-69477105D01*
X156551974Y-69405488D01*
X156626638Y-69296214D01*
X156652906Y-69166500D01*
X156652906Y-68766500D01*
X156630105Y-68645321D01*
X156558488Y-68534026D01*
X156533819Y-68517170D01*
X156551974Y-68505488D01*
X156556407Y-68499000D01*
X157083094Y-68499000D01*
X157083094Y-68808600D01*
X157105895Y-68929779D01*
X157177512Y-69041074D01*
X157286786Y-69115738D01*
X157416500Y-69142006D01*
X159448500Y-69142006D01*
X159569679Y-69119205D01*
X159680974Y-69047588D01*
X159755638Y-68938314D01*
X159781906Y-68808600D01*
X159781906Y-67081400D01*
X159759105Y-66960221D01*
X159687488Y-66848926D01*
X159578214Y-66774262D01*
X159448500Y-66747994D01*
X157416500Y-66747994D01*
X157295321Y-66770795D01*
X157184026Y-66842412D01*
X157109362Y-66951686D01*
X157083094Y-67081400D01*
X157083094Y-67645000D01*
X156565550Y-67645000D01*
X156558488Y-67634026D01*
X156449214Y-67559362D01*
X156319500Y-67533094D01*
X155719500Y-67533094D01*
X155598321Y-67555895D01*
X155487026Y-67627512D01*
X155412362Y-67736786D01*
X155386094Y-67866500D01*
X155386094Y-68266500D01*
X155408895Y-68387679D01*
X155480512Y-68498974D01*
X155505181Y-68515830D01*
X155487026Y-68527512D01*
X155478835Y-68539500D01*
X155125122Y-68539500D01*
X155179638Y-68459714D01*
X155205906Y-68330000D01*
X155205906Y-67730000D01*
X155183105Y-67608821D01*
X155111488Y-67497526D01*
X155002214Y-67422862D01*
X154872500Y-67396594D01*
X154642964Y-67396594D01*
X154254435Y-67008065D01*
X154115906Y-66915503D01*
X153952500Y-66882999D01*
X153952495Y-66883000D01*
X152726867Y-66883000D01*
X152648748Y-66693937D01*
X152342674Y-66387329D01*
X151942566Y-66221189D01*
X151509335Y-66220811D01*
X151108937Y-66386252D01*
X150802329Y-66692326D01*
X150636189Y-67092434D01*
X150635811Y-67525665D01*
X147813812Y-67525665D01*
X147814189Y-67094335D01*
X147648748Y-66693937D01*
X147342674Y-66387329D01*
X146942566Y-66221189D01*
X146509335Y-66220811D01*
X146108937Y-66386252D01*
X145802329Y-66692326D01*
X145636189Y-67092434D01*
X145635978Y-67334577D01*
X145527500Y-67312999D01*
X145527495Y-67313000D01*
X144683906Y-67313000D01*
X144683906Y-67291000D01*
X144671376Y-67224406D01*
X144800500Y-67224406D01*
X144921679Y-67201605D01*
X145032974Y-67129988D01*
X145107638Y-67020714D01*
X145133906Y-66891000D01*
X145133906Y-66591000D01*
X145111105Y-66469821D01*
X145039488Y-66358526D01*
X144930214Y-66283862D01*
X144800500Y-66257594D01*
X144670420Y-66257594D01*
X144683906Y-66191000D01*
X144683906Y-65486962D01*
X144903691Y-65578000D01*
X144971250Y-65578000D01*
X145130000Y-65419250D01*
X145130000Y-64770000D01*
X145330000Y-64770000D01*
X145330000Y-65419250D01*
X145488750Y-65578000D01*
X145556309Y-65578000D01*
X145789698Y-65481327D01*
X145968327Y-65302699D01*
X146065000Y-65069310D01*
X146065000Y-64928750D01*
X145906250Y-64770000D01*
X145330000Y-64770000D01*
X145130000Y-64770000D01*
X145083000Y-64770000D01*
X145083000Y-64516000D01*
X145130000Y-64516000D01*
X145130000Y-63866750D01*
X145330000Y-63866750D01*
X145330000Y-64516000D01*
X145906250Y-64516000D01*
X146065000Y-64357250D01*
X146065000Y-64216690D01*
X145968327Y-63983301D01*
X145789698Y-63804673D01*
X145556309Y-63708000D01*
X145488750Y-63708000D01*
X145330000Y-63866750D01*
X145130000Y-63866750D01*
X144971250Y-63708000D01*
X144903691Y-63708000D01*
X144670302Y-63804673D01*
X144505922Y-63969052D01*
X144115935Y-63579065D01*
X143977406Y-63486503D01*
X143814000Y-63453999D01*
X143813995Y-63454000D01*
X143192500Y-63454000D01*
X143029094Y-63486503D01*
X142890565Y-63579065D01*
X142890563Y-63579068D01*
X142454065Y-64015565D01*
X142361503Y-64154094D01*
X142328999Y-64317500D01*
X142329000Y-64317505D01*
X142329000Y-65144950D01*
X142318026Y-65152012D01*
X142243362Y-65261286D01*
X142217094Y-65391000D01*
X142217094Y-66191000D01*
X142229624Y-66257594D01*
X142100500Y-66257594D01*
X141979321Y-66280395D01*
X141868026Y-66352012D01*
X141793362Y-66461286D01*
X141767094Y-66591000D01*
X141767094Y-66891000D01*
X141789895Y-67012179D01*
X141861512Y-67123474D01*
X141970786Y-67198138D01*
X142100500Y-67224406D01*
X142230580Y-67224406D01*
X142217094Y-67291000D01*
X142217094Y-67327500D01*
X142176500Y-67327500D01*
X142013094Y-67360003D01*
X141874565Y-67452565D01*
X141874563Y-67452568D01*
X141366565Y-67960565D01*
X141274003Y-68099094D01*
X141241499Y-68262500D01*
X141241500Y-68262505D01*
X141241500Y-69722995D01*
X141241499Y-69723000D01*
X141255771Y-69794750D01*
X141232109Y-69851735D01*
X141231891Y-70101171D01*
X141327145Y-70331703D01*
X141451559Y-70456335D01*
X141456664Y-70482000D01*
X141414498Y-70482000D01*
X141414498Y-70638748D01*
X141257750Y-70482000D01*
X141165190Y-70482000D01*
X140931801Y-70578673D01*
X140753173Y-70757302D01*
X140656500Y-70990691D01*
X140656500Y-71131250D01*
X140815250Y-71290000D01*
X141416500Y-71290000D01*
X141416500Y-71270000D01*
X141666500Y-71270000D01*
X141666500Y-71290000D01*
X141688500Y-71290000D01*
X141688500Y-71544000D01*
X141666500Y-71544000D01*
X141666500Y-71564000D01*
X141416500Y-71564000D01*
X141416500Y-71544000D01*
X140815250Y-71544000D01*
X140656500Y-71702750D01*
X140656500Y-71843309D01*
X140753173Y-72076698D01*
X140931801Y-72255327D01*
X140958094Y-72266218D01*
X140958094Y-72817000D01*
X140964680Y-72852000D01*
X139412141Y-72852000D01*
X139295011Y-72734870D01*
X139215855Y-72543297D01*
X139039631Y-72366765D01*
X138809265Y-72271109D01*
X138559829Y-72270891D01*
X138329297Y-72366145D01*
X138176000Y-72519174D01*
X138150631Y-72493761D01*
X137920265Y-72398105D01*
X137670829Y-72397887D01*
X137440297Y-72493141D01*
X137350441Y-72582841D01*
X137198131Y-72430265D01*
X136967765Y-72334609D01*
X136718329Y-72334391D01*
X136487797Y-72429645D01*
X136311265Y-72605869D01*
X136215609Y-72836235D01*
X136215391Y-73085671D01*
X131415273Y-73085671D01*
X131576592Y-72977881D01*
X131834682Y-72591623D01*
X131925311Y-72136000D01*
X131834682Y-71680377D01*
X131797756Y-71625113D01*
X132102119Y-71320750D01*
X134764500Y-71320750D01*
X134764500Y-71388309D01*
X134861173Y-71621698D01*
X135039801Y-71800327D01*
X135273190Y-71897000D01*
X135413750Y-71897000D01*
X135572500Y-71738250D01*
X135572500Y-71162000D01*
X135826500Y-71162000D01*
X135826500Y-71738250D01*
X135985250Y-71897000D01*
X136125810Y-71897000D01*
X136359199Y-71800327D01*
X136537827Y-71621698D01*
X136634500Y-71388309D01*
X136634500Y-71320750D01*
X136475750Y-71162000D01*
X135826500Y-71162000D01*
X135572500Y-71162000D01*
X134923250Y-71162000D01*
X134764500Y-71320750D01*
X132102119Y-71320750D01*
X132383869Y-71039000D01*
X132514641Y-71039000D01*
X132582512Y-71144474D01*
X132691786Y-71219138D01*
X132821500Y-71245406D01*
X133221500Y-71245406D01*
X133342679Y-71222605D01*
X133453974Y-71150988D01*
X133470830Y-71126319D01*
X133482512Y-71144474D01*
X133591786Y-71219138D01*
X133721500Y-71245406D01*
X134121500Y-71245406D01*
X134242679Y-71222605D01*
X134353974Y-71150988D01*
X134428638Y-71041714D01*
X134433707Y-71016681D01*
X134484906Y-71006497D01*
X134623435Y-70913935D01*
X134764500Y-70772870D01*
X134764500Y-70803250D01*
X134923250Y-70962000D01*
X135572500Y-70962000D01*
X135572500Y-70915000D01*
X135826500Y-70915000D01*
X135826500Y-70962000D01*
X136475750Y-70962000D01*
X136634500Y-70803250D01*
X136634500Y-70735691D01*
X136573739Y-70589000D01*
X138599715Y-70589000D01*
X138645869Y-70635235D01*
X138876235Y-70730891D01*
X139125671Y-70731109D01*
X139356203Y-70635855D01*
X139532735Y-70459631D01*
X139628391Y-70229265D01*
X139628609Y-69979829D01*
X139533355Y-69749297D01*
X139507213Y-69723109D01*
X139532735Y-69697631D01*
X139628391Y-69467265D01*
X139628609Y-69217829D01*
X139533355Y-68987297D01*
X139357131Y-68810765D01*
X139126765Y-68715109D01*
X139057047Y-68715048D01*
X139057107Y-68646329D01*
X138961853Y-68415797D01*
X138857000Y-68310761D01*
X138857000Y-67999005D01*
X138857001Y-67999000D01*
X138824497Y-67835594D01*
X138731935Y-67697065D01*
X132073935Y-61039065D01*
X131935406Y-60946503D01*
X131843192Y-60928160D01*
X131834682Y-60885377D01*
X131576592Y-60499119D01*
X131190334Y-60241029D01*
X130734711Y-60150400D01*
X130377289Y-60150400D01*
X129921666Y-60241029D01*
X129535408Y-60499119D01*
X129277318Y-60885377D01*
X129186689Y-61341000D01*
X128778000Y-61341000D01*
X128778000Y-60114750D01*
X140981500Y-60114750D01*
X140981500Y-60305309D01*
X141078173Y-60538698D01*
X141256801Y-60717327D01*
X141368042Y-60763405D01*
X141309362Y-60849286D01*
X141283094Y-60979000D01*
X141283094Y-61679000D01*
X141305895Y-61800179D01*
X141377512Y-61911474D01*
X141486786Y-61986138D01*
X141616500Y-62012406D01*
X141716036Y-62012406D01*
X141722003Y-62042406D01*
X141814565Y-62180935D01*
X142356063Y-62722432D01*
X142356065Y-62722435D01*
X142451098Y-62785934D01*
X142494594Y-62814997D01*
X142658000Y-62847501D01*
X142658005Y-62847500D01*
X153683630Y-62847500D01*
X156162065Y-65325935D01*
X156300594Y-65418497D01*
X156448094Y-65447837D01*
X156448094Y-65887600D01*
X156470895Y-66008779D01*
X156542512Y-66120074D01*
X156651786Y-66194738D01*
X156781500Y-66221006D01*
X158813500Y-66221006D01*
X158934679Y-66198205D01*
X159045974Y-66126588D01*
X159120638Y-66017314D01*
X159146906Y-65887600D01*
X159146906Y-64160400D01*
X159124105Y-64039221D01*
X159052488Y-63927926D01*
X158943214Y-63853262D01*
X158813500Y-63826994D01*
X156781500Y-63826994D01*
X156660321Y-63849795D01*
X156549026Y-63921412D01*
X156474362Y-64030686D01*
X156448094Y-64160400D01*
X156448094Y-64404224D01*
X154162435Y-62118565D01*
X154023906Y-62026003D01*
X153860500Y-61993499D01*
X153860495Y-61993500D01*
X145376978Y-61993500D01*
X145397679Y-61989605D01*
X145508974Y-61917988D01*
X145583638Y-61808714D01*
X145594313Y-61756000D01*
X155386130Y-61756000D01*
X155590563Y-61960432D01*
X155590565Y-61960435D01*
X156416063Y-62785932D01*
X156416065Y-62785935D01*
X156499312Y-62841559D01*
X156518818Y-62939623D01*
X156776908Y-63325881D01*
X157163166Y-63583971D01*
X157618789Y-63674600D01*
X157976211Y-63674600D01*
X158431834Y-63583971D01*
X158818092Y-63325881D01*
X159076182Y-62939623D01*
X159166811Y-62484000D01*
X159076182Y-62028377D01*
X158818092Y-61642119D01*
X158431834Y-61384029D01*
X157976211Y-61293400D01*
X157618789Y-61293400D01*
X157163166Y-61384029D01*
X156776908Y-61642119D01*
X156657979Y-61820109D01*
X156194435Y-61356565D01*
X156194432Y-61356563D01*
X155864935Y-61027065D01*
X155726406Y-60934503D01*
X155563000Y-60901999D01*
X155562995Y-60902000D01*
X145595418Y-60902000D01*
X145587105Y-60857821D01*
X145515488Y-60746526D01*
X145406214Y-60671862D01*
X145276500Y-60645594D01*
X144276500Y-60645594D01*
X144155321Y-60668395D01*
X144044026Y-60740012D01*
X143969362Y-60849286D01*
X143943094Y-60979000D01*
X143943094Y-61679000D01*
X143965895Y-61800179D01*
X144037512Y-61911474D01*
X144146786Y-61986138D01*
X144183140Y-61993500D01*
X142834869Y-61993500D01*
X142794446Y-61953076D01*
X142848974Y-61917988D01*
X142923638Y-61808714D01*
X142949906Y-61679000D01*
X142949906Y-60979000D01*
X142927105Y-60857821D01*
X142866056Y-60762950D01*
X142976199Y-60717327D01*
X143154827Y-60538698D01*
X143251500Y-60305309D01*
X143251500Y-60114750D01*
X143092750Y-59956000D01*
X142243500Y-59956000D01*
X142243500Y-59976000D01*
X141989500Y-59976000D01*
X141989500Y-59956000D01*
X141140250Y-59956000D01*
X140981500Y-60114750D01*
X128778000Y-60114750D01*
X128778000Y-59352691D01*
X140981500Y-59352691D01*
X140981500Y-59543250D01*
X141140250Y-59702000D01*
X141989500Y-59702000D01*
X141989500Y-59002750D01*
X142243500Y-59002750D01*
X142243500Y-59702000D01*
X143092750Y-59702000D01*
X143251500Y-59543250D01*
X143251500Y-59479000D01*
X143943094Y-59479000D01*
X143943094Y-60179000D01*
X143965895Y-60300179D01*
X144037512Y-60411474D01*
X144146786Y-60486138D01*
X144276500Y-60512406D01*
X145276500Y-60512406D01*
X145397679Y-60489605D01*
X145508974Y-60417988D01*
X145583638Y-60308714D01*
X145594313Y-60256000D01*
X156490250Y-60256000D01*
X156518818Y-60399623D01*
X156776908Y-60785881D01*
X157163166Y-61043971D01*
X157618789Y-61134600D01*
X157976211Y-61134600D01*
X158431834Y-61043971D01*
X158818092Y-60785881D01*
X159076182Y-60399623D01*
X159166811Y-59944000D01*
X159076182Y-59488377D01*
X158818092Y-59102119D01*
X158431834Y-58844029D01*
X157976211Y-58753400D01*
X157618789Y-58753400D01*
X157163166Y-58844029D01*
X156776908Y-59102119D01*
X156576533Y-59402000D01*
X145595418Y-59402000D01*
X145587105Y-59357821D01*
X145515488Y-59246526D01*
X145406214Y-59171862D01*
X145276500Y-59145594D01*
X144276500Y-59145594D01*
X144155321Y-59168395D01*
X144044026Y-59240012D01*
X143969362Y-59349286D01*
X143943094Y-59479000D01*
X143251500Y-59479000D01*
X143251500Y-59352691D01*
X143154827Y-59119302D01*
X142976199Y-58940673D01*
X142742810Y-58844000D01*
X142402250Y-58844000D01*
X142243500Y-59002750D01*
X141989500Y-59002750D01*
X141830750Y-58844000D01*
X141490190Y-58844000D01*
X141256801Y-58940673D01*
X141078173Y-59119302D01*
X140981500Y-59352691D01*
X128778000Y-59352691D01*
X128778000Y-57912000D01*
X160274000Y-57912000D01*
X160274000Y-79502000D01*
G36*
X144438000Y-71691502D02*
X144594748Y-71691502D01*
X144536750Y-71749500D01*
X144427500Y-71749500D01*
X144427500Y-71819500D01*
X144233406Y-71819500D01*
X144233406Y-71652906D01*
X144438000Y-71652906D01*
X144438000Y-71691502D01*
X144438000Y-71691502D01*
G37*
X144438000Y-71691502D02*
X144594748Y-71691502D01*
X144536750Y-71749500D01*
X144427500Y-71749500D01*
X144427500Y-71819500D01*
X144233406Y-71819500D01*
X144233406Y-71652906D01*
X144438000Y-71652906D01*
X144438000Y-71691502D01*
M02*
