M48
;DRILL file {KiCad 4.0.2+dfsg1-stable} date Fri 06 Oct 2017 12:50:12 PM EEST
;FORMAT={3:3/ absolute / metric / suppress trailing zeros}
FMAT,2
METRIC,LZ
T1C0.300
T2C0.400
T3C0.500
T4C0.700
T5C1.016
%
G90
G05
M71
T1
X107696Y-062357
X108394Y-062548
X109283Y-061913
X111125Y-060706
X111823Y-060833
X112331Y-060389
X112586Y-062738
X112628Y-066971
X112903Y-060833
X112967Y-058992
X113474Y-060452
X113496Y-066844
X11411Y-060897
X11411Y-062674
X114173Y-05842
X114173Y-059182
X114681Y-063627
X114808Y-06077
X115253Y-063055
X115506Y-064325
X116649Y-06204
X117031Y-060325
X117094Y-05861
X125095Y-073977
X126429Y-074867
X126429Y-075629
X126429Y-076391
X14224Y-068834
X142684Y-069533
T2
X09525Y-070168
X096774Y-073977
X103949Y-06096
X105283Y-061278
X109665Y-076581
X117983Y-074041
X136843Y-068771
X136843Y-072962
X137605Y-068707
X137795Y-073025
X13843Y-068771
X138684Y-072898
X139001Y-069342
X139001Y-070104
X141859Y-069977
X142621Y-072517
X143447Y-064643
X146495Y-070358
X148209Y-071692
X148209Y-074359
X149352Y-071692
X149415Y-074422
T4
X146725Y-06731
X151725Y-06731
T5
X093599Y-059944
X093599Y-062484
X093599Y-065024
X093599Y-068199
X093599Y-070739
X093599Y-073279
X093599Y-075819
X096647Y-058293
X099187Y-058293
X101727Y-058293
X104267Y-058293
X106807Y-058293
X120841Y-058547
X120841Y-061087
X120841Y-063627
X121476Y-066548
X121476Y-069088
X121476Y-071628
X121476Y-074168
X121476Y-076708
X124714Y-058801
X124714Y-061341
X124714Y-063881
X124714Y-066421
X124714Y-068961
X130556Y-061341
X130556Y-063881
X130556Y-066421
X130556Y-069596
X130556Y-072136
X130556Y-074676
X130556Y-077216
X157798Y-059944
X157798Y-062484
X157798Y-065024
X158433Y-067945
X158433Y-070485
X158433Y-073025
X158433Y-075565
X158433Y-078105
T3
X127762Y-057488G85X127762Y-067988
G05
X127762Y-069553G85X127762Y-080053
G05
T0
M30
