G04 #@! TF.FileFunction,Copper,L2,Bot,Signal*
%FSLAX46Y46*%
G04 Gerber Fmt 4.6, Leading zero omitted, Abs format (unit mm)*
G04 Created by KiCad (PCBNEW 4.0.2+dfsg1-stable) date Fri 06 Oct 2017 12:43:40 PM EEST*
%MOMM*%
G01*
G04 APERTURE LIST*
%ADD10C,0.100000*%
%ADD11C,1.524000*%
%ADD12R,2.032000X1.727200*%
%ADD13O,2.032000X1.727200*%
%ADD14R,1.727200X2.032000*%
%ADD15O,1.727200X2.032000*%
%ADD16O,0.500000X11.000000*%
%ADD17R,1.270000X5.080000*%
%ADD18R,8.000000X10.000000*%
%ADD19R,1.100000X0.800000*%
%ADD20R,1.100000X1.200000*%
%ADD21R,0.900000X1.200000*%
%ADD22C,0.500000*%
%ADD23C,0.600000*%
%ADD24C,0.400000*%
%ADD25C,0.200000*%
%ADD26C,0.254000*%
G04 APERTURE END LIST*
D10*
D11*
X146725000Y-67310000D03*
X151725000Y-67310000D03*
D12*
X93599000Y-65024000D03*
D13*
X93599000Y-62484000D03*
X93599000Y-59944000D03*
D12*
X93599000Y-75819000D03*
D13*
X93599000Y-73279000D03*
X93599000Y-70739000D03*
X93599000Y-68199000D03*
D14*
X106807000Y-58293000D03*
D15*
X104267000Y-58293000D03*
X101727000Y-58293000D03*
X99187000Y-58293000D03*
X96647000Y-58293000D03*
D12*
X124714000Y-68961000D03*
D13*
X124714000Y-66421000D03*
X124714000Y-63881000D03*
X124714000Y-61341000D03*
X124714000Y-58801000D03*
D12*
X120840500Y-63627000D03*
D13*
X120840500Y-61087000D03*
X120840500Y-58547000D03*
D12*
X157797500Y-65024000D03*
D13*
X157797500Y-62484000D03*
X157797500Y-59944000D03*
D12*
X130556000Y-66421000D03*
D13*
X130556000Y-63881000D03*
X130556000Y-61341000D03*
D12*
X130556000Y-77216000D03*
D13*
X130556000Y-74676000D03*
X130556000Y-72136000D03*
X130556000Y-69596000D03*
D12*
X121475500Y-66548000D03*
D13*
X121475500Y-69088000D03*
X121475500Y-71628000D03*
X121475500Y-74168000D03*
X121475500Y-76708000D03*
D12*
X158432500Y-67945000D03*
D13*
X158432500Y-70485000D03*
X158432500Y-73025000D03*
X158432500Y-75565000D03*
X158432500Y-78105000D03*
D16*
X127762000Y-62738000D03*
X127762000Y-74803000D03*
D17*
X118757700Y-70358000D03*
X96761300Y-70358000D03*
D18*
X107759500Y-70358000D03*
D19*
X123799000Y-73928500D03*
D20*
X123799000Y-75628500D03*
D21*
X125349000Y-71478500D03*
X125349000Y-79778500D03*
D19*
X123799000Y-77328500D03*
D22*
X114681000Y-63627000D03*
X115506500Y-64325500D03*
X113496000Y-66844000D03*
X112627500Y-66971000D03*
D23*
X109664500Y-76581000D03*
D22*
X112966500Y-58991500D03*
X107696000Y-62357000D03*
X142240000Y-68834000D03*
D23*
X139001500Y-69342000D03*
X139001500Y-70104000D03*
X141859000Y-69977000D03*
X96774000Y-73977500D03*
X117983000Y-74041000D03*
D22*
X125095000Y-73977500D03*
X113474500Y-60452000D03*
X112585500Y-62738000D03*
D23*
X95250000Y-70167500D03*
D22*
X126428500Y-76390500D03*
X126428500Y-74866500D03*
X126428500Y-75628500D03*
X116649500Y-62039500D03*
X109283500Y-61912500D03*
X112903000Y-60833000D03*
D23*
X136842500Y-72961500D03*
X136842500Y-68770500D03*
X137604500Y-68707000D03*
X137795000Y-73024996D03*
X138684000Y-72898000D03*
X138429998Y-68770500D03*
D22*
X117094000Y-58610500D03*
X114173000Y-58420000D03*
D23*
X105283000Y-61277500D03*
D22*
X111125000Y-60706000D03*
D23*
X103949500Y-60960000D03*
D22*
X112331500Y-60388500D03*
X115252500Y-63055500D03*
X114808000Y-60769500D03*
X114109500Y-60896500D03*
X114109500Y-62674500D03*
X114173000Y-59182000D03*
X117030500Y-60325000D03*
D23*
X149415500Y-74422000D03*
X149352000Y-71691500D03*
X148209000Y-74358500D03*
X148209000Y-71691500D03*
D22*
X142684500Y-69532500D03*
D23*
X143446500Y-64643000D03*
X146494500Y-70358000D03*
X142621000Y-72517000D03*
D22*
X108394500Y-62547500D03*
X111823500Y-60833000D03*
D24*
X115506500Y-64325500D02*
X114808000Y-63627000D01*
X114808000Y-63627000D02*
X114681000Y-63627000D01*
X113496000Y-66844000D02*
X112754500Y-66844000D01*
X112754500Y-66844000D02*
X112627500Y-66971000D01*
X112627500Y-66971000D02*
X113369000Y-66971000D01*
X113369000Y-66971000D02*
X113411000Y-66929000D01*
D25*
X142240000Y-68834000D02*
X141732000Y-69342000D01*
X141732000Y-69342000D02*
X139425764Y-69342000D01*
X139425764Y-69342000D02*
X139001500Y-69342000D01*
X139128500Y-69977000D02*
X139001500Y-70104000D01*
X141859000Y-69977000D02*
X139128500Y-69977000D01*
D24*
X118757700Y-73266300D02*
X118757700Y-70358000D01*
X96774000Y-73977500D02*
X96736445Y-73939945D01*
X96736445Y-73939945D02*
X96736445Y-68694845D01*
X118757700Y-73266300D02*
X117983000Y-74041000D01*
X117983000Y-74041000D02*
X118554500Y-73469500D01*
X125095000Y-73977500D02*
X123848000Y-73977500D01*
X123848000Y-73977500D02*
X123799000Y-73928500D01*
D25*
X113474500Y-60452000D02*
X113474500Y-61023500D01*
X113474500Y-61023500D02*
X112585500Y-61912500D01*
X112585500Y-61912500D02*
X112585500Y-62738000D01*
D24*
X124714000Y-58801000D02*
X124206000Y-58801000D01*
X124206000Y-58801000D02*
X122872848Y-60134152D01*
X122872848Y-60134152D02*
X122872848Y-64216746D01*
X122872848Y-64216746D02*
X122047610Y-65041984D01*
X116649500Y-62139158D02*
X116649500Y-62039500D01*
X122047610Y-65041984D02*
X119552326Y-65041984D01*
X119552326Y-65041984D02*
X116649500Y-62139158D01*
X95250000Y-70167500D02*
X95313500Y-70104000D01*
X95313500Y-70104000D02*
X95313500Y-59626500D01*
X95313500Y-59626500D02*
X96647000Y-58293000D01*
X125666500Y-75628500D02*
X126428500Y-76390500D01*
X125603000Y-75628500D02*
X126428500Y-75628500D01*
X123799000Y-75628500D02*
X125603000Y-75628500D01*
X125603000Y-75628500D02*
X125666500Y-75628500D01*
X125666500Y-75628500D02*
X126428500Y-74866500D01*
X124714000Y-58801000D02*
X124561600Y-58801000D01*
D25*
X109283500Y-61912500D02*
X111569500Y-61912500D01*
X111569500Y-61912500D02*
X112649000Y-60833000D01*
X112649000Y-60833000D02*
X112903000Y-60833000D01*
X136842500Y-68770500D02*
X136842500Y-72961500D01*
X137604500Y-68707000D02*
X137667996Y-68770496D01*
X137667996Y-68770496D02*
X137667996Y-72897992D01*
X137667996Y-72897992D02*
X137795000Y-73024996D01*
X138684000Y-72898000D02*
X138429998Y-72643998D01*
X138429998Y-72643998D02*
X138429998Y-68770500D01*
X117094000Y-58610500D02*
X115443000Y-58610500D01*
X115443000Y-58610500D02*
X115252500Y-58420000D01*
X115252500Y-58420000D02*
X114173000Y-58420000D01*
X105283000Y-61277500D02*
X105600500Y-60960000D01*
X105600500Y-60960000D02*
X110871000Y-60960000D01*
X110871000Y-60960000D02*
X111125000Y-60706000D01*
X103949500Y-60960000D02*
X104775000Y-60960000D01*
X104775000Y-60960000D02*
X105156000Y-60579000D01*
X111442500Y-60071000D02*
X111633000Y-60261500D01*
X105156000Y-60579000D02*
X110490000Y-60579000D01*
X110490000Y-60579000D02*
X110998000Y-60071000D01*
X112204500Y-60261500D02*
X112331500Y-60388500D01*
X110998000Y-60071000D02*
X111442500Y-60071000D01*
X111633000Y-60261500D02*
X112204500Y-60261500D01*
X115252500Y-63055500D02*
X114998500Y-62801500D01*
X114998500Y-62801500D02*
X114998500Y-60960000D01*
X114998500Y-60960000D02*
X114808000Y-60769500D01*
X114109500Y-60896500D02*
X114109500Y-62674500D01*
X114173000Y-59182000D02*
X114173000Y-59880500D01*
X114173000Y-59880500D02*
X114490500Y-60198000D01*
X114490500Y-60198000D02*
X114998500Y-60198000D01*
X114998500Y-60198000D02*
X115379500Y-60579000D01*
X115379500Y-60579000D02*
X115379500Y-62293500D01*
X115379500Y-62293500D02*
X118110000Y-65024000D01*
X118110000Y-65024000D02*
X118110000Y-65874900D01*
X118110000Y-65874900D02*
X121323100Y-69088000D01*
X121323100Y-69088000D02*
X121475500Y-69088000D01*
X117030500Y-60325000D02*
X117030500Y-60896500D01*
X117030500Y-60896500D02*
X116078000Y-61849000D01*
X116078000Y-61849000D02*
X116078000Y-62230000D01*
X116078000Y-62230000D02*
X118491000Y-64643000D01*
X118491000Y-64643000D02*
X118491000Y-65468500D01*
X118491000Y-65468500D02*
X119570500Y-66548000D01*
X119570500Y-66548000D02*
X121475500Y-66548000D01*
X117030500Y-60325000D02*
X117030500Y-60325008D01*
X117030500Y-60325008D02*
X116967008Y-60388500D01*
X149352000Y-71691500D02*
X149352000Y-74358500D01*
X149352000Y-74358500D02*
X149415500Y-74422000D01*
X148209000Y-71691500D02*
X148209000Y-74358500D01*
X108394500Y-62547500D02*
X108394500Y-62039500D01*
X108394500Y-62039500D02*
X109093000Y-61341000D01*
X109093000Y-61341000D02*
X111252000Y-61341000D01*
X111252000Y-61341000D02*
X111760000Y-60833000D01*
X111760000Y-60833000D02*
X111823500Y-60833000D01*
D26*
G36*
X98087029Y-57658666D02*
X97996400Y-58114289D01*
X97996400Y-58471711D01*
X98087029Y-58927334D01*
X98345119Y-59313592D01*
X98731377Y-59571682D01*
X99187000Y-59662311D01*
X99642623Y-59571682D01*
X100028881Y-59313592D01*
X100286971Y-58927334D01*
X100377600Y-58471711D01*
X100377600Y-58114289D01*
X100286971Y-57658666D01*
X100074379Y-57340500D01*
X100839621Y-57340500D01*
X100627029Y-57658666D01*
X100536400Y-58114289D01*
X100536400Y-58471711D01*
X100627029Y-58927334D01*
X100885119Y-59313592D01*
X101271377Y-59571682D01*
X101727000Y-59662311D01*
X102182623Y-59571682D01*
X102568881Y-59313592D01*
X102826971Y-58927334D01*
X102917600Y-58471711D01*
X102917600Y-58114289D01*
X102826971Y-57658666D01*
X102614379Y-57340500D01*
X103379621Y-57340500D01*
X103167029Y-57658666D01*
X103076400Y-58114289D01*
X103076400Y-58471711D01*
X103167029Y-58927334D01*
X103425119Y-59313592D01*
X103811377Y-59571682D01*
X104267000Y-59662311D01*
X104722623Y-59571682D01*
X105108881Y-59313592D01*
X105308400Y-59014991D01*
X105308400Y-59435310D01*
X105405073Y-59668699D01*
X105583702Y-59847327D01*
X105817091Y-59944000D01*
X106521250Y-59944000D01*
X106680000Y-59785250D01*
X106680000Y-58420000D01*
X106660000Y-58420000D01*
X106660000Y-58166000D01*
X106680000Y-58166000D01*
X106680000Y-58146000D01*
X106934000Y-58146000D01*
X106934000Y-58166000D01*
X106954000Y-58166000D01*
X106954000Y-58420000D01*
X106934000Y-58420000D01*
X106934000Y-59785250D01*
X107092750Y-59944000D01*
X107796909Y-59944000D01*
X108030298Y-59847327D01*
X108208927Y-59668699D01*
X108305600Y-59435310D01*
X108305600Y-58674000D01*
X113653636Y-58674000D01*
X113683558Y-58746417D01*
X113737999Y-58800953D01*
X113684129Y-58854729D01*
X113596100Y-59066724D01*
X113595900Y-59296269D01*
X113683558Y-59508417D01*
X113746000Y-59570968D01*
X113746000Y-59880495D01*
X113745999Y-59880500D01*
X113758894Y-59945325D01*
X113589776Y-59875100D01*
X113360231Y-59874900D01*
X113148083Y-59962558D01*
X112985629Y-60124729D01*
X112931110Y-60256024D01*
X112901066Y-60255998D01*
X112820942Y-60062083D01*
X112658771Y-59899629D01*
X112446776Y-59811600D01*
X112217231Y-59811400D01*
X112161325Y-59834500D01*
X111809870Y-59834500D01*
X111744435Y-59769065D01*
X111605906Y-59676503D01*
X111442500Y-59643999D01*
X111442495Y-59644000D01*
X110998000Y-59644000D01*
X110834594Y-59676503D01*
X110696065Y-59769065D01*
X110696063Y-59769068D01*
X110313130Y-60152000D01*
X105156000Y-60152000D01*
X104992594Y-60184503D01*
X104854065Y-60277065D01*
X104854063Y-60277068D01*
X104598130Y-60533000D01*
X104409184Y-60533000D01*
X104305131Y-60428765D01*
X104074765Y-60333109D01*
X103825329Y-60332891D01*
X103594797Y-60428145D01*
X103418265Y-60604369D01*
X103322609Y-60834735D01*
X103322391Y-61084171D01*
X103417645Y-61314703D01*
X103593869Y-61491235D01*
X103824235Y-61586891D01*
X104073671Y-61587109D01*
X104304203Y-61491855D01*
X104409241Y-61387000D01*
X104655904Y-61387000D01*
X104655891Y-61401671D01*
X104751145Y-61632203D01*
X104927369Y-61808735D01*
X105157735Y-61904391D01*
X105407171Y-61904609D01*
X105637703Y-61809355D01*
X105814235Y-61633131D01*
X105909891Y-61402765D01*
X105909905Y-61387000D01*
X108443131Y-61387000D01*
X108092565Y-61737565D01*
X108000003Y-61876094D01*
X107967499Y-62039500D01*
X107967500Y-62039505D01*
X107967500Y-62158466D01*
X107905629Y-62220229D01*
X107817600Y-62432224D01*
X107817400Y-62661769D01*
X107905058Y-62873917D01*
X108067229Y-63036371D01*
X108279224Y-63124400D01*
X108508769Y-63124600D01*
X108720917Y-63036942D01*
X108883371Y-62874771D01*
X108971400Y-62662776D01*
X108971600Y-62433231D01*
X108958893Y-62402477D01*
X109168224Y-62489400D01*
X109397769Y-62489600D01*
X109609917Y-62401942D01*
X109672468Y-62339500D01*
X111569495Y-62339500D01*
X111569500Y-62339501D01*
X111732906Y-62306997D01*
X111871435Y-62214435D01*
X112158500Y-61927370D01*
X112158500Y-62348966D01*
X112096629Y-62410729D01*
X112008600Y-62622724D01*
X112008400Y-62852269D01*
X112096058Y-63064417D01*
X112258229Y-63226871D01*
X112470224Y-63314900D01*
X112699769Y-63315100D01*
X112911917Y-63227442D01*
X113074371Y-63065271D01*
X113162400Y-62853276D01*
X113162600Y-62623731D01*
X113074942Y-62411583D01*
X113012500Y-62349032D01*
X113012500Y-62089370D01*
X113682500Y-61419369D01*
X113682500Y-62285466D01*
X113620629Y-62347229D01*
X113532600Y-62559224D01*
X113532400Y-62788769D01*
X113620058Y-63000917D01*
X113782229Y-63163371D01*
X113994224Y-63251400D01*
X114223769Y-63251600D01*
X114435917Y-63163942D01*
X114598371Y-63001771D01*
X114609970Y-62973837D01*
X114675485Y-63071887D01*
X114675400Y-63169769D01*
X114763058Y-63381917D01*
X114925229Y-63544371D01*
X115137224Y-63632400D01*
X115366769Y-63632600D01*
X115578917Y-63544942D01*
X115741371Y-63382771D01*
X115777616Y-63295486D01*
X117683000Y-65200870D01*
X117683000Y-65874895D01*
X117682999Y-65874900D01*
X117715503Y-66038306D01*
X117808065Y-66176835D01*
X119115824Y-67484594D01*
X118122700Y-67484594D01*
X118001521Y-67507395D01*
X117890226Y-67579012D01*
X117815562Y-67688286D01*
X117789294Y-67818000D01*
X117789294Y-72898000D01*
X117812095Y-73019179D01*
X117883712Y-73130474D01*
X117992986Y-73205138D01*
X118060001Y-73218709D01*
X117864814Y-73413896D01*
X117858829Y-73413891D01*
X117628297Y-73509145D01*
X117451765Y-73685369D01*
X117356109Y-73915735D01*
X117355891Y-74165171D01*
X117451145Y-74395703D01*
X117627369Y-74572235D01*
X117857735Y-74667891D01*
X118107171Y-74668109D01*
X118337703Y-74572855D01*
X118514235Y-74396631D01*
X118609891Y-74166265D01*
X118609897Y-74159393D01*
X119130345Y-73638945D01*
X119244585Y-73467975D01*
X119272801Y-73326119D01*
X119284700Y-73266300D01*
X119284700Y-73231406D01*
X119392700Y-73231406D01*
X119513879Y-73208605D01*
X119625174Y-73136988D01*
X119699838Y-73027714D01*
X119726106Y-72898000D01*
X119726106Y-71628000D01*
X120106189Y-71628000D01*
X120196818Y-72083623D01*
X120454908Y-72469881D01*
X120841166Y-72727971D01*
X121296789Y-72818600D01*
X121654211Y-72818600D01*
X122109834Y-72727971D01*
X122496092Y-72469881D01*
X122754182Y-72083623D01*
X122844811Y-71628000D01*
X122754182Y-71172377D01*
X122496092Y-70786119D01*
X122109834Y-70528029D01*
X121654211Y-70437400D01*
X121296789Y-70437400D01*
X120841166Y-70528029D01*
X120454908Y-70786119D01*
X120196818Y-71172377D01*
X120106189Y-71628000D01*
X119726106Y-71628000D01*
X119726106Y-68094875D01*
X120223570Y-68592340D01*
X120196818Y-68632377D01*
X120106189Y-69088000D01*
X120196818Y-69543623D01*
X120454908Y-69929881D01*
X120841166Y-70187971D01*
X121296789Y-70278600D01*
X121654211Y-70278600D01*
X122109834Y-70187971D01*
X122496092Y-69929881D01*
X122754182Y-69543623D01*
X122813233Y-69246750D01*
X123063000Y-69246750D01*
X123063000Y-69950909D01*
X123159673Y-70184298D01*
X123338301Y-70362927D01*
X123571690Y-70459600D01*
X124428250Y-70459600D01*
X124587000Y-70300850D01*
X124587000Y-69088000D01*
X123221750Y-69088000D01*
X123063000Y-69246750D01*
X122813233Y-69246750D01*
X122844811Y-69088000D01*
X122754182Y-68632377D01*
X122496092Y-68246119D01*
X122109834Y-67988029D01*
X121654211Y-67897400D01*
X121296789Y-67897400D01*
X120841166Y-67988029D01*
X120832673Y-67993704D01*
X120583975Y-67745006D01*
X122491500Y-67745006D01*
X122612679Y-67722205D01*
X122723974Y-67650588D01*
X122798638Y-67541314D01*
X122824906Y-67411600D01*
X122824906Y-65684400D01*
X122802105Y-65563221D01*
X122730488Y-65451926D01*
X122621214Y-65377262D01*
X122491500Y-65350994D01*
X122483890Y-65350994D01*
X123245493Y-64589391D01*
X123359733Y-64418420D01*
X123399848Y-64216746D01*
X123399848Y-64158303D01*
X123435318Y-64336623D01*
X123693408Y-64722881D01*
X124079666Y-64980971D01*
X124535289Y-65071600D01*
X124892711Y-65071600D01*
X125348334Y-64980971D01*
X125734592Y-64722881D01*
X125992682Y-64336623D01*
X126076815Y-63913655D01*
X126061542Y-66311561D01*
X125992682Y-65965377D01*
X125734592Y-65579119D01*
X125348334Y-65321029D01*
X124892711Y-65230400D01*
X124535289Y-65230400D01*
X124079666Y-65321029D01*
X123693408Y-65579119D01*
X123435318Y-65965377D01*
X123344689Y-66421000D01*
X123435318Y-66876623D01*
X123693408Y-67262881D01*
X123992009Y-67462400D01*
X123571690Y-67462400D01*
X123338301Y-67559073D01*
X123159673Y-67737702D01*
X123063000Y-67971091D01*
X123063000Y-68675250D01*
X123221750Y-68834000D01*
X124587000Y-68834000D01*
X124587000Y-68814000D01*
X124841000Y-68814000D01*
X124841000Y-68834000D01*
X124861000Y-68834000D01*
X124861000Y-69088000D01*
X124841000Y-69088000D01*
X124841000Y-70300850D01*
X124999750Y-70459600D01*
X125856310Y-70459600D01*
X126035595Y-70385338D01*
X126033952Y-70643268D01*
X125928714Y-70571362D01*
X125799000Y-70545094D01*
X124899000Y-70545094D01*
X124777821Y-70567895D01*
X124666526Y-70639512D01*
X124591862Y-70748786D01*
X124565594Y-70878500D01*
X124565594Y-72078500D01*
X124588395Y-72199679D01*
X124660012Y-72310974D01*
X124769286Y-72385638D01*
X124899000Y-72411906D01*
X125799000Y-72411906D01*
X125920179Y-72389105D01*
X126023254Y-72322777D01*
X126009582Y-74469398D01*
X125939629Y-74539229D01*
X125889317Y-74660393D01*
X125448210Y-75101500D01*
X124682406Y-75101500D01*
X124682406Y-75028500D01*
X124659605Y-74907321D01*
X124587988Y-74796026D01*
X124478714Y-74721362D01*
X124349000Y-74695094D01*
X123249000Y-74695094D01*
X123127821Y-74717895D01*
X123016526Y-74789512D01*
X122941862Y-74898786D01*
X122915594Y-75028500D01*
X122915594Y-75991476D01*
X122826232Y-75805964D01*
X122389820Y-75416046D01*
X122018461Y-75286146D01*
X122109834Y-75267971D01*
X122496092Y-75009881D01*
X122754182Y-74623623D01*
X122844811Y-74168000D01*
X122754182Y-73712377D01*
X122631320Y-73528500D01*
X122915594Y-73528500D01*
X122915594Y-74328500D01*
X122938395Y-74449679D01*
X123010012Y-74560974D01*
X123119286Y-74635638D01*
X123249000Y-74661906D01*
X124349000Y-74661906D01*
X124470179Y-74639105D01*
X124581474Y-74567488D01*
X124624512Y-74504500D01*
X124859553Y-74504500D01*
X124979724Y-74554400D01*
X125209269Y-74554600D01*
X125421417Y-74466942D01*
X125583871Y-74304771D01*
X125671900Y-74092776D01*
X125672100Y-73863231D01*
X125584442Y-73651083D01*
X125422271Y-73488629D01*
X125210276Y-73400600D01*
X124980731Y-73400400D01*
X124859480Y-73450500D01*
X124667730Y-73450500D01*
X124659605Y-73407321D01*
X124587988Y-73296026D01*
X124478714Y-73221362D01*
X124349000Y-73195094D01*
X123249000Y-73195094D01*
X123127821Y-73217895D01*
X123016526Y-73289512D01*
X122941862Y-73398786D01*
X122915594Y-73528500D01*
X122631320Y-73528500D01*
X122496092Y-73326119D01*
X122109834Y-73068029D01*
X121654211Y-72977400D01*
X121296789Y-72977400D01*
X120841166Y-73068029D01*
X120454908Y-73326119D01*
X120196818Y-73712377D01*
X120106189Y-74168000D01*
X120196818Y-74623623D01*
X120454908Y-75009881D01*
X120841166Y-75267971D01*
X120932539Y-75286146D01*
X120561180Y-75416046D01*
X120124768Y-75805964D01*
X119870791Y-76333209D01*
X119868142Y-76348974D01*
X119989283Y-76581000D01*
X121348500Y-76581000D01*
X121348500Y-76561000D01*
X121602500Y-76561000D01*
X121602500Y-76581000D01*
X121622500Y-76581000D01*
X121622500Y-76835000D01*
X121602500Y-76835000D01*
X121602500Y-78048924D01*
X121837413Y-78193184D01*
X122389820Y-77999954D01*
X122826232Y-77610036D01*
X122915594Y-77424524D01*
X122915594Y-77728500D01*
X122938395Y-77849679D01*
X123010012Y-77960974D01*
X123119286Y-78035638D01*
X123249000Y-78061906D01*
X124349000Y-78061906D01*
X124470179Y-78039105D01*
X124581474Y-77967488D01*
X124656138Y-77858214D01*
X124682406Y-77728500D01*
X124682406Y-76928500D01*
X124659605Y-76807321D01*
X124587988Y-76696026D01*
X124478714Y-76621362D01*
X124349000Y-76595094D01*
X123249000Y-76595094D01*
X123127821Y-76617895D01*
X123126500Y-76618745D01*
X123126500Y-76580998D01*
X122961718Y-76580998D01*
X123020604Y-76468211D01*
X123119286Y-76535638D01*
X123249000Y-76561906D01*
X124349000Y-76561906D01*
X124470179Y-76539105D01*
X124581474Y-76467488D01*
X124656138Y-76358214D01*
X124682406Y-76228500D01*
X124682406Y-76155500D01*
X125448210Y-76155500D01*
X125889368Y-76596658D01*
X125939058Y-76716917D01*
X125994910Y-76772866D01*
X125984807Y-78359000D01*
X92011500Y-78359000D01*
X92011500Y-77067026D01*
X119868142Y-77067026D01*
X119870791Y-77082791D01*
X120124768Y-77610036D01*
X120561180Y-77999954D01*
X121113587Y-78193184D01*
X121348500Y-78048924D01*
X121348500Y-76835000D01*
X119989283Y-76835000D01*
X119868142Y-77067026D01*
X92011500Y-77067026D01*
X92011500Y-73689516D01*
X92248268Y-74181036D01*
X92684680Y-74570954D01*
X92830593Y-74621994D01*
X92583000Y-74621994D01*
X92461821Y-74644795D01*
X92350526Y-74716412D01*
X92275862Y-74825686D01*
X92249594Y-74955400D01*
X92249594Y-76682600D01*
X92272395Y-76803779D01*
X92344012Y-76915074D01*
X92453286Y-76989738D01*
X92583000Y-77016006D01*
X94615000Y-77016006D01*
X94736179Y-76993205D01*
X94847474Y-76921588D01*
X94922138Y-76812314D01*
X94948406Y-76682600D01*
X94948406Y-74955400D01*
X94925605Y-74834221D01*
X94853988Y-74722926D01*
X94744714Y-74648262D01*
X94615000Y-74621994D01*
X94367407Y-74621994D01*
X94513320Y-74570954D01*
X94949732Y-74181036D01*
X95203709Y-73653791D01*
X95206358Y-73638026D01*
X95085217Y-73406000D01*
X93726000Y-73406000D01*
X93726000Y-73426000D01*
X93472000Y-73426000D01*
X93472000Y-73406000D01*
X93452000Y-73406000D01*
X93452000Y-73152000D01*
X93472000Y-73152000D01*
X93472000Y-73132000D01*
X93726000Y-73132000D01*
X93726000Y-73152000D01*
X95085217Y-73152000D01*
X95206358Y-72919974D01*
X95203709Y-72904209D01*
X94949732Y-72376964D01*
X94513320Y-71987046D01*
X94141961Y-71857146D01*
X94233334Y-71838971D01*
X94619592Y-71580881D01*
X94877682Y-71194623D01*
X94968311Y-70739000D01*
X94966238Y-70728577D01*
X95124735Y-70794391D01*
X95374171Y-70794609D01*
X95604703Y-70699355D01*
X95781235Y-70523131D01*
X95792894Y-70495053D01*
X95792894Y-72898000D01*
X95815695Y-73019179D01*
X95887312Y-73130474D01*
X95996586Y-73205138D01*
X96126300Y-73231406D01*
X96209445Y-73231406D01*
X96209445Y-73702113D01*
X96147109Y-73852235D01*
X96146891Y-74101671D01*
X96242145Y-74332203D01*
X96418369Y-74508735D01*
X96648735Y-74604391D01*
X96898171Y-74604609D01*
X97128703Y-74509355D01*
X97305235Y-74333131D01*
X97400891Y-74102765D01*
X97401109Y-73853329D01*
X97305855Y-73622797D01*
X97263445Y-73580313D01*
X97263445Y-73231406D01*
X97396300Y-73231406D01*
X97517479Y-73208605D01*
X97628774Y-73136988D01*
X97703438Y-73027714D01*
X97729706Y-72898000D01*
X97729706Y-70643750D01*
X103124500Y-70643750D01*
X103124500Y-75484310D01*
X103221173Y-75717699D01*
X103399802Y-75896327D01*
X103633191Y-75993000D01*
X107473750Y-75993000D01*
X107632500Y-75834250D01*
X107632500Y-70485000D01*
X107886500Y-70485000D01*
X107886500Y-75834250D01*
X108045250Y-75993000D01*
X111885809Y-75993000D01*
X112119198Y-75896327D01*
X112297827Y-75717699D01*
X112394500Y-75484310D01*
X112394500Y-70643750D01*
X112235750Y-70485000D01*
X107886500Y-70485000D01*
X107632500Y-70485000D01*
X103283250Y-70485000D01*
X103124500Y-70643750D01*
X97729706Y-70643750D01*
X97729706Y-67818000D01*
X97706905Y-67696821D01*
X97635288Y-67585526D01*
X97526014Y-67510862D01*
X97396300Y-67484594D01*
X96126300Y-67484594D01*
X96005121Y-67507395D01*
X95893826Y-67579012D01*
X95840500Y-67657057D01*
X95840500Y-65231690D01*
X103124500Y-65231690D01*
X103124500Y-70072250D01*
X103283250Y-70231000D01*
X107632500Y-70231000D01*
X107632500Y-64881750D01*
X107886500Y-64881750D01*
X107886500Y-70231000D01*
X112235750Y-70231000D01*
X112394500Y-70072250D01*
X112394500Y-65231690D01*
X112297827Y-64998301D01*
X112119198Y-64819673D01*
X111885809Y-64723000D01*
X108045250Y-64723000D01*
X107886500Y-64881750D01*
X107632500Y-64881750D01*
X107473750Y-64723000D01*
X103633191Y-64723000D01*
X103399802Y-64819673D01*
X103221173Y-64998301D01*
X103124500Y-65231690D01*
X95840500Y-65231690D01*
X95840500Y-59844790D01*
X96144758Y-59540532D01*
X96191377Y-59571682D01*
X96647000Y-59662311D01*
X97102623Y-59571682D01*
X97488881Y-59313592D01*
X97746971Y-58927334D01*
X97837600Y-58471711D01*
X97837600Y-58114289D01*
X97746971Y-57658666D01*
X97534379Y-57340500D01*
X98299621Y-57340500D01*
X98087029Y-57658666D01*
X98087029Y-57658666D01*
G37*
X98087029Y-57658666D02*
X97996400Y-58114289D01*
X97996400Y-58471711D01*
X98087029Y-58927334D01*
X98345119Y-59313592D01*
X98731377Y-59571682D01*
X99187000Y-59662311D01*
X99642623Y-59571682D01*
X100028881Y-59313592D01*
X100286971Y-58927334D01*
X100377600Y-58471711D01*
X100377600Y-58114289D01*
X100286971Y-57658666D01*
X100074379Y-57340500D01*
X100839621Y-57340500D01*
X100627029Y-57658666D01*
X100536400Y-58114289D01*
X100536400Y-58471711D01*
X100627029Y-58927334D01*
X100885119Y-59313592D01*
X101271377Y-59571682D01*
X101727000Y-59662311D01*
X102182623Y-59571682D01*
X102568881Y-59313592D01*
X102826971Y-58927334D01*
X102917600Y-58471711D01*
X102917600Y-58114289D01*
X102826971Y-57658666D01*
X102614379Y-57340500D01*
X103379621Y-57340500D01*
X103167029Y-57658666D01*
X103076400Y-58114289D01*
X103076400Y-58471711D01*
X103167029Y-58927334D01*
X103425119Y-59313592D01*
X103811377Y-59571682D01*
X104267000Y-59662311D01*
X104722623Y-59571682D01*
X105108881Y-59313592D01*
X105308400Y-59014991D01*
X105308400Y-59435310D01*
X105405073Y-59668699D01*
X105583702Y-59847327D01*
X105817091Y-59944000D01*
X106521250Y-59944000D01*
X106680000Y-59785250D01*
X106680000Y-58420000D01*
X106660000Y-58420000D01*
X106660000Y-58166000D01*
X106680000Y-58166000D01*
X106680000Y-58146000D01*
X106934000Y-58146000D01*
X106934000Y-58166000D01*
X106954000Y-58166000D01*
X106954000Y-58420000D01*
X106934000Y-58420000D01*
X106934000Y-59785250D01*
X107092750Y-59944000D01*
X107796909Y-59944000D01*
X108030298Y-59847327D01*
X108208927Y-59668699D01*
X108305600Y-59435310D01*
X108305600Y-58674000D01*
X113653636Y-58674000D01*
X113683558Y-58746417D01*
X113737999Y-58800953D01*
X113684129Y-58854729D01*
X113596100Y-59066724D01*
X113595900Y-59296269D01*
X113683558Y-59508417D01*
X113746000Y-59570968D01*
X113746000Y-59880495D01*
X113745999Y-59880500D01*
X113758894Y-59945325D01*
X113589776Y-59875100D01*
X113360231Y-59874900D01*
X113148083Y-59962558D01*
X112985629Y-60124729D01*
X112931110Y-60256024D01*
X112901066Y-60255998D01*
X112820942Y-60062083D01*
X112658771Y-59899629D01*
X112446776Y-59811600D01*
X112217231Y-59811400D01*
X112161325Y-59834500D01*
X111809870Y-59834500D01*
X111744435Y-59769065D01*
X111605906Y-59676503D01*
X111442500Y-59643999D01*
X111442495Y-59644000D01*
X110998000Y-59644000D01*
X110834594Y-59676503D01*
X110696065Y-59769065D01*
X110696063Y-59769068D01*
X110313130Y-60152000D01*
X105156000Y-60152000D01*
X104992594Y-60184503D01*
X104854065Y-60277065D01*
X104854063Y-60277068D01*
X104598130Y-60533000D01*
X104409184Y-60533000D01*
X104305131Y-60428765D01*
X104074765Y-60333109D01*
X103825329Y-60332891D01*
X103594797Y-60428145D01*
X103418265Y-60604369D01*
X103322609Y-60834735D01*
X103322391Y-61084171D01*
X103417645Y-61314703D01*
X103593869Y-61491235D01*
X103824235Y-61586891D01*
X104073671Y-61587109D01*
X104304203Y-61491855D01*
X104409241Y-61387000D01*
X104655904Y-61387000D01*
X104655891Y-61401671D01*
X104751145Y-61632203D01*
X104927369Y-61808735D01*
X105157735Y-61904391D01*
X105407171Y-61904609D01*
X105637703Y-61809355D01*
X105814235Y-61633131D01*
X105909891Y-61402765D01*
X105909905Y-61387000D01*
X108443131Y-61387000D01*
X108092565Y-61737565D01*
X108000003Y-61876094D01*
X107967499Y-62039500D01*
X107967500Y-62039505D01*
X107967500Y-62158466D01*
X107905629Y-62220229D01*
X107817600Y-62432224D01*
X107817400Y-62661769D01*
X107905058Y-62873917D01*
X108067229Y-63036371D01*
X108279224Y-63124400D01*
X108508769Y-63124600D01*
X108720917Y-63036942D01*
X108883371Y-62874771D01*
X108971400Y-62662776D01*
X108971600Y-62433231D01*
X108958893Y-62402477D01*
X109168224Y-62489400D01*
X109397769Y-62489600D01*
X109609917Y-62401942D01*
X109672468Y-62339500D01*
X111569495Y-62339500D01*
X111569500Y-62339501D01*
X111732906Y-62306997D01*
X111871435Y-62214435D01*
X112158500Y-61927370D01*
X112158500Y-62348966D01*
X112096629Y-62410729D01*
X112008600Y-62622724D01*
X112008400Y-62852269D01*
X112096058Y-63064417D01*
X112258229Y-63226871D01*
X112470224Y-63314900D01*
X112699769Y-63315100D01*
X112911917Y-63227442D01*
X113074371Y-63065271D01*
X113162400Y-62853276D01*
X113162600Y-62623731D01*
X113074942Y-62411583D01*
X113012500Y-62349032D01*
X113012500Y-62089370D01*
X113682500Y-61419369D01*
X113682500Y-62285466D01*
X113620629Y-62347229D01*
X113532600Y-62559224D01*
X113532400Y-62788769D01*
X113620058Y-63000917D01*
X113782229Y-63163371D01*
X113994224Y-63251400D01*
X114223769Y-63251600D01*
X114435917Y-63163942D01*
X114598371Y-63001771D01*
X114609970Y-62973837D01*
X114675485Y-63071887D01*
X114675400Y-63169769D01*
X114763058Y-63381917D01*
X114925229Y-63544371D01*
X115137224Y-63632400D01*
X115366769Y-63632600D01*
X115578917Y-63544942D01*
X115741371Y-63382771D01*
X115777616Y-63295486D01*
X117683000Y-65200870D01*
X117683000Y-65874895D01*
X117682999Y-65874900D01*
X117715503Y-66038306D01*
X117808065Y-66176835D01*
X119115824Y-67484594D01*
X118122700Y-67484594D01*
X118001521Y-67507395D01*
X117890226Y-67579012D01*
X117815562Y-67688286D01*
X117789294Y-67818000D01*
X117789294Y-72898000D01*
X117812095Y-73019179D01*
X117883712Y-73130474D01*
X117992986Y-73205138D01*
X118060001Y-73218709D01*
X117864814Y-73413896D01*
X117858829Y-73413891D01*
X117628297Y-73509145D01*
X117451765Y-73685369D01*
X117356109Y-73915735D01*
X117355891Y-74165171D01*
X117451145Y-74395703D01*
X117627369Y-74572235D01*
X117857735Y-74667891D01*
X118107171Y-74668109D01*
X118337703Y-74572855D01*
X118514235Y-74396631D01*
X118609891Y-74166265D01*
X118609897Y-74159393D01*
X119130345Y-73638945D01*
X119244585Y-73467975D01*
X119272801Y-73326119D01*
X119284700Y-73266300D01*
X119284700Y-73231406D01*
X119392700Y-73231406D01*
X119513879Y-73208605D01*
X119625174Y-73136988D01*
X119699838Y-73027714D01*
X119726106Y-72898000D01*
X119726106Y-71628000D01*
X120106189Y-71628000D01*
X120196818Y-72083623D01*
X120454908Y-72469881D01*
X120841166Y-72727971D01*
X121296789Y-72818600D01*
X121654211Y-72818600D01*
X122109834Y-72727971D01*
X122496092Y-72469881D01*
X122754182Y-72083623D01*
X122844811Y-71628000D01*
X122754182Y-71172377D01*
X122496092Y-70786119D01*
X122109834Y-70528029D01*
X121654211Y-70437400D01*
X121296789Y-70437400D01*
X120841166Y-70528029D01*
X120454908Y-70786119D01*
X120196818Y-71172377D01*
X120106189Y-71628000D01*
X119726106Y-71628000D01*
X119726106Y-68094875D01*
X120223570Y-68592340D01*
X120196818Y-68632377D01*
X120106189Y-69088000D01*
X120196818Y-69543623D01*
X120454908Y-69929881D01*
X120841166Y-70187971D01*
X121296789Y-70278600D01*
X121654211Y-70278600D01*
X122109834Y-70187971D01*
X122496092Y-69929881D01*
X122754182Y-69543623D01*
X122813233Y-69246750D01*
X123063000Y-69246750D01*
X123063000Y-69950909D01*
X123159673Y-70184298D01*
X123338301Y-70362927D01*
X123571690Y-70459600D01*
X124428250Y-70459600D01*
X124587000Y-70300850D01*
X124587000Y-69088000D01*
X123221750Y-69088000D01*
X123063000Y-69246750D01*
X122813233Y-69246750D01*
X122844811Y-69088000D01*
X122754182Y-68632377D01*
X122496092Y-68246119D01*
X122109834Y-67988029D01*
X121654211Y-67897400D01*
X121296789Y-67897400D01*
X120841166Y-67988029D01*
X120832673Y-67993704D01*
X120583975Y-67745006D01*
X122491500Y-67745006D01*
X122612679Y-67722205D01*
X122723974Y-67650588D01*
X122798638Y-67541314D01*
X122824906Y-67411600D01*
X122824906Y-65684400D01*
X122802105Y-65563221D01*
X122730488Y-65451926D01*
X122621214Y-65377262D01*
X122491500Y-65350994D01*
X122483890Y-65350994D01*
X123245493Y-64589391D01*
X123359733Y-64418420D01*
X123399848Y-64216746D01*
X123399848Y-64158303D01*
X123435318Y-64336623D01*
X123693408Y-64722881D01*
X124079666Y-64980971D01*
X124535289Y-65071600D01*
X124892711Y-65071600D01*
X125348334Y-64980971D01*
X125734592Y-64722881D01*
X125992682Y-64336623D01*
X126076815Y-63913655D01*
X126061542Y-66311561D01*
X125992682Y-65965377D01*
X125734592Y-65579119D01*
X125348334Y-65321029D01*
X124892711Y-65230400D01*
X124535289Y-65230400D01*
X124079666Y-65321029D01*
X123693408Y-65579119D01*
X123435318Y-65965377D01*
X123344689Y-66421000D01*
X123435318Y-66876623D01*
X123693408Y-67262881D01*
X123992009Y-67462400D01*
X123571690Y-67462400D01*
X123338301Y-67559073D01*
X123159673Y-67737702D01*
X123063000Y-67971091D01*
X123063000Y-68675250D01*
X123221750Y-68834000D01*
X124587000Y-68834000D01*
X124587000Y-68814000D01*
X124841000Y-68814000D01*
X124841000Y-68834000D01*
X124861000Y-68834000D01*
X124861000Y-69088000D01*
X124841000Y-69088000D01*
X124841000Y-70300850D01*
X124999750Y-70459600D01*
X125856310Y-70459600D01*
X126035595Y-70385338D01*
X126033952Y-70643268D01*
X125928714Y-70571362D01*
X125799000Y-70545094D01*
X124899000Y-70545094D01*
X124777821Y-70567895D01*
X124666526Y-70639512D01*
X124591862Y-70748786D01*
X124565594Y-70878500D01*
X124565594Y-72078500D01*
X124588395Y-72199679D01*
X124660012Y-72310974D01*
X124769286Y-72385638D01*
X124899000Y-72411906D01*
X125799000Y-72411906D01*
X125920179Y-72389105D01*
X126023254Y-72322777D01*
X126009582Y-74469398D01*
X125939629Y-74539229D01*
X125889317Y-74660393D01*
X125448210Y-75101500D01*
X124682406Y-75101500D01*
X124682406Y-75028500D01*
X124659605Y-74907321D01*
X124587988Y-74796026D01*
X124478714Y-74721362D01*
X124349000Y-74695094D01*
X123249000Y-74695094D01*
X123127821Y-74717895D01*
X123016526Y-74789512D01*
X122941862Y-74898786D01*
X122915594Y-75028500D01*
X122915594Y-75991476D01*
X122826232Y-75805964D01*
X122389820Y-75416046D01*
X122018461Y-75286146D01*
X122109834Y-75267971D01*
X122496092Y-75009881D01*
X122754182Y-74623623D01*
X122844811Y-74168000D01*
X122754182Y-73712377D01*
X122631320Y-73528500D01*
X122915594Y-73528500D01*
X122915594Y-74328500D01*
X122938395Y-74449679D01*
X123010012Y-74560974D01*
X123119286Y-74635638D01*
X123249000Y-74661906D01*
X124349000Y-74661906D01*
X124470179Y-74639105D01*
X124581474Y-74567488D01*
X124624512Y-74504500D01*
X124859553Y-74504500D01*
X124979724Y-74554400D01*
X125209269Y-74554600D01*
X125421417Y-74466942D01*
X125583871Y-74304771D01*
X125671900Y-74092776D01*
X125672100Y-73863231D01*
X125584442Y-73651083D01*
X125422271Y-73488629D01*
X125210276Y-73400600D01*
X124980731Y-73400400D01*
X124859480Y-73450500D01*
X124667730Y-73450500D01*
X124659605Y-73407321D01*
X124587988Y-73296026D01*
X124478714Y-73221362D01*
X124349000Y-73195094D01*
X123249000Y-73195094D01*
X123127821Y-73217895D01*
X123016526Y-73289512D01*
X122941862Y-73398786D01*
X122915594Y-73528500D01*
X122631320Y-73528500D01*
X122496092Y-73326119D01*
X122109834Y-73068029D01*
X121654211Y-72977400D01*
X121296789Y-72977400D01*
X120841166Y-73068029D01*
X120454908Y-73326119D01*
X120196818Y-73712377D01*
X120106189Y-74168000D01*
X120196818Y-74623623D01*
X120454908Y-75009881D01*
X120841166Y-75267971D01*
X120932539Y-75286146D01*
X120561180Y-75416046D01*
X120124768Y-75805964D01*
X119870791Y-76333209D01*
X119868142Y-76348974D01*
X119989283Y-76581000D01*
X121348500Y-76581000D01*
X121348500Y-76561000D01*
X121602500Y-76561000D01*
X121602500Y-76581000D01*
X121622500Y-76581000D01*
X121622500Y-76835000D01*
X121602500Y-76835000D01*
X121602500Y-78048924D01*
X121837413Y-78193184D01*
X122389820Y-77999954D01*
X122826232Y-77610036D01*
X122915594Y-77424524D01*
X122915594Y-77728500D01*
X122938395Y-77849679D01*
X123010012Y-77960974D01*
X123119286Y-78035638D01*
X123249000Y-78061906D01*
X124349000Y-78061906D01*
X124470179Y-78039105D01*
X124581474Y-77967488D01*
X124656138Y-77858214D01*
X124682406Y-77728500D01*
X124682406Y-76928500D01*
X124659605Y-76807321D01*
X124587988Y-76696026D01*
X124478714Y-76621362D01*
X124349000Y-76595094D01*
X123249000Y-76595094D01*
X123127821Y-76617895D01*
X123126500Y-76618745D01*
X123126500Y-76580998D01*
X122961718Y-76580998D01*
X123020604Y-76468211D01*
X123119286Y-76535638D01*
X123249000Y-76561906D01*
X124349000Y-76561906D01*
X124470179Y-76539105D01*
X124581474Y-76467488D01*
X124656138Y-76358214D01*
X124682406Y-76228500D01*
X124682406Y-76155500D01*
X125448210Y-76155500D01*
X125889368Y-76596658D01*
X125939058Y-76716917D01*
X125994910Y-76772866D01*
X125984807Y-78359000D01*
X92011500Y-78359000D01*
X92011500Y-77067026D01*
X119868142Y-77067026D01*
X119870791Y-77082791D01*
X120124768Y-77610036D01*
X120561180Y-77999954D01*
X121113587Y-78193184D01*
X121348500Y-78048924D01*
X121348500Y-76835000D01*
X119989283Y-76835000D01*
X119868142Y-77067026D01*
X92011500Y-77067026D01*
X92011500Y-73689516D01*
X92248268Y-74181036D01*
X92684680Y-74570954D01*
X92830593Y-74621994D01*
X92583000Y-74621994D01*
X92461821Y-74644795D01*
X92350526Y-74716412D01*
X92275862Y-74825686D01*
X92249594Y-74955400D01*
X92249594Y-76682600D01*
X92272395Y-76803779D01*
X92344012Y-76915074D01*
X92453286Y-76989738D01*
X92583000Y-77016006D01*
X94615000Y-77016006D01*
X94736179Y-76993205D01*
X94847474Y-76921588D01*
X94922138Y-76812314D01*
X94948406Y-76682600D01*
X94948406Y-74955400D01*
X94925605Y-74834221D01*
X94853988Y-74722926D01*
X94744714Y-74648262D01*
X94615000Y-74621994D01*
X94367407Y-74621994D01*
X94513320Y-74570954D01*
X94949732Y-74181036D01*
X95203709Y-73653791D01*
X95206358Y-73638026D01*
X95085217Y-73406000D01*
X93726000Y-73406000D01*
X93726000Y-73426000D01*
X93472000Y-73426000D01*
X93472000Y-73406000D01*
X93452000Y-73406000D01*
X93452000Y-73152000D01*
X93472000Y-73152000D01*
X93472000Y-73132000D01*
X93726000Y-73132000D01*
X93726000Y-73152000D01*
X95085217Y-73152000D01*
X95206358Y-72919974D01*
X95203709Y-72904209D01*
X94949732Y-72376964D01*
X94513320Y-71987046D01*
X94141961Y-71857146D01*
X94233334Y-71838971D01*
X94619592Y-71580881D01*
X94877682Y-71194623D01*
X94968311Y-70739000D01*
X94966238Y-70728577D01*
X95124735Y-70794391D01*
X95374171Y-70794609D01*
X95604703Y-70699355D01*
X95781235Y-70523131D01*
X95792894Y-70495053D01*
X95792894Y-72898000D01*
X95815695Y-73019179D01*
X95887312Y-73130474D01*
X95996586Y-73205138D01*
X96126300Y-73231406D01*
X96209445Y-73231406D01*
X96209445Y-73702113D01*
X96147109Y-73852235D01*
X96146891Y-74101671D01*
X96242145Y-74332203D01*
X96418369Y-74508735D01*
X96648735Y-74604391D01*
X96898171Y-74604609D01*
X97128703Y-74509355D01*
X97305235Y-74333131D01*
X97400891Y-74102765D01*
X97401109Y-73853329D01*
X97305855Y-73622797D01*
X97263445Y-73580313D01*
X97263445Y-73231406D01*
X97396300Y-73231406D01*
X97517479Y-73208605D01*
X97628774Y-73136988D01*
X97703438Y-73027714D01*
X97729706Y-72898000D01*
X97729706Y-70643750D01*
X103124500Y-70643750D01*
X103124500Y-75484310D01*
X103221173Y-75717699D01*
X103399802Y-75896327D01*
X103633191Y-75993000D01*
X107473750Y-75993000D01*
X107632500Y-75834250D01*
X107632500Y-70485000D01*
X107886500Y-70485000D01*
X107886500Y-75834250D01*
X108045250Y-75993000D01*
X111885809Y-75993000D01*
X112119198Y-75896327D01*
X112297827Y-75717699D01*
X112394500Y-75484310D01*
X112394500Y-70643750D01*
X112235750Y-70485000D01*
X107886500Y-70485000D01*
X107632500Y-70485000D01*
X103283250Y-70485000D01*
X103124500Y-70643750D01*
X97729706Y-70643750D01*
X97729706Y-67818000D01*
X97706905Y-67696821D01*
X97635288Y-67585526D01*
X97526014Y-67510862D01*
X97396300Y-67484594D01*
X96126300Y-67484594D01*
X96005121Y-67507395D01*
X95893826Y-67579012D01*
X95840500Y-67657057D01*
X95840500Y-65231690D01*
X103124500Y-65231690D01*
X103124500Y-70072250D01*
X103283250Y-70231000D01*
X107632500Y-70231000D01*
X107632500Y-64881750D01*
X107886500Y-64881750D01*
X107886500Y-70231000D01*
X112235750Y-70231000D01*
X112394500Y-70072250D01*
X112394500Y-65231690D01*
X112297827Y-64998301D01*
X112119198Y-64819673D01*
X111885809Y-64723000D01*
X108045250Y-64723000D01*
X107886500Y-64881750D01*
X107632500Y-64881750D01*
X107473750Y-64723000D01*
X103633191Y-64723000D01*
X103399802Y-64819673D01*
X103221173Y-64998301D01*
X103124500Y-65231690D01*
X95840500Y-65231690D01*
X95840500Y-59844790D01*
X96144758Y-59540532D01*
X96191377Y-59571682D01*
X96647000Y-59662311D01*
X97102623Y-59571682D01*
X97488881Y-59313592D01*
X97746971Y-58927334D01*
X97837600Y-58471711D01*
X97837600Y-58114289D01*
X97746971Y-57658666D01*
X97534379Y-57340500D01*
X98299621Y-57340500D01*
X98087029Y-57658666D01*
G36*
X160274000Y-79502000D02*
X159046514Y-79502000D01*
X159346820Y-79396954D01*
X159783232Y-79007036D01*
X160037209Y-78479791D01*
X160039858Y-78464026D01*
X159918717Y-78232000D01*
X158559500Y-78232000D01*
X158559500Y-78252000D01*
X158305500Y-78252000D01*
X158305500Y-78232000D01*
X156946283Y-78232000D01*
X156825142Y-78464026D01*
X156827791Y-78479791D01*
X157081768Y-79007036D01*
X157518180Y-79396954D01*
X157818486Y-79502000D01*
X128778000Y-79502000D01*
X128778000Y-75035026D01*
X128948642Y-75035026D01*
X128951291Y-75050791D01*
X129205268Y-75578036D01*
X129641680Y-75967954D01*
X129787593Y-76018994D01*
X129540000Y-76018994D01*
X129418821Y-76041795D01*
X129307526Y-76113412D01*
X129232862Y-76222686D01*
X129206594Y-76352400D01*
X129206594Y-78079600D01*
X129229395Y-78200779D01*
X129301012Y-78312074D01*
X129410286Y-78386738D01*
X129540000Y-78413006D01*
X131572000Y-78413006D01*
X131693179Y-78390205D01*
X131804474Y-78318588D01*
X131879138Y-78209314D01*
X131905406Y-78079600D01*
X131905406Y-77745974D01*
X156825142Y-77745974D01*
X156946283Y-77978000D01*
X158305500Y-77978000D01*
X158305500Y-77958000D01*
X158559500Y-77958000D01*
X158559500Y-77978000D01*
X159918717Y-77978000D01*
X160039858Y-77745974D01*
X160037209Y-77730209D01*
X159783232Y-77202964D01*
X159346820Y-76813046D01*
X158975461Y-76683146D01*
X159066834Y-76664971D01*
X159453092Y-76406881D01*
X159711182Y-76020623D01*
X159801811Y-75565000D01*
X159711182Y-75109377D01*
X159453092Y-74723119D01*
X159066834Y-74465029D01*
X158611211Y-74374400D01*
X158253789Y-74374400D01*
X157798166Y-74465029D01*
X157411908Y-74723119D01*
X157153818Y-75109377D01*
X157063189Y-75565000D01*
X157153818Y-76020623D01*
X157411908Y-76406881D01*
X157798166Y-76664971D01*
X157889539Y-76683146D01*
X157518180Y-76813046D01*
X157081768Y-77202964D01*
X156827791Y-77730209D01*
X156825142Y-77745974D01*
X131905406Y-77745974D01*
X131905406Y-76352400D01*
X131882605Y-76231221D01*
X131810988Y-76119926D01*
X131701714Y-76045262D01*
X131572000Y-76018994D01*
X131324407Y-76018994D01*
X131470320Y-75967954D01*
X131906732Y-75578036D01*
X132160709Y-75050791D01*
X132163358Y-75035026D01*
X132042217Y-74803000D01*
X130683000Y-74803000D01*
X130683000Y-74823000D01*
X130429000Y-74823000D01*
X130429000Y-74803000D01*
X129069783Y-74803000D01*
X128948642Y-75035026D01*
X128778000Y-75035026D01*
X128778000Y-74316974D01*
X128948642Y-74316974D01*
X129069783Y-74549000D01*
X130429000Y-74549000D01*
X130429000Y-74529000D01*
X130683000Y-74529000D01*
X130683000Y-74549000D01*
X132042217Y-74549000D01*
X132163358Y-74316974D01*
X132160709Y-74301209D01*
X131906732Y-73773964D01*
X131470320Y-73384046D01*
X131098961Y-73254146D01*
X131190334Y-73235971D01*
X131576592Y-72977881D01*
X131834682Y-72591623D01*
X131925311Y-72136000D01*
X131834682Y-71680377D01*
X131576592Y-71294119D01*
X131190334Y-71036029D01*
X130734711Y-70945400D01*
X130377289Y-70945400D01*
X129921666Y-71036029D01*
X129535408Y-71294119D01*
X129277318Y-71680377D01*
X129186689Y-72136000D01*
X129277318Y-72591623D01*
X129535408Y-72977881D01*
X129921666Y-73235971D01*
X130013039Y-73254146D01*
X129641680Y-73384046D01*
X129205268Y-73773964D01*
X128951291Y-74301209D01*
X128948642Y-74316974D01*
X128778000Y-74316974D01*
X128778000Y-69596000D01*
X129186689Y-69596000D01*
X129277318Y-70051623D01*
X129535408Y-70437881D01*
X129921666Y-70695971D01*
X130377289Y-70786600D01*
X130734711Y-70786600D01*
X131190334Y-70695971D01*
X131576592Y-70437881D01*
X131834682Y-70051623D01*
X131925311Y-69596000D01*
X131834682Y-69140377D01*
X131670507Y-68894671D01*
X136215391Y-68894671D01*
X136310645Y-69125203D01*
X136415500Y-69230241D01*
X136415500Y-72501816D01*
X136311265Y-72605869D01*
X136215609Y-72836235D01*
X136215391Y-73085671D01*
X136310645Y-73316203D01*
X136486869Y-73492735D01*
X136717235Y-73588391D01*
X136966671Y-73588609D01*
X137197203Y-73493355D01*
X137287059Y-73403655D01*
X137439369Y-73556231D01*
X137669735Y-73651887D01*
X137919171Y-73652105D01*
X138149703Y-73556851D01*
X138303000Y-73403822D01*
X138328369Y-73429235D01*
X138558735Y-73524891D01*
X138808171Y-73525109D01*
X139038703Y-73429855D01*
X139215235Y-73253631D01*
X139310891Y-73023265D01*
X139311109Y-72773829D01*
X139215855Y-72543297D01*
X139039631Y-72366765D01*
X138856998Y-72290929D01*
X138856998Y-71815671D01*
X147581891Y-71815671D01*
X147677145Y-72046203D01*
X147782000Y-72151241D01*
X147782000Y-73898816D01*
X147677765Y-74002869D01*
X147582109Y-74233235D01*
X147581891Y-74482671D01*
X147677145Y-74713203D01*
X147853369Y-74889735D01*
X148083735Y-74985391D01*
X148333171Y-74985609D01*
X148563703Y-74890355D01*
X148740235Y-74714131D01*
X148799158Y-74572229D01*
X148883645Y-74776703D01*
X149059869Y-74953235D01*
X149290235Y-75048891D01*
X149539671Y-75049109D01*
X149770203Y-74953855D01*
X149946735Y-74777631D01*
X150042391Y-74547265D01*
X150042609Y-74297829D01*
X149947355Y-74067297D01*
X149779000Y-73898648D01*
X149779000Y-73025000D01*
X157063189Y-73025000D01*
X157153818Y-73480623D01*
X157411908Y-73866881D01*
X157798166Y-74124971D01*
X158253789Y-74215600D01*
X158611211Y-74215600D01*
X159066834Y-74124971D01*
X159453092Y-73866881D01*
X159711182Y-73480623D01*
X159801811Y-73025000D01*
X159711182Y-72569377D01*
X159453092Y-72183119D01*
X159066834Y-71925029D01*
X158611211Y-71834400D01*
X158253789Y-71834400D01*
X157798166Y-71925029D01*
X157411908Y-72183119D01*
X157153818Y-72569377D01*
X157063189Y-73025000D01*
X149779000Y-73025000D01*
X149779000Y-72151184D01*
X149883235Y-72047131D01*
X149978891Y-71816765D01*
X149979109Y-71567329D01*
X149883855Y-71336797D01*
X149707631Y-71160265D01*
X149477265Y-71064609D01*
X149227829Y-71064391D01*
X148997297Y-71159645D01*
X148820765Y-71335869D01*
X148780519Y-71432792D01*
X148740855Y-71336797D01*
X148564631Y-71160265D01*
X148334265Y-71064609D01*
X148084829Y-71064391D01*
X147854297Y-71159645D01*
X147677765Y-71335869D01*
X147582109Y-71566235D01*
X147581891Y-71815671D01*
X138856998Y-71815671D01*
X138856998Y-70722903D01*
X138876235Y-70730891D01*
X139125671Y-70731109D01*
X139356203Y-70635855D01*
X139532735Y-70459631D01*
X139555835Y-70404000D01*
X141399316Y-70404000D01*
X141503369Y-70508235D01*
X141733735Y-70603891D01*
X141983171Y-70604109D01*
X142213703Y-70508855D01*
X142237599Y-70485000D01*
X157063189Y-70485000D01*
X157153818Y-70940623D01*
X157411908Y-71326881D01*
X157798166Y-71584971D01*
X158253789Y-71675600D01*
X158611211Y-71675600D01*
X159066834Y-71584971D01*
X159453092Y-71326881D01*
X159711182Y-70940623D01*
X159801811Y-70485000D01*
X159711182Y-70029377D01*
X159453092Y-69643119D01*
X159066834Y-69385029D01*
X158611211Y-69294400D01*
X158253789Y-69294400D01*
X157798166Y-69385029D01*
X157411908Y-69643119D01*
X157153818Y-70029377D01*
X157063189Y-70485000D01*
X142237599Y-70485000D01*
X142390235Y-70332631D01*
X142485891Y-70102265D01*
X142486109Y-69852829D01*
X142390855Y-69622297D01*
X142223360Y-69454509D01*
X142266846Y-69411024D01*
X142354269Y-69411100D01*
X142566417Y-69323442D01*
X142728871Y-69161271D01*
X142816900Y-68949276D01*
X142817100Y-68719731D01*
X142729442Y-68507583D01*
X142567271Y-68345129D01*
X142435021Y-68290213D01*
X145924392Y-68290213D01*
X145993857Y-68532397D01*
X146517302Y-68719144D01*
X147072368Y-68691362D01*
X147456143Y-68532397D01*
X147525608Y-68290213D01*
X146725000Y-67489605D01*
X145924392Y-68290213D01*
X142435021Y-68290213D01*
X142355276Y-68257100D01*
X142125731Y-68256900D01*
X141913583Y-68344558D01*
X141751129Y-68506729D01*
X141663100Y-68718724D01*
X141663023Y-68807107D01*
X141555130Y-68915000D01*
X139461184Y-68915000D01*
X139357131Y-68810765D01*
X139126765Y-68715109D01*
X139057047Y-68715048D01*
X139057107Y-68646329D01*
X138961853Y-68415797D01*
X138785629Y-68239265D01*
X138555263Y-68143609D01*
X138305827Y-68143391D01*
X138075295Y-68238645D01*
X138049052Y-68264842D01*
X137960131Y-68175765D01*
X137729765Y-68080109D01*
X137480329Y-68079891D01*
X137249797Y-68175145D01*
X137189256Y-68235580D01*
X136967765Y-68143609D01*
X136718329Y-68143391D01*
X136487797Y-68238645D01*
X136311265Y-68414869D01*
X136215609Y-68645235D01*
X136215391Y-68894671D01*
X131670507Y-68894671D01*
X131576592Y-68754119D01*
X131190334Y-68496029D01*
X130734711Y-68405400D01*
X130377289Y-68405400D01*
X129921666Y-68496029D01*
X129535408Y-68754119D01*
X129277318Y-69140377D01*
X129186689Y-69596000D01*
X128778000Y-69596000D01*
X128778000Y-65557400D01*
X129206594Y-65557400D01*
X129206594Y-67284600D01*
X129229395Y-67405779D01*
X129301012Y-67517074D01*
X129410286Y-67591738D01*
X129540000Y-67618006D01*
X131572000Y-67618006D01*
X131693179Y-67595205D01*
X131804474Y-67523588D01*
X131879138Y-67414314D01*
X131905406Y-67284600D01*
X131905406Y-67102302D01*
X145315856Y-67102302D01*
X145343638Y-67657368D01*
X145502603Y-68041143D01*
X145744787Y-68110608D01*
X146545395Y-67310000D01*
X146904605Y-67310000D01*
X147705213Y-68110608D01*
X147947397Y-68041143D01*
X148131301Y-67525665D01*
X150635811Y-67525665D01*
X150801252Y-67926063D01*
X151107326Y-68232671D01*
X151507434Y-68398811D01*
X151940665Y-68399189D01*
X152341063Y-68233748D01*
X152647671Y-67927674D01*
X152813811Y-67527566D01*
X152814189Y-67094335D01*
X152808845Y-67081400D01*
X157083094Y-67081400D01*
X157083094Y-68808600D01*
X157105895Y-68929779D01*
X157177512Y-69041074D01*
X157286786Y-69115738D01*
X157416500Y-69142006D01*
X159448500Y-69142006D01*
X159569679Y-69119205D01*
X159680974Y-69047588D01*
X159755638Y-68938314D01*
X159781906Y-68808600D01*
X159781906Y-67081400D01*
X159759105Y-66960221D01*
X159687488Y-66848926D01*
X159578214Y-66774262D01*
X159448500Y-66747994D01*
X157416500Y-66747994D01*
X157295321Y-66770795D01*
X157184026Y-66842412D01*
X157109362Y-66951686D01*
X157083094Y-67081400D01*
X152808845Y-67081400D01*
X152648748Y-66693937D01*
X152342674Y-66387329D01*
X151942566Y-66221189D01*
X151509335Y-66220811D01*
X151108937Y-66386252D01*
X150802329Y-66692326D01*
X150636189Y-67092434D01*
X150635811Y-67525665D01*
X148131301Y-67525665D01*
X148134144Y-67517698D01*
X148106362Y-66962632D01*
X147947397Y-66578857D01*
X147705213Y-66509392D01*
X146904605Y-67310000D01*
X146545395Y-67310000D01*
X145744787Y-66509392D01*
X145502603Y-66578857D01*
X145315856Y-67102302D01*
X131905406Y-67102302D01*
X131905406Y-66329787D01*
X145924392Y-66329787D01*
X146725000Y-67130395D01*
X147525608Y-66329787D01*
X147456143Y-66087603D01*
X146932698Y-65900856D01*
X146377632Y-65928638D01*
X145993857Y-66087603D01*
X145924392Y-66329787D01*
X131905406Y-66329787D01*
X131905406Y-65557400D01*
X131882605Y-65436221D01*
X131810988Y-65324926D01*
X131701714Y-65250262D01*
X131572000Y-65223994D01*
X129540000Y-65223994D01*
X129418821Y-65246795D01*
X129307526Y-65318412D01*
X129232862Y-65427686D01*
X129206594Y-65557400D01*
X128778000Y-65557400D01*
X128778000Y-63881000D01*
X129186689Y-63881000D01*
X129277318Y-64336623D01*
X129535408Y-64722881D01*
X129921666Y-64980971D01*
X130377289Y-65071600D01*
X130734711Y-65071600D01*
X131190334Y-64980971D01*
X131576592Y-64722881D01*
X131834682Y-64336623D01*
X131869734Y-64160400D01*
X156448094Y-64160400D01*
X156448094Y-65887600D01*
X156470895Y-66008779D01*
X156542512Y-66120074D01*
X156651786Y-66194738D01*
X156781500Y-66221006D01*
X158813500Y-66221006D01*
X158934679Y-66198205D01*
X159045974Y-66126588D01*
X159120638Y-66017314D01*
X159146906Y-65887600D01*
X159146906Y-64160400D01*
X159124105Y-64039221D01*
X159052488Y-63927926D01*
X158943214Y-63853262D01*
X158813500Y-63826994D01*
X156781500Y-63826994D01*
X156660321Y-63849795D01*
X156549026Y-63921412D01*
X156474362Y-64030686D01*
X156448094Y-64160400D01*
X131869734Y-64160400D01*
X131925311Y-63881000D01*
X131834682Y-63425377D01*
X131576592Y-63039119D01*
X131190334Y-62781029D01*
X130734711Y-62690400D01*
X130377289Y-62690400D01*
X129921666Y-62781029D01*
X129535408Y-63039119D01*
X129277318Y-63425377D01*
X129186689Y-63881000D01*
X128778000Y-63881000D01*
X128778000Y-61341000D01*
X129186689Y-61341000D01*
X129277318Y-61796623D01*
X129535408Y-62182881D01*
X129921666Y-62440971D01*
X130377289Y-62531600D01*
X130734711Y-62531600D01*
X130974012Y-62484000D01*
X156428189Y-62484000D01*
X156518818Y-62939623D01*
X156776908Y-63325881D01*
X157163166Y-63583971D01*
X157618789Y-63674600D01*
X157976211Y-63674600D01*
X158431834Y-63583971D01*
X158818092Y-63325881D01*
X159076182Y-62939623D01*
X159166811Y-62484000D01*
X159076182Y-62028377D01*
X158818092Y-61642119D01*
X158431834Y-61384029D01*
X157976211Y-61293400D01*
X157618789Y-61293400D01*
X157163166Y-61384029D01*
X156776908Y-61642119D01*
X156518818Y-62028377D01*
X156428189Y-62484000D01*
X130974012Y-62484000D01*
X131190334Y-62440971D01*
X131576592Y-62182881D01*
X131834682Y-61796623D01*
X131925311Y-61341000D01*
X131834682Y-60885377D01*
X131576592Y-60499119D01*
X131190334Y-60241029D01*
X130734711Y-60150400D01*
X130377289Y-60150400D01*
X129921666Y-60241029D01*
X129535408Y-60499119D01*
X129277318Y-60885377D01*
X129186689Y-61341000D01*
X128778000Y-61341000D01*
X128778000Y-59944000D01*
X156428189Y-59944000D01*
X156518818Y-60399623D01*
X156776908Y-60785881D01*
X157163166Y-61043971D01*
X157618789Y-61134600D01*
X157976211Y-61134600D01*
X158431834Y-61043971D01*
X158818092Y-60785881D01*
X159076182Y-60399623D01*
X159166811Y-59944000D01*
X159076182Y-59488377D01*
X158818092Y-59102119D01*
X158431834Y-58844029D01*
X157976211Y-58753400D01*
X157618789Y-58753400D01*
X157163166Y-58844029D01*
X156776908Y-59102119D01*
X156518818Y-59488377D01*
X156428189Y-59944000D01*
X128778000Y-59944000D01*
X128778000Y-57912000D01*
X160274000Y-57912000D01*
X160274000Y-79502000D01*
X160274000Y-79502000D01*
G37*
X160274000Y-79502000D02*
X159046514Y-79502000D01*
X159346820Y-79396954D01*
X159783232Y-79007036D01*
X160037209Y-78479791D01*
X160039858Y-78464026D01*
X159918717Y-78232000D01*
X158559500Y-78232000D01*
X158559500Y-78252000D01*
X158305500Y-78252000D01*
X158305500Y-78232000D01*
X156946283Y-78232000D01*
X156825142Y-78464026D01*
X156827791Y-78479791D01*
X157081768Y-79007036D01*
X157518180Y-79396954D01*
X157818486Y-79502000D01*
X128778000Y-79502000D01*
X128778000Y-75035026D01*
X128948642Y-75035026D01*
X128951291Y-75050791D01*
X129205268Y-75578036D01*
X129641680Y-75967954D01*
X129787593Y-76018994D01*
X129540000Y-76018994D01*
X129418821Y-76041795D01*
X129307526Y-76113412D01*
X129232862Y-76222686D01*
X129206594Y-76352400D01*
X129206594Y-78079600D01*
X129229395Y-78200779D01*
X129301012Y-78312074D01*
X129410286Y-78386738D01*
X129540000Y-78413006D01*
X131572000Y-78413006D01*
X131693179Y-78390205D01*
X131804474Y-78318588D01*
X131879138Y-78209314D01*
X131905406Y-78079600D01*
X131905406Y-77745974D01*
X156825142Y-77745974D01*
X156946283Y-77978000D01*
X158305500Y-77978000D01*
X158305500Y-77958000D01*
X158559500Y-77958000D01*
X158559500Y-77978000D01*
X159918717Y-77978000D01*
X160039858Y-77745974D01*
X160037209Y-77730209D01*
X159783232Y-77202964D01*
X159346820Y-76813046D01*
X158975461Y-76683146D01*
X159066834Y-76664971D01*
X159453092Y-76406881D01*
X159711182Y-76020623D01*
X159801811Y-75565000D01*
X159711182Y-75109377D01*
X159453092Y-74723119D01*
X159066834Y-74465029D01*
X158611211Y-74374400D01*
X158253789Y-74374400D01*
X157798166Y-74465029D01*
X157411908Y-74723119D01*
X157153818Y-75109377D01*
X157063189Y-75565000D01*
X157153818Y-76020623D01*
X157411908Y-76406881D01*
X157798166Y-76664971D01*
X157889539Y-76683146D01*
X157518180Y-76813046D01*
X157081768Y-77202964D01*
X156827791Y-77730209D01*
X156825142Y-77745974D01*
X131905406Y-77745974D01*
X131905406Y-76352400D01*
X131882605Y-76231221D01*
X131810988Y-76119926D01*
X131701714Y-76045262D01*
X131572000Y-76018994D01*
X131324407Y-76018994D01*
X131470320Y-75967954D01*
X131906732Y-75578036D01*
X132160709Y-75050791D01*
X132163358Y-75035026D01*
X132042217Y-74803000D01*
X130683000Y-74803000D01*
X130683000Y-74823000D01*
X130429000Y-74823000D01*
X130429000Y-74803000D01*
X129069783Y-74803000D01*
X128948642Y-75035026D01*
X128778000Y-75035026D01*
X128778000Y-74316974D01*
X128948642Y-74316974D01*
X129069783Y-74549000D01*
X130429000Y-74549000D01*
X130429000Y-74529000D01*
X130683000Y-74529000D01*
X130683000Y-74549000D01*
X132042217Y-74549000D01*
X132163358Y-74316974D01*
X132160709Y-74301209D01*
X131906732Y-73773964D01*
X131470320Y-73384046D01*
X131098961Y-73254146D01*
X131190334Y-73235971D01*
X131576592Y-72977881D01*
X131834682Y-72591623D01*
X131925311Y-72136000D01*
X131834682Y-71680377D01*
X131576592Y-71294119D01*
X131190334Y-71036029D01*
X130734711Y-70945400D01*
X130377289Y-70945400D01*
X129921666Y-71036029D01*
X129535408Y-71294119D01*
X129277318Y-71680377D01*
X129186689Y-72136000D01*
X129277318Y-72591623D01*
X129535408Y-72977881D01*
X129921666Y-73235971D01*
X130013039Y-73254146D01*
X129641680Y-73384046D01*
X129205268Y-73773964D01*
X128951291Y-74301209D01*
X128948642Y-74316974D01*
X128778000Y-74316974D01*
X128778000Y-69596000D01*
X129186689Y-69596000D01*
X129277318Y-70051623D01*
X129535408Y-70437881D01*
X129921666Y-70695971D01*
X130377289Y-70786600D01*
X130734711Y-70786600D01*
X131190334Y-70695971D01*
X131576592Y-70437881D01*
X131834682Y-70051623D01*
X131925311Y-69596000D01*
X131834682Y-69140377D01*
X131670507Y-68894671D01*
X136215391Y-68894671D01*
X136310645Y-69125203D01*
X136415500Y-69230241D01*
X136415500Y-72501816D01*
X136311265Y-72605869D01*
X136215609Y-72836235D01*
X136215391Y-73085671D01*
X136310645Y-73316203D01*
X136486869Y-73492735D01*
X136717235Y-73588391D01*
X136966671Y-73588609D01*
X137197203Y-73493355D01*
X137287059Y-73403655D01*
X137439369Y-73556231D01*
X137669735Y-73651887D01*
X137919171Y-73652105D01*
X138149703Y-73556851D01*
X138303000Y-73403822D01*
X138328369Y-73429235D01*
X138558735Y-73524891D01*
X138808171Y-73525109D01*
X139038703Y-73429855D01*
X139215235Y-73253631D01*
X139310891Y-73023265D01*
X139311109Y-72773829D01*
X139215855Y-72543297D01*
X139039631Y-72366765D01*
X138856998Y-72290929D01*
X138856998Y-71815671D01*
X147581891Y-71815671D01*
X147677145Y-72046203D01*
X147782000Y-72151241D01*
X147782000Y-73898816D01*
X147677765Y-74002869D01*
X147582109Y-74233235D01*
X147581891Y-74482671D01*
X147677145Y-74713203D01*
X147853369Y-74889735D01*
X148083735Y-74985391D01*
X148333171Y-74985609D01*
X148563703Y-74890355D01*
X148740235Y-74714131D01*
X148799158Y-74572229D01*
X148883645Y-74776703D01*
X149059869Y-74953235D01*
X149290235Y-75048891D01*
X149539671Y-75049109D01*
X149770203Y-74953855D01*
X149946735Y-74777631D01*
X150042391Y-74547265D01*
X150042609Y-74297829D01*
X149947355Y-74067297D01*
X149779000Y-73898648D01*
X149779000Y-73025000D01*
X157063189Y-73025000D01*
X157153818Y-73480623D01*
X157411908Y-73866881D01*
X157798166Y-74124971D01*
X158253789Y-74215600D01*
X158611211Y-74215600D01*
X159066834Y-74124971D01*
X159453092Y-73866881D01*
X159711182Y-73480623D01*
X159801811Y-73025000D01*
X159711182Y-72569377D01*
X159453092Y-72183119D01*
X159066834Y-71925029D01*
X158611211Y-71834400D01*
X158253789Y-71834400D01*
X157798166Y-71925029D01*
X157411908Y-72183119D01*
X157153818Y-72569377D01*
X157063189Y-73025000D01*
X149779000Y-73025000D01*
X149779000Y-72151184D01*
X149883235Y-72047131D01*
X149978891Y-71816765D01*
X149979109Y-71567329D01*
X149883855Y-71336797D01*
X149707631Y-71160265D01*
X149477265Y-71064609D01*
X149227829Y-71064391D01*
X148997297Y-71159645D01*
X148820765Y-71335869D01*
X148780519Y-71432792D01*
X148740855Y-71336797D01*
X148564631Y-71160265D01*
X148334265Y-71064609D01*
X148084829Y-71064391D01*
X147854297Y-71159645D01*
X147677765Y-71335869D01*
X147582109Y-71566235D01*
X147581891Y-71815671D01*
X138856998Y-71815671D01*
X138856998Y-70722903D01*
X138876235Y-70730891D01*
X139125671Y-70731109D01*
X139356203Y-70635855D01*
X139532735Y-70459631D01*
X139555835Y-70404000D01*
X141399316Y-70404000D01*
X141503369Y-70508235D01*
X141733735Y-70603891D01*
X141983171Y-70604109D01*
X142213703Y-70508855D01*
X142237599Y-70485000D01*
X157063189Y-70485000D01*
X157153818Y-70940623D01*
X157411908Y-71326881D01*
X157798166Y-71584971D01*
X158253789Y-71675600D01*
X158611211Y-71675600D01*
X159066834Y-71584971D01*
X159453092Y-71326881D01*
X159711182Y-70940623D01*
X159801811Y-70485000D01*
X159711182Y-70029377D01*
X159453092Y-69643119D01*
X159066834Y-69385029D01*
X158611211Y-69294400D01*
X158253789Y-69294400D01*
X157798166Y-69385029D01*
X157411908Y-69643119D01*
X157153818Y-70029377D01*
X157063189Y-70485000D01*
X142237599Y-70485000D01*
X142390235Y-70332631D01*
X142485891Y-70102265D01*
X142486109Y-69852829D01*
X142390855Y-69622297D01*
X142223360Y-69454509D01*
X142266846Y-69411024D01*
X142354269Y-69411100D01*
X142566417Y-69323442D01*
X142728871Y-69161271D01*
X142816900Y-68949276D01*
X142817100Y-68719731D01*
X142729442Y-68507583D01*
X142567271Y-68345129D01*
X142435021Y-68290213D01*
X145924392Y-68290213D01*
X145993857Y-68532397D01*
X146517302Y-68719144D01*
X147072368Y-68691362D01*
X147456143Y-68532397D01*
X147525608Y-68290213D01*
X146725000Y-67489605D01*
X145924392Y-68290213D01*
X142435021Y-68290213D01*
X142355276Y-68257100D01*
X142125731Y-68256900D01*
X141913583Y-68344558D01*
X141751129Y-68506729D01*
X141663100Y-68718724D01*
X141663023Y-68807107D01*
X141555130Y-68915000D01*
X139461184Y-68915000D01*
X139357131Y-68810765D01*
X139126765Y-68715109D01*
X139057047Y-68715048D01*
X139057107Y-68646329D01*
X138961853Y-68415797D01*
X138785629Y-68239265D01*
X138555263Y-68143609D01*
X138305827Y-68143391D01*
X138075295Y-68238645D01*
X138049052Y-68264842D01*
X137960131Y-68175765D01*
X137729765Y-68080109D01*
X137480329Y-68079891D01*
X137249797Y-68175145D01*
X137189256Y-68235580D01*
X136967765Y-68143609D01*
X136718329Y-68143391D01*
X136487797Y-68238645D01*
X136311265Y-68414869D01*
X136215609Y-68645235D01*
X136215391Y-68894671D01*
X131670507Y-68894671D01*
X131576592Y-68754119D01*
X131190334Y-68496029D01*
X130734711Y-68405400D01*
X130377289Y-68405400D01*
X129921666Y-68496029D01*
X129535408Y-68754119D01*
X129277318Y-69140377D01*
X129186689Y-69596000D01*
X128778000Y-69596000D01*
X128778000Y-65557400D01*
X129206594Y-65557400D01*
X129206594Y-67284600D01*
X129229395Y-67405779D01*
X129301012Y-67517074D01*
X129410286Y-67591738D01*
X129540000Y-67618006D01*
X131572000Y-67618006D01*
X131693179Y-67595205D01*
X131804474Y-67523588D01*
X131879138Y-67414314D01*
X131905406Y-67284600D01*
X131905406Y-67102302D01*
X145315856Y-67102302D01*
X145343638Y-67657368D01*
X145502603Y-68041143D01*
X145744787Y-68110608D01*
X146545395Y-67310000D01*
X146904605Y-67310000D01*
X147705213Y-68110608D01*
X147947397Y-68041143D01*
X148131301Y-67525665D01*
X150635811Y-67525665D01*
X150801252Y-67926063D01*
X151107326Y-68232671D01*
X151507434Y-68398811D01*
X151940665Y-68399189D01*
X152341063Y-68233748D01*
X152647671Y-67927674D01*
X152813811Y-67527566D01*
X152814189Y-67094335D01*
X152808845Y-67081400D01*
X157083094Y-67081400D01*
X157083094Y-68808600D01*
X157105895Y-68929779D01*
X157177512Y-69041074D01*
X157286786Y-69115738D01*
X157416500Y-69142006D01*
X159448500Y-69142006D01*
X159569679Y-69119205D01*
X159680974Y-69047588D01*
X159755638Y-68938314D01*
X159781906Y-68808600D01*
X159781906Y-67081400D01*
X159759105Y-66960221D01*
X159687488Y-66848926D01*
X159578214Y-66774262D01*
X159448500Y-66747994D01*
X157416500Y-66747994D01*
X157295321Y-66770795D01*
X157184026Y-66842412D01*
X157109362Y-66951686D01*
X157083094Y-67081400D01*
X152808845Y-67081400D01*
X152648748Y-66693937D01*
X152342674Y-66387329D01*
X151942566Y-66221189D01*
X151509335Y-66220811D01*
X151108937Y-66386252D01*
X150802329Y-66692326D01*
X150636189Y-67092434D01*
X150635811Y-67525665D01*
X148131301Y-67525665D01*
X148134144Y-67517698D01*
X148106362Y-66962632D01*
X147947397Y-66578857D01*
X147705213Y-66509392D01*
X146904605Y-67310000D01*
X146545395Y-67310000D01*
X145744787Y-66509392D01*
X145502603Y-66578857D01*
X145315856Y-67102302D01*
X131905406Y-67102302D01*
X131905406Y-66329787D01*
X145924392Y-66329787D01*
X146725000Y-67130395D01*
X147525608Y-66329787D01*
X147456143Y-66087603D01*
X146932698Y-65900856D01*
X146377632Y-65928638D01*
X145993857Y-66087603D01*
X145924392Y-66329787D01*
X131905406Y-66329787D01*
X131905406Y-65557400D01*
X131882605Y-65436221D01*
X131810988Y-65324926D01*
X131701714Y-65250262D01*
X131572000Y-65223994D01*
X129540000Y-65223994D01*
X129418821Y-65246795D01*
X129307526Y-65318412D01*
X129232862Y-65427686D01*
X129206594Y-65557400D01*
X128778000Y-65557400D01*
X128778000Y-63881000D01*
X129186689Y-63881000D01*
X129277318Y-64336623D01*
X129535408Y-64722881D01*
X129921666Y-64980971D01*
X130377289Y-65071600D01*
X130734711Y-65071600D01*
X131190334Y-64980971D01*
X131576592Y-64722881D01*
X131834682Y-64336623D01*
X131869734Y-64160400D01*
X156448094Y-64160400D01*
X156448094Y-65887600D01*
X156470895Y-66008779D01*
X156542512Y-66120074D01*
X156651786Y-66194738D01*
X156781500Y-66221006D01*
X158813500Y-66221006D01*
X158934679Y-66198205D01*
X159045974Y-66126588D01*
X159120638Y-66017314D01*
X159146906Y-65887600D01*
X159146906Y-64160400D01*
X159124105Y-64039221D01*
X159052488Y-63927926D01*
X158943214Y-63853262D01*
X158813500Y-63826994D01*
X156781500Y-63826994D01*
X156660321Y-63849795D01*
X156549026Y-63921412D01*
X156474362Y-64030686D01*
X156448094Y-64160400D01*
X131869734Y-64160400D01*
X131925311Y-63881000D01*
X131834682Y-63425377D01*
X131576592Y-63039119D01*
X131190334Y-62781029D01*
X130734711Y-62690400D01*
X130377289Y-62690400D01*
X129921666Y-62781029D01*
X129535408Y-63039119D01*
X129277318Y-63425377D01*
X129186689Y-63881000D01*
X128778000Y-63881000D01*
X128778000Y-61341000D01*
X129186689Y-61341000D01*
X129277318Y-61796623D01*
X129535408Y-62182881D01*
X129921666Y-62440971D01*
X130377289Y-62531600D01*
X130734711Y-62531600D01*
X130974012Y-62484000D01*
X156428189Y-62484000D01*
X156518818Y-62939623D01*
X156776908Y-63325881D01*
X157163166Y-63583971D01*
X157618789Y-63674600D01*
X157976211Y-63674600D01*
X158431834Y-63583971D01*
X158818092Y-63325881D01*
X159076182Y-62939623D01*
X159166811Y-62484000D01*
X159076182Y-62028377D01*
X158818092Y-61642119D01*
X158431834Y-61384029D01*
X157976211Y-61293400D01*
X157618789Y-61293400D01*
X157163166Y-61384029D01*
X156776908Y-61642119D01*
X156518818Y-62028377D01*
X156428189Y-62484000D01*
X130974012Y-62484000D01*
X131190334Y-62440971D01*
X131576592Y-62182881D01*
X131834682Y-61796623D01*
X131925311Y-61341000D01*
X131834682Y-60885377D01*
X131576592Y-60499119D01*
X131190334Y-60241029D01*
X130734711Y-60150400D01*
X130377289Y-60150400D01*
X129921666Y-60241029D01*
X129535408Y-60499119D01*
X129277318Y-60885377D01*
X129186689Y-61341000D01*
X128778000Y-61341000D01*
X128778000Y-59944000D01*
X156428189Y-59944000D01*
X156518818Y-60399623D01*
X156776908Y-60785881D01*
X157163166Y-61043971D01*
X157618789Y-61134600D01*
X157976211Y-61134600D01*
X158431834Y-61043971D01*
X158818092Y-60785881D01*
X159076182Y-60399623D01*
X159166811Y-59944000D01*
X159076182Y-59488377D01*
X158818092Y-59102119D01*
X158431834Y-58844029D01*
X157976211Y-58753400D01*
X157618789Y-58753400D01*
X157163166Y-58844029D01*
X156776908Y-59102119D01*
X156518818Y-59488377D01*
X156428189Y-59944000D01*
X128778000Y-59944000D01*
X128778000Y-57912000D01*
X160274000Y-57912000D01*
X160274000Y-79502000D01*
M02*
