G04 #@! TF.FileFunction,Soldermask,Bot*
%FSLAX46Y46*%
G04 Gerber Fmt 4.6, Leading zero omitted, Abs format (unit mm)*
G04 Created by KiCad (PCBNEW 4.0.2+dfsg1-stable) date Fri 06 Oct 2017 12:43:40 PM EEST*
%MOMM*%
G01*
G04 APERTURE LIST*
%ADD10C,0.100000*%
%ADD11C,1.924000*%
%ADD12R,2.432000X2.127200*%
%ADD13O,2.432000X2.127200*%
%ADD14R,2.127200X2.432000*%
%ADD15O,2.127200X2.432000*%
%ADD16O,0.900000X11.400000*%
%ADD17R,1.670000X5.480000*%
%ADD18R,8.400000X10.400000*%
%ADD19R,1.500000X1.200000*%
%ADD20R,1.500000X1.600000*%
%ADD21R,1.300000X1.600000*%
G04 APERTURE END LIST*
D10*
D11*
X146725000Y-67310000D03*
X151725000Y-67310000D03*
D12*
X93599000Y-65024000D03*
D13*
X93599000Y-62484000D03*
X93599000Y-59944000D03*
D12*
X93599000Y-75819000D03*
D13*
X93599000Y-73279000D03*
X93599000Y-70739000D03*
X93599000Y-68199000D03*
D14*
X106807000Y-58293000D03*
D15*
X104267000Y-58293000D03*
X101727000Y-58293000D03*
X99187000Y-58293000D03*
X96647000Y-58293000D03*
D12*
X124714000Y-68961000D03*
D13*
X124714000Y-66421000D03*
X124714000Y-63881000D03*
X124714000Y-61341000D03*
X124714000Y-58801000D03*
D12*
X120840500Y-63627000D03*
D13*
X120840500Y-61087000D03*
X120840500Y-58547000D03*
D12*
X157797500Y-65024000D03*
D13*
X157797500Y-62484000D03*
X157797500Y-59944000D03*
D12*
X130556000Y-66421000D03*
D13*
X130556000Y-63881000D03*
X130556000Y-61341000D03*
D12*
X130556000Y-77216000D03*
D13*
X130556000Y-74676000D03*
X130556000Y-72136000D03*
X130556000Y-69596000D03*
D12*
X121475500Y-66548000D03*
D13*
X121475500Y-69088000D03*
X121475500Y-71628000D03*
X121475500Y-74168000D03*
X121475500Y-76708000D03*
D12*
X158432500Y-67945000D03*
D13*
X158432500Y-70485000D03*
X158432500Y-73025000D03*
X158432500Y-75565000D03*
X158432500Y-78105000D03*
D16*
X127762000Y-62738000D03*
X127762000Y-74803000D03*
D17*
X118757700Y-70358000D03*
X96761300Y-70358000D03*
D18*
X107759500Y-70358000D03*
D19*
X123799000Y-73928500D03*
D20*
X123799000Y-75628500D03*
D21*
X125349000Y-71478500D03*
X125349000Y-79778500D03*
D19*
X123799000Y-77328500D03*
M02*
